<svg width="1440" height="807" viewBox="0 0 1440 807" fill="none" xmlns="http://www.w3.org/2000/svg">
<g clip-path="url(#clip0_1092_21834)">
<mask id="mask0_1092_21834" style="mask-type:alpha" maskUnits="userSpaceOnUse" x="-1" y="0" width="1440" height="807">
<path d="M-1 0H1439V612.347L724 807L-1 612.347V0Z" fill="#339C43"/>
</mask>
<g mask="url(#mask0_1092_21834)">
<path d="M8.86917e-05 22H1440L1447.75 636L720 807L0 636L8.86917e-05 22Z" fill="#17A52C"/>
<path d="M1708.12 -100.287L2021.69 696.915L1214.17 934.181L1055.89 307.872L1708.12 -100.287ZM527.627 159.887L712.334 252.34L712.335 252.34L859.667 326.085L924.349 358.461L924.351 358.461L944.016 368.303L1075.35 1028.24L1075.35 1028.24L1075.35 1028.24L663.412 1176.86L441.854 881.548L329.579 524.339L291.778 404.068L246.867 261.179L527.627 159.887ZM1408.16 -624.167L1564.05 -260.621L968.005 202.727L615.531 -7.99836L644.922 -550.74L1408.16 -624.167Z" fill="#A8FF1C" fill-opacity="0.18"/>
</g>
</g>
<defs>
<clipPath id="clip0_1092_21834">
<rect width="1440" height="807" fill="white"/>
</clipPath>
</defs>
</svg>
