<svg width="171" height="182" viewBox="0 0 171 182" fill="none" xmlns="http://www.w3.org/2000/svg">
<g clip-path="url(#clip0_915_18131)">
<g clip-path="url(#clip1_915_18131)">
<path d="M1932 3117.5V3123.5H1938V3117.5H1932ZM1932 -425L1897.36 -365H1966.64L1932 -425ZM-6375 3117.5V3123.5H1932V3117.5V3111.5H-6375V3117.5ZM1932 3117.5H1938V-371H1932H1926V3117.5H1932Z" fill="#39B94C"/>
<path d="M-14942.3 -6178C-14942.3 -6170.64 -14936.4 -6164.67 -14929 -6164.67C-14921.6 -6164.67 -14915.7 -6170.64 -14915.7 -6178C-14915.7 -6185.36 -14921.6 -6191.33 -14929 -6191.33C-14936.4 -6191.33 -14942.3 -6185.36 -14942.3 -6178ZM-14929 4394H-14931.5V4396.5H-14929V4394ZM-3422.94 4394V4396.5H-3420.44V4394H-3422.94ZM-3422.94 -3159V-3161.5H-3425.44V-3159H-3422.94ZM717 -3159L692 -3173.43V-3144.57L717 -3159ZM-14929 -6178H-14931.5V4394H-14929H-14926.5V-6178H-14929ZM-14929 4394V4396.5H-3422.94V4394V4391.5H-14929V4394ZM-3422.94 4394H-3420.44V-3159H-3422.94H-3425.44V4394H-3422.94ZM-3422.94 -3159V-3156.5H694.5V-3159V-3161.5H-3422.94V-3159Z" fill="#FF5E5E"/>
</g>
<rect width="171" height="182" rx="8" fill="#FF822F"/>
<mask id="mask0_915_18131" style="mask-type:alpha" maskUnits="userSpaceOnUse" x="0" y="0" width="171" height="182">
<rect width="171" height="182" rx="8" fill="#D9D9D9"/>
</mask>
<g mask="url(#mask0_915_18131)">
<path d="M85.1574 90.2999L75.0007 17H117.729L170.963 55.0595V130.121H108.272L85.1574 90.2999Z" fill="#96AC58"/>
<path d="M170.964 55.0596V130.12H108.271L99.5789 115.145H170.179V109.626H96.3757L87.6814 94.6475H170.179V88.7344H84.9412L82.9197 74.1523H170.179V67.8457H82.0457L80.0251 53.2627H168.45L170.964 55.0596ZM160.181 47.3506H79.3093V48.0938L77.1306 32.3721H139.23L160.181 47.3506ZM131.511 26.8535H76.366L75.0007 17H117.729L131.511 26.8535Z" fill="#CEE35E"/>
<path d="M124.306 76.8965C125.937 78.538 130.178 80.836 134.093 76.8965" stroke="black" stroke-width="2.24344" stroke-linecap="round" stroke-linejoin="round"/>
<path d="M123.518 67.0986C121.869 64.5954 117.584 61.0908 113.628 67.0986" stroke="black" stroke-width="2.24344" stroke-linecap="round" stroke-linejoin="round"/>
<ellipse cx="139.539" cy="66.6008" rx="4.44873" ry="4.47675" fill="black"/>
<ellipse cx="130.65" cy="68.6261" rx="5.48358" ry="4.92689" fill="#FE624C"/>
<ellipse cx="103.222" cy="27.0425" rx="59.196" ry="16.4772" transform="rotate(-15 103.222 27.0425)" fill="#E4AF44"/>
<path d="M81.7667 1.20332C73.4137 11.5285 70.7859 23.0995 70.5161 27.5944C69.9804 39.7425 139.265 22.441 125.41 8.46289C111.556 -5.51518 92.2079 -11.7031 81.7667 1.20332Z" fill="#F9C04D"/>
<path d="M41.5248 58.408C46.7164 52.8795 53.6396 49.5042 61.2427 49.5042C77.3506 49.5045 90.4081 64.6518 90.4081 83.337C90.408 102.022 77.3501 117.169 61.2421 117.169C59.9894 117.169 58.7553 117.077 57.5443 116.899C56.4899 117.763 55.3591 118.551 54.1492 119.25C40.1993 127.304 21.3162 120.715 11.9735 104.533C2.63085 88.3514 6.3658 68.7035 20.3158 60.6495C26.8039 56.9036 34.3588 56.327 41.5248 58.408Z" fill="#F84225"/>
<path d="M40.8199 53.0521L41.8762 60.9897L46.9412 58.6772L57.3272 48.531L60.4798 38.4329L51.0619 40.1053L40.8199 53.0521Z" fill="#2A7735"/>
<path d="M29.8229 54.6088L41.18 62.4359L45.312 61.3288L38.1605 51.167L29.8229 54.6088Z" fill="#121212"/>
<circle cx="11.5878" cy="97.7421" r="8.94431" transform="rotate(-15 11.5878 97.7421)" fill="#CEE35E"/>
</g>
<path d="M0 8C0 3.58172 3.58172 0 8 0H163C167.418 0 171 3.58172 171 8V174C171 178.418 167.418 182 163 182H8C3.58172 182 0 178.418 0 174V8Z" fill="url(#paint0_linear_915_18131)"/>
<path d="M24.9531 105.781V107.375H20.9062V108.797H26.4219V110.391H13.4219V108.797H18.9219V107.375H15.0625V102.438H17.0469V105.781H24.9531ZM14.9062 113.797C14.9062 112.117 16.7812 111.156 19.8906 111.156C22.9766 111.156 24.8281 112.117 24.8438 113.797C24.8281 115.477 22.9766 116.445 19.8906 116.438C16.7812 116.445 14.9062 115.477 14.9062 113.797ZM16.9375 113.797C16.9297 114.531 17.9219 114.922 19.8906 114.922C21.8203 114.922 22.8359 114.531 22.8438 113.797C22.8359 113.031 21.8203 112.68 19.8906 112.688C17.9219 112.68 16.9297 113.031 16.9375 113.797ZM32.7496 106.094C32.7418 108.391 33.9293 110.852 36.3121 111.844L35.234 113.406C33.5621 112.695 32.4059 111.281 31.7653 109.562C31.1246 111.43 29.9449 112.992 28.2653 113.766L27.1246 112.188C29.484 111.133 30.7028 108.5 30.7028 106.094V105.219H27.6871V103.594H35.7184V105.219H32.7496V106.094ZM37.1246 116.438V102.219H39.1403V116.438H37.1246ZM52.2645 103.328C52.2567 105.008 53.9754 106.859 57.2332 107.266L56.452 108.875C53.9676 108.516 52.1473 107.367 51.2176 105.828C50.2801 107.359 48.4676 108.516 46.0145 108.875L45.2176 107.266C48.452 106.859 50.1629 105.008 50.1707 103.328V102.641H52.2645V103.328ZM44.7176 111.578V109.953H57.6864V111.578H52.1551V116.438H50.1864V111.578H44.7176ZM70.436 111.234V116.438H68.436V112.828H60.6548V111.234H70.436ZM58.7485 106.453C58.7485 104.445 60.4204 102.992 62.6391 103C64.8501 102.992 66.5219 104.445 66.5298 106.453C66.5219 108.508 64.8501 109.945 62.6391 109.938C60.4204 109.945 58.7485 108.508 58.7485 106.453ZM60.7016 106.453C60.686 107.602 61.4985 108.258 62.6391 108.25C63.7485 108.258 64.5532 107.602 64.561 106.453C64.5532 105.344 63.7485 104.695 62.6391 104.703C61.4985 104.695 60.686 105.344 60.7016 106.453ZM68.436 110.562V102.219H70.436V110.562H68.436ZM83.7169 102.219V108H85.5762V109.656H83.7169V116.438H81.7012V102.219H83.7169ZM72.17 112.422C73.2091 112.422 74.42 112.422 75.6856 112.391V111.172C74.1778 110.875 73.1934 109.914 73.2012 108.594C73.1934 107.008 74.6309 105.922 76.7012 105.922C78.7325 105.922 80.1856 107.008 80.2012 108.594C80.1856 109.914 79.1856 110.883 77.6856 111.172V112.32C78.8106 112.258 79.9434 112.164 80.9981 112.016L81.1231 113.469C78.0997 114.031 74.8341 114.055 72.4356 114.047L72.17 112.422ZM72.4512 105.359V103.797H75.6856V102.297H77.6856V103.797H80.8887V105.359H72.4512ZM75.0919 108.594C75.0841 109.344 75.7247 109.75 76.7012 109.75C77.6466 109.75 78.2794 109.344 78.2794 108.594C78.2794 107.859 77.6466 107.445 76.7012 107.438C75.7247 107.445 75.0841 107.859 75.0919 108.594ZM99.154 108.594V110.078H86.1384V108.594H99.154ZM87.6227 112.156V110.781H97.5915V114.141H89.6227V114.953H98.0134V116.312H87.6384V112.875H95.6227V112.156H87.6227ZM87.7321 103.828V102.469H97.5759V105.812H89.7477V106.578H97.8259V107.922H87.7634V104.547H95.5759V103.828H87.7321ZM19.2969 126.844V127.625C19.2969 128.531 19.2969 129.859 18.8203 131.625H22.5078C22.8594 130.289 22.9375 129.266 22.9609 128.422H20.1719V126.844H24.8906V127.703C24.8828 128.688 24.8828 129.961 24.5078 131.625H26.3906V133.234H20.8594V135.078H24.7812V140.266H15V135.078H18.8906V133.234H13.4219V131.625H16.8125C17.2109 130.266 17.3125 129.234 17.3438 128.422H14.5781V126.844H19.2969ZM16.9531 138.703H22.7969V136.625H16.9531V138.703ZM40.2028 132.828V134.453H34.6559V140.438H32.6403V134.453H27.234V132.828H30.4059C30.8824 131.062 30.9762 129.734 30.9918 128.672H28.2653V127.078H32.9684V127.953C32.9684 129.086 32.9684 130.656 32.4371 132.828H36.359C36.734 131.078 36.7887 129.75 36.8043 128.672H33.9528V127.078H38.7809V128.062C38.7809 129.203 38.7809 130.742 38.3668 132.828H40.2028ZM52.593 130.094V131.656H42.6555V126.719H44.6399V130.094H52.593ZM41.0305 134.75V133.188H54.0461V134.75H41.0305ZM42.5305 140.125V135.906H44.5305V138.531H52.6868V140.125H42.5305ZM66.6391 127.719V129.281H63.7641C63.7876 130.734 64.8032 132.188 67.0923 132.781L66.186 134.344C64.5688 133.914 63.4516 133.016 62.811 131.875C62.186 133.172 61.0454 134.203 59.3735 134.703L58.4204 133.141C60.7094 132.516 61.7641 130.906 61.7798 129.281H58.9204V127.719H61.7798V126.156H63.7954V127.719H66.6391ZM60.2798 137.766C60.2719 136.039 62.1235 135.062 65.1548 135.062C68.1235 135.062 69.9438 136.039 69.9516 137.766C69.9438 139.445 68.1235 140.422 65.1548 140.422C62.1235 140.422 60.2719 139.445 60.2798 137.766ZM62.2798 137.766C62.2641 138.539 63.2641 138.922 65.1548 138.922C66.9985 138.922 67.9829 138.539 67.9829 137.766C67.9829 136.953 66.9985 136.594 65.1548 136.594C63.2641 136.594 62.2641 136.953 62.2798 137.766ZM67.811 134.797V126.219H69.811V129.594H71.7329V131.203H69.811V134.797H67.811ZM76.3106 126.828C78.1231 126.812 79.5684 127.852 79.9591 129.375H82.3419V126.219H84.3262V133.859H82.3419V130.969H79.9669C79.5997 132.531 78.1387 133.594 76.3106 133.594C74.1231 133.594 72.5137 132.172 72.5294 130.188C72.5137 128.242 74.1231 126.812 76.3106 126.828ZM74.42 130.188C74.4122 131.25 75.1934 131.922 76.3106 131.922C77.3887 131.922 78.1622 131.25 78.17 130.188C78.1622 129.125 77.3887 128.477 76.3106 128.484C75.1934 128.477 74.4122 129.125 74.42 130.188ZM74.8419 140.281V134.484H76.8106V135.859H82.3419V134.484H84.3262V140.281H74.8419ZM76.8106 138.672H82.3419V137.391H76.8106V138.672ZM97.6852 129.781V131.375H93.6384V132.797H99.154V134.391H86.154V132.797H91.654V131.375H87.7946V126.438H89.779V129.781H97.6852ZM87.6384 137.797C87.6384 136.117 89.5134 135.156 92.6227 135.156C95.7087 135.156 97.5602 136.117 97.5759 137.797C97.5602 139.477 95.7087 140.445 92.6227 140.438C89.5134 140.445 87.6384 139.477 87.6384 137.797ZM89.6696 137.797C89.6618 138.531 90.654 138.922 92.6227 138.922C94.5524 138.922 95.5681 138.531 95.5759 137.797C95.5681 137.031 94.5524 136.68 92.6227 136.688C90.654 136.68 89.6618 137.031 89.6696 137.797ZM112.294 126.219V140.438H110.388V126.219H112.294ZM100.091 132.375C100.091 129.195 101.302 127.227 103.185 127.234C104.896 127.227 106.068 128.828 106.286 131.484H107.451V126.422H109.326V139.781H107.451V133.062H106.302C106.13 135.852 104.935 137.547 103.185 137.547C101.302 137.547 100.091 135.57 100.091 132.375ZM101.935 132.375C101.919 134.562 102.388 135.641 103.185 135.625C104.005 135.641 104.49 134.562 104.482 132.375C104.49 130.195 104.005 129.109 103.185 129.109C102.388 129.109 101.919 130.195 101.935 132.375ZM126.106 126.219V140.438H124.231V126.219H126.106ZM113.606 136.078C116.481 134.375 117.747 132.305 118.02 129.516H114.388V127.906H119.997C119.997 129.266 119.849 130.531 119.505 131.703H121.216V126.531H123.075V139.812H121.216V133.281H118.888C118.075 134.906 116.755 136.312 114.731 137.484L113.606 136.078ZM25.3594 150.219V157.516H23.3594V150.219H25.3594ZM13.6562 155.672C14.1406 155.672 14.6562 155.664 15.1875 155.656V152.609H14.0312V151.094H21.7656V152.609H20.5938V155.445C21.1797 155.398 21.7578 155.344 22.3125 155.281L22.4062 156.703C19.5781 157.156 16.3438 157.234 13.875 157.234L13.6562 155.672ZM15.6875 159.625V158.078H25.3594V161.875H17.6875V162.766H25.75V164.344H15.7188V160.453H23.3906V159.625H15.6875ZM17.0938 155.617C17.6172 155.602 18.1406 155.586 18.6719 155.562V152.609H17.0938V155.617ZM40.2496 161.141V162.781H27.234V161.141H30.1403V157.656C29.0387 156.992 28.3746 155.984 28.3746 154.734C28.3746 152.43 30.6246 150.914 33.7184 150.906C36.7965 150.914 39.0699 152.43 39.0778 154.734C39.0699 155.961 38.4293 156.953 37.359 157.617V161.141H40.2496ZM30.3434 154.734C30.3434 156.125 31.6793 156.984 33.7184 156.984C35.7262 156.984 37.1012 156.125 37.109 154.734C37.1012 153.305 35.7262 152.477 33.7184 152.484C31.6793 152.477 30.3434 153.305 30.3434 154.734ZM32.109 161.141H35.3434V158.375C34.8356 158.477 34.2887 158.531 33.7184 158.531C33.1481 158.531 32.609 158.477 32.109 158.383V161.141ZM52.3274 150.234V154.594H54.2493V156.219H52.3274V160.844H50.3274V150.234H52.3274ZM41.0461 153.297V151.719H44.2805V150.203H46.2649V151.719H49.4836V153.297H41.0461ZM41.7336 156.547C41.7336 154.898 43.1946 153.797 45.2649 153.797C47.3274 153.797 48.7649 154.898 48.7649 156.547C48.7649 158.188 47.3274 159.266 45.2649 159.266C43.1946 159.266 41.7336 158.188 41.7336 156.547ZM43.1086 164.188V160.031H45.093V162.594H52.843V164.188H43.1086ZM43.6868 156.547C43.6789 157.328 44.3118 157.75 45.2649 157.75C46.2258 157.75 46.8743 157.328 46.8743 156.547C46.8743 155.758 46.2258 155.32 45.2649 155.312C44.3118 155.32 43.6789 155.758 43.6868 156.547Z" fill="#F3F3F3"/>
<path d="M58.9985 163L58.9829 161.297L63.0454 157.562C64.1001 156.555 64.6704 155.93 64.6704 155.031C64.6704 154.023 63.9126 153.398 62.8735 153.406C61.811 153.398 61.1157 154.07 61.1235 155.156H58.8891C58.8813 152.945 60.5219 151.531 62.9048 151.531C65.3266 151.531 66.936 152.914 66.936 154.875C66.936 156.164 66.311 157.219 63.9829 159.328L62.2641 161V161.062H67.0923V163H58.9985ZM73.1387 163.156C70.3028 163.156 68.5919 161.047 68.5919 157.344C68.5919 153.648 70.3184 151.531 73.1387 151.531C75.9591 151.531 77.6856 153.648 77.6856 157.344C77.6856 161.062 75.9669 163.156 73.1387 163.156ZM70.9981 157.344C70.9825 159.953 71.8262 161.219 73.1387 161.219C74.4512 161.219 75.2872 159.953 75.2794 157.344C75.2872 154.758 74.4434 153.461 73.1387 153.453C71.8341 153.461 70.9981 154.758 70.9981 157.344ZM79.2946 163L79.279 161.297L83.3415 157.562C84.3962 156.555 84.9665 155.93 84.9665 155.031C84.9665 154.023 84.2087 153.398 83.1696 153.406C82.1071 153.398 81.4118 154.07 81.4196 155.156H79.1852C79.1774 152.945 80.8181 151.531 83.2009 151.531C85.6227 151.531 87.2321 152.914 87.2321 154.875C87.2321 156.164 86.6071 157.219 84.279 159.328L82.5602 161V161.062H87.3884V163H79.2946ZM93.2005 163.156C90.8411 163.156 89.1146 161.766 89.0755 159.812H91.3568C91.4114 160.695 92.2161 161.305 93.2005 161.297C94.3724 161.305 95.2083 160.477 95.2005 159.297C95.2083 158.094 94.3568 157.258 93.1693 157.25C92.3177 157.25 91.7239 157.57 91.388 158.203H89.263L89.8724 151.688H96.8411V153.609H91.8099L91.4974 156.469H91.5911C92.0052 155.914 92.8646 155.508 93.8568 155.516C95.9349 155.508 97.4818 157.062 97.4818 159.234C97.4818 161.523 95.7474 163.156 93.2005 163.156ZM114.247 150.219V158.656H112.262V155.297H110.044V153.688H112.262V150.219H114.247ZM102.169 157.094C104.497 156.312 105.559 154.453 105.606 152.672H102.747V151.078H110.465V152.672H107.637C107.676 154.328 108.692 156 110.903 156.734L109.919 158.297C108.356 157.789 107.27 156.758 106.653 155.484C106.028 156.93 104.887 158.094 103.2 158.672L102.169 157.094ZM104.497 161.719C104.497 159.992 106.356 158.977 109.387 158.969C112.426 158.977 114.286 159.992 114.294 161.719C114.286 163.445 112.426 164.453 109.387 164.453C106.356 164.453 104.497 163.445 104.497 161.719ZM106.481 161.719C106.481 162.531 107.504 162.938 109.387 162.938C111.278 162.938 112.301 162.531 112.309 161.719C112.301 160.898 111.278 160.492 109.387 160.5C107.504 160.492 106.481 160.898 106.481 161.719ZM120.559 153.469C120.551 154.883 121.371 156.289 123.168 156.875L122.277 158.375C121.02 157.93 120.16 157.109 119.652 156.094C119.152 157.211 118.285 158.109 116.981 158.594L116.074 157.125C117.863 156.453 118.66 154.984 118.668 153.469V153.391H116.465V151.828H118.668V150.359H120.559V151.828H122.746V153.391H120.559V153.469ZM118.465 161.141V159.531H128.293V164.438H126.309V161.141H118.465ZM123.387 158.891V150.453H125.262V153.797H126.402V150.234H128.293V158.922H126.402V155.406H125.262V158.891H123.387Z" fill="url(#paint1_linear_915_18131)"/>
</g>
<defs>
<linearGradient id="paint0_linear_915_18131" x1="85.5" y1="-7.18685e-09" x2="86" y2="182" gradientUnits="userSpaceOnUse">
<stop offset="0.15" stop-color="#020202" stop-opacity="0"/>
<stop offset="0.885982" stop-color="#72350C" stop-opacity="0.67"/>
</linearGradient>
<linearGradient id="paint1_linear_915_18131" x1="2.57103" y1="12.0164" x2="129.38" y2="39.3493" gradientUnits="userSpaceOnUse">
<stop offset="0.0282118" stop-color="#C4F568" stop-opacity="0.7"/>
<stop offset="0.557692" stop-color="#00DD9B"/>
</linearGradient>
<clipPath id="clip0_915_18131">
<rect width="171" height="182" fill="white"/>
</clipPath>
<clipPath id="clip1_915_18131">
<rect width="171" height="182" fill="white"/>
</clipPath>
</defs>
</svg>
