<svg width="171" height="182" viewBox="0 0 171 182" fill="none" xmlns="http://www.w3.org/2000/svg">
<g clip-path="url(#clip0_911_17764)">
<path d="M1932 3117.5V3123.5H1938V3117.5H1932ZM1932 -425L1897.36 -365H1966.64L1932 -425ZM-6375 3117.5V3123.5H1932V3117.5V3111.5H-6375V3117.5ZM1932 3117.5H1938V-371H1932H1926V3117.5H1932Z" fill="#39B94C"/>
<path d="M-14942.3 -6178C-14942.3 -6170.64 -14936.4 -6164.67 -14929 -6164.67C-14921.6 -6164.67 -14915.7 -6170.64 -14915.7 -6178C-14915.7 -6185.36 -14921.6 -6191.33 -14929 -6191.33C-14936.4 -6191.33 -14942.3 -6185.36 -14942.3 -6178ZM-14929 4394H-14931.5V4396.5H-14929V4394ZM-3422.94 4394V4396.5H-3420.44V4394H-3422.94ZM-3422.94 -3159V-3161.5H-3425.44V-3159H-3422.94ZM717 -3159L692 -3173.43V-3144.57L717 -3159ZM-14929 -6178H-14931.5V4394H-14929H-14926.5V-6178H-14929ZM-14929 4394V4396.5H-3422.94V4394V4391.5H-14929V4394ZM-3422.94 4394H-3420.44V-3159H-3422.94H-3425.44V4394H-3422.94ZM-3422.94 -3159V-3156.5H694.5V-3159V-3161.5H-3422.94V-3159Z" fill="#FF5E5E"/>
<rect width="171" height="182" rx="8" fill="#FF822F"/>
<mask id="mask0_911_17764" style="mask-type:alpha" maskUnits="userSpaceOnUse" x="0" y="0" width="171" height="182">
<rect width="171" height="182" rx="8" fill="#FF822F"/>
</mask>
<g mask="url(#mask0_911_17764)">
<path d="M61.2216 132.631L97.0248 79.8887L205.579 132.631L205.579 181.805L97.0248 181.805L61.2216 132.631Z" fill="#42AF52"/>
<path d="M130.253 147.333C132.003 149.084 136.554 151.534 140.754 147.333" stroke="black" stroke-width="2.38664" stroke-linecap="round" stroke-linejoin="round"/>
<circle cx="123.57" cy="136.355" r="4.77323" fill="black"/>
<circle cx="146.596" cy="136.355" r="4.77323" fill="black"/>
<ellipse cx="134.959" cy="138.516" rx="5.88357" ry="5.25318" fill="#CEE35E"/>
<circle cx="121.781" cy="144.927" r="1.26106" fill="#215D08"/>
<circle cx="119.26" cy="148.288" r="1.26106" fill="#215D08"/>
<circle cx="123.883" cy="148.288" r="1.26106" fill="#215D08"/>
<circle cx="150.779" cy="144.927" r="1.26106" fill="#215D08"/>
<circle cx="148.258" cy="148.288" r="1.26106" fill="#215D08"/>
<circle cx="152.881" cy="148.288" r="1.26106" fill="#215D08"/>
<ellipse cx="103.221" cy="102.042" rx="59.196" ry="16.4772" transform="rotate(-15 103.221 102.042)" fill="#E4AF44"/>
<path d="M81.766 76.2033C73.413 86.5285 70.7852 98.0995 70.5154 102.594C69.9797 114.743 139.264 97.441 125.41 83.4629C111.556 69.4848 92.2072 63.2969 81.766 76.2033Z" fill="#F9C04D"/>
<path d="M41.5232 133.408C46.7148 127.879 53.6382 124.504 61.2412 124.504C77.3492 124.504 90.4078 139.652 90.4078 158.337C90.4076 177.023 77.3496 192.17 61.2417 192.17C59.9888 192.17 58.7543 192.078 57.543 191.9C56.4887 192.763 55.3577 193.552 54.1479 194.251C40.1979 202.304 21.3155 195.715 11.9729 179.533C2.63053 163.351 6.36556 143.704 20.3154 135.65C26.8032 131.904 34.3575 131.327 41.5232 133.408Z" fill="#F2473A"/>
<path d="M40.8192 128.052L41.8755 135.99L46.9405 133.677L57.3265 123.531L60.479 113.433L51.0611 115.105L40.8192 128.052Z" fill="#2A7735"/>
<path d="M29.8222 129.609L41.1793 137.436L45.3113 136.329L38.1598 126.167L29.8222 129.609Z" fill="#121212"/>
<circle cx="11.5871" cy="172.742" r="8.94431" transform="rotate(-15 11.5871 172.742)" fill="#42AF52"/>
</g>
<rect width="171" height="182" rx="8" fill="url(#paint0_linear_911_17764)"/>
<path d="M21.8711 19.332V20.2344H18.7305V21.5H22.9727V22.4141H13.3867V21.5H17.6289V20.2344H14.6641V16.6836H15.7656V19.332H21.8711ZM14.5234 25.0625C14.5234 23.832 15.8887 23.1348 18.168 23.1289C20.4297 23.1348 21.7832 23.832 21.7891 25.0625C21.7832 26.2812 20.4297 26.9785 18.168 26.9727C15.8887 26.9785 14.5234 26.2812 14.5234 25.0625ZM15.6484 25.0625C15.6426 25.7246 16.5625 26.1113 18.168 26.1172C19.75 26.1113 20.6758 25.7246 20.6758 25.0625C20.6758 24.3711 19.75 24.002 18.168 23.9961C16.5625 24.002 15.6426 24.3711 15.6484 25.0625ZM27.613 19.5898C27.6071 21.3477 28.7614 23.1641 30.3786 23.8555L29.7692 24.7227C28.5329 24.1777 27.5485 23.0176 27.0622 21.6172C26.5759 23.1172 25.5915 24.3945 24.3669 24.9922L23.7224 24.1133C25.3044 23.3691 26.4763 21.4004 26.488 19.5898V18.4766H24.0857V17.5508H30.0036V18.4766H27.613V19.5898ZM31.3278 26.9961V16.4961H32.4411V26.9961H31.3278ZM45.3781 17.1523V18.0781C45.3781 19.0742 45.3781 20.1582 45.0851 21.6523H46.5968V22.5664H42.3429V27.0078H41.2179V22.5664H37.0226V21.6523H43.9601C44.2706 20.1523 44.2706 19.0566 44.2765 18.0781V18.0664H38.1945V17.1523H45.3781ZM55.5614 16.4961V20.75H57.2489V21.6758H55.5614V26.9961H54.4598V16.4961H55.5614ZM47.3231 19.0508V18.1367H49.9129V16.6367H51.0262V18.1367H53.5457V19.0508H47.3231ZM47.8622 22.2617C47.8622 20.832 48.9637 19.8242 50.4754 19.8242C51.9813 19.8242 53.0829 20.832 53.0887 22.2617C53.0829 23.7031 51.9813 24.7051 50.4754 24.7109C48.9637 24.7051 47.8622 23.7031 47.8622 22.2617ZM48.9286 22.2617C48.9227 23.1758 49.579 23.7852 50.4754 23.7734C51.3661 23.7852 52.0165 23.1758 52.0223 22.2617C52.0165 21.3652 51.3661 20.7441 50.4754 20.7383C49.579 20.7441 48.9227 21.3652 48.9286 22.2617ZM66.4712 16.4961V26.9961H65.3462V16.4961H66.4712ZM57.8462 24.1836C60.6353 22.8535 62.0005 20.9609 62.2173 18.5117H58.3502V17.6211H63.3423C63.3423 20.6973 62.0357 23.3574 58.4322 25.0859L57.8462 24.1836ZM79.7715 16.5078V24.1953H78.6582V20.2461H76.6543V19.3438H78.6582V16.5078H79.7715ZM71.0293 22.0039C72.6406 21.459 73.6484 20.0762 73.6426 18.6289V18.2188H71.3691V17.3047H77.0293V18.2188H74.7793V18.6289C74.7734 19.9355 75.7226 21.2539 77.3105 21.7812L76.7363 22.6719C75.5586 22.2617 74.6855 21.418 74.2285 20.375C73.7715 21.5352 72.8515 22.4609 71.6035 22.9062L71.0293 22.0039ZM72.9512 26.7734V23.5039H74.0644V25.8711H80.0527V26.7734H72.9512ZM92.5443 16.4961V18.6875H94.0678V19.6133H92.5443V21.8047H91.4311V16.4961H92.5443ZM84.4584 19.2031C84.4467 17.8145 85.6244 16.8652 87.2123 16.8594C88.8061 16.8652 89.9662 17.8145 89.9662 19.2031C89.9662 20.5801 88.8061 21.5469 87.2123 21.5469C85.6244 21.5469 84.4467 20.5801 84.4584 19.2031ZM85.5365 19.2031C85.5307 20.0586 86.2455 20.6562 87.2123 20.6562C88.1791 20.6562 88.8881 20.0586 88.8881 19.2031C88.8881 18.3477 88.1791 17.7676 87.2123 17.7734C86.2455 17.7676 85.5307 18.3477 85.5365 19.2031ZM85.7592 23.1523V22.2852H92.5443V24.9453H86.8725V25.9766H92.9076V26.8672H85.7826V24.1133H91.4428V23.1523H85.7592ZM97.4659 17.2812C99.0362 17.2871 100.155 18.7168 100.161 20.9609C100.155 23.2285 99.0362 24.6582 97.4659 24.6523C95.8956 24.6582 94.7765 23.2285 94.7823 20.9609C94.7765 18.7168 95.8956 17.2871 97.4659 17.2812ZM95.8487 20.9609C95.8429 22.6309 96.5109 23.6562 97.4659 23.6562C98.4386 23.6562 99.0948 22.6309 99.0948 20.9609C99.0948 19.3145 98.4386 18.2832 97.4659 18.2773C96.5109 18.2832 95.8429 19.3145 95.8487 20.9609ZM101.72 26.9961V16.4961H102.833V20.6094H104.521V21.5469H102.833V26.9961H101.72ZM107.825 17.2812C109.395 17.2871 110.514 18.7168 110.52 20.9609C110.514 23.2285 109.395 24.6582 107.825 24.6523C106.255 24.6582 105.136 23.2285 105.141 20.9609C105.136 18.7168 106.255 17.2871 107.825 17.2812ZM106.208 20.9609C106.202 22.6309 106.87 23.6562 107.825 23.6562C108.798 23.6562 109.454 22.6309 109.454 20.9609C109.454 19.3145 108.798 18.2832 107.825 18.2773C106.87 18.2832 106.202 19.3145 106.208 20.9609ZM112.079 26.9961V16.4961H113.192V19.0625H114.821V20.0117H113.192V22.1914H114.821V23.1055H113.192V26.9961H112.079ZM126.539 16.4609V18.9219H128.074V19.8359H126.539V22.2383H125.426V16.4609H126.539ZM118.301 18.2656V17.3867H120.879V16.4023H121.992V17.3867H124.559V18.2656H118.301ZM118.875 20.3867C118.869 19.3262 119.889 18.6641 121.43 18.6641C122.971 18.6641 123.973 19.3262 123.973 20.3867C123.973 21.4531 122.971 22.1035 121.43 22.0977C119.889 22.1035 118.869 21.4531 118.875 20.3867ZM119.754 23.5625V22.7305H126.539V25.168H120.867V26.0469H126.903V26.8906H119.778V24.3828H125.438V23.5625H119.754ZM119.953 20.3867C119.942 20.9551 120.522 21.2891 121.43 21.2891C122.332 21.2891 122.918 20.9551 122.93 20.3867C122.918 19.8184 122.332 19.4668 121.43 19.4609C120.522 19.4668 119.942 19.8184 119.953 20.3867Z" fill="#F3F5FA"/>
<path d="M13.8906 49L13.875 47.2969L17.9375 43.5625C18.9922 42.5547 19.5625 41.9297 19.5625 41.0312C19.5625 40.0234 18.8047 39.3984 17.7656 39.4062C16.7031 39.3984 16.0078 40.0703 16.0156 41.1562H13.7812C13.7734 38.9453 15.4141 37.5312 17.7969 37.5312C20.2188 37.5312 21.8281 38.9141 21.8281 40.875C21.8281 42.1641 21.2031 43.2188 18.875 45.3281L17.1562 47V47.0625H21.9844V49H13.8906ZM28.0309 49.1562C25.1949 49.1562 23.484 47.0469 23.484 43.3438C23.484 39.6484 25.2106 37.5312 28.0309 37.5312C30.8512 37.5312 32.5778 39.6484 32.5778 43.3438C32.5778 47.0625 30.859 49.1562 28.0309 49.1562ZM25.8903 43.3438C25.8746 45.9531 26.7184 47.2188 28.0309 47.2188C29.3434 47.2188 30.1793 45.9531 30.1715 43.3438C30.1793 40.7578 29.3356 39.4609 28.0309 39.4531C26.7262 39.4609 25.8903 40.7578 25.8903 43.3438ZM34.1868 49L34.1711 47.2969L38.2336 43.5625C39.2883 42.5547 39.8586 41.9297 39.8586 41.0312C39.8586 40.0234 39.1008 39.3984 38.0618 39.4062C36.9993 39.3984 36.3039 40.0703 36.3118 41.1562H34.0774C34.0696 38.9453 35.7102 37.5312 38.093 37.5312C40.5149 37.5312 42.1243 38.9141 42.1243 40.875C42.1243 42.1641 41.4993 43.2188 39.1711 45.3281L37.4524 47V47.0625H42.2805V49H34.1868ZM48.0926 49.1562C45.7332 49.1562 44.0067 47.7656 43.9676 45.8125H46.2489C46.3036 46.6953 47.1082 47.3047 48.0926 47.2969C49.2645 47.3047 50.1004 46.4766 50.0926 45.2969C50.1004 44.0938 49.2489 43.2578 48.0614 43.25C47.2098 43.25 46.6161 43.5703 46.2801 44.2031H44.1551L44.7645 37.6875H51.7332V39.6094H46.702L46.3895 42.4688H46.4832C46.8973 41.9141 47.7567 41.5078 48.7489 41.5156C50.827 41.5078 52.3739 43.0625 52.3739 45.2344C52.3739 47.5234 50.6395 49.1562 48.0926 49.1562ZM68.6856 39.7812V41.375H64.6387V42.7969H70.1544V44.3906H57.1544V42.7969H62.6544V41.375H58.795V36.4375H60.7794V39.7812H68.6856ZM58.6387 47.7969C58.6387 46.1172 60.5137 45.1562 63.6231 45.1562C66.7091 45.1562 68.5606 46.1172 68.5762 47.7969C68.5606 49.4766 66.7091 50.4453 63.6231 50.4375C60.5137 50.4453 58.6387 49.4766 58.6387 47.7969ZM60.67 47.7969C60.6622 48.5312 61.6544 48.9219 63.6231 48.9219C65.5528 48.9219 66.5684 48.5312 66.5762 47.7969C66.5684 47.0312 65.5528 46.6797 63.6231 46.6875C61.6544 46.6797 60.6622 47.0312 60.67 47.7969ZM74.9352 36.8281C76.7477 36.8125 78.1931 37.8516 78.5837 39.375H80.9665V36.2188H82.9509V43.8594H80.9665V40.9688H78.5915C78.2243 42.5312 76.7634 43.5938 74.9352 43.5938C72.7477 43.5938 71.1384 42.1719 71.154 40.1875C71.1384 38.2422 72.7477 36.8125 74.9352 36.8281ZM73.0446 40.1875C73.0368 41.25 73.8181 41.9219 74.9352 41.9219C76.0134 41.9219 76.7868 41.25 76.7946 40.1875C76.7868 39.125 76.0134 38.4766 74.9352 38.4844C73.8181 38.4766 73.0368 39.125 73.0446 40.1875ZM73.4665 50.2812V44.4844H75.4352V45.8594H80.9665V44.4844H82.9509V50.2812H73.4665ZM75.4352 48.6719H80.9665V47.3906H75.4352V48.6719ZM100.435 36.2188V44.6562H98.4501V41.2969H96.2314V39.6875H98.4501V36.2188H100.435ZM88.3564 43.0938C90.6845 42.3125 91.747 40.4531 91.7939 38.6719H88.9345V37.0781H96.6533V38.6719H93.8251C93.8642 40.3281 94.8798 42 97.0908 42.7344L96.1064 44.2969C94.5439 43.7891 93.4579 42.7578 92.8408 41.4844C92.2158 42.9297 91.0751 44.0938 89.3876 44.6719L88.3564 43.0938ZM90.6845 47.7188C90.6845 45.9922 92.5439 44.9766 95.5751 44.9688C98.6142 44.9766 100.474 45.9922 100.481 47.7188C100.474 49.4453 98.6142 50.4531 95.5751 50.4531C92.5439 50.4531 90.6845 49.4453 90.6845 47.7188ZM92.6689 47.7188C92.6689 48.5312 93.6923 48.9375 95.5751 48.9375C97.4658 48.9375 98.4892 48.5312 98.497 47.7188C98.4892 46.8984 97.4658 46.4922 95.5751 46.5C93.6923 46.4922 92.6689 46.8984 92.6689 47.7188ZM106.747 39.4688C106.739 40.8828 107.559 42.2891 109.356 42.875L108.465 44.375C107.208 43.9297 106.348 43.1094 105.84 42.0938C105.34 43.2109 104.473 44.1094 103.169 44.5938L102.262 43.125C104.051 42.4531 104.848 40.9844 104.856 39.4688V39.3906H102.653V37.8281H104.856V36.3594H106.747V37.8281H108.934V39.3906H106.747V39.4688ZM104.653 47.1406V45.5312H114.481V50.4375H112.497V47.1406H104.653ZM109.575 44.8906V36.4531H111.45V39.7969H112.59V36.2344H114.481V44.9219H112.59V41.4062H111.45V44.8906H109.575Z" fill="#F3F3F3"/>
</g>
<defs>
<linearGradient id="paint0_linear_911_17764" x1="85.5" y1="0" x2="85.5" y2="123.5" gradientUnits="userSpaceOnUse">
<stop stop-color="#893F0E" stop-opacity="0.67"/>
<stop offset="1" stop-color="#020202" stop-opacity="0"/>
</linearGradient>
<clipPath id="clip0_911_17764">
<rect width="171" height="182" fill="white"/>
</clipPath>
</defs>
</svg>
