<svg width="21" height="22" viewBox="0 0 21 22" fill="none" xmlns="http://www.w3.org/2000/svg">
<path fill-rule="evenodd" clip-rule="evenodd" d="M10.5 19.5104C11.7156 19.5104 12.2156 20.1653 12.8671 20.311C13.5187 20.4566 14.0656 20.497 14.6258 20.2502C15.735 19.7614 16.4112 19.1792 17.2317 18.3095C18.7523 16.6979 19.5 14.482 19.5 11.5145C19.5 8.54705 18.6998 7.01348 17.4667 6.01036C16.2336 5.00723 15.5185 4.81506 14.0274 5.00723C12.5364 5.1994 11.7244 6.80148 10.5042 6.80148C9.2839 6.80148 7.79665 5.22182 6.50276 5.00723C5.20887 4.79264 4.5 5.00723 3.37983 6.01036C2.25967 7.01348 1.5 8.57553 1.5 11.5145C1.5 14.4535 2.27577 16.6327 3.79636 18.2444C4.61686 19.114 5.26502 19.7614 6.37424 20.2502C6.93439 20.497 7.51336 20.4566 8.14222 20.311C8.77109 20.1653 9.27109 19.5104 10.5 19.5104Z" stroke="#7E8085" stroke-width="1.6"/>
<path d="M10.5039 6.80126C10.8963 2.93375 12.5634 1 15.5052 1C15.7749 1.81393 15.8446 2.60168 15.7143 3.36325C15.6523 3.72504 15.4601 4.24095 15.1377 4.91096" stroke="#7E8085" stroke-width="1.6" stroke-linecap="round"/>
<path d="M5.61445 12C5.47617 12.6729 5.47617 13.3656 5.61445 14.0783C5.75272 14.791 6.0472 15.3409 6.49787 15.7282" stroke="#7E8085" stroke-width="1.6" stroke-linecap="round"/>
</svg>
