<svg width="390" height="78" viewBox="0 0 390 78" fill="none" xmlns="http://www.w3.org/2000/svg">
<rect width="390" height="78" fill="#F6FFE8"/>
<circle cx="33" cy="39" r="17" fill="#39B94C"/>
<path fill-rule="evenodd" clip-rule="evenodd" d="M32.9946 34.3492C31.3285 32.4013 28.5501 31.8774 26.4626 33.661C24.375 35.4447 24.0811 38.4268 25.7205 40.5363C27.0835 42.2903 31.2085 45.9894 32.5604 47.1867C32.7117 47.3206 32.7873 47.3876 32.8755 47.4139C32.9525 47.4369 33.0367 47.4369 33.1137 47.4139C33.2019 47.3876 33.2776 47.3206 33.4288 47.1867C34.7808 45.9894 38.9057 42.2903 40.2687 40.5363C41.9081 38.4268 41.6501 35.4259 39.5267 33.661C37.4032 31.8961 34.6607 32.4013 32.9946 34.3492Z" fill="white" stroke="white" stroke-width="1.33333" stroke-linecap="round" stroke-linejoin="round"/>
<path d="M70.9629 25.5215C70.9561 27.5723 72.3027 29.6914 74.1895 30.498L73.4785 31.5098C72.0361 30.874 70.8877 29.5205 70.3203 27.8867C69.7529 29.6367 68.6045 31.127 67.1758 31.8242L66.4238 30.7988C68.2695 29.9307 69.6367 27.6338 69.6504 25.5215V24.2227H66.8477V23.1426H73.752V24.2227H70.9629V25.5215ZM75.2969 34.1621V21.9121H76.5957V34.1621H75.2969ZM88.3258 22.5273V23.457C88.3327 24.4141 88.3327 25.5215 88.0114 26.998H89.7477V28.0645H78.5368V26.998H86.6989C87.027 25.5693 87.0407 24.5234 87.0407 23.5938H79.945V22.5273H88.3258ZM79.904 34.0117V29.623H88.3395V34.0117H79.904ZM81.1755 32.959H87.0544V30.6484H81.1755V32.959ZM104.513 21.9121V34.1621H103.269V27.8867H101.696V33.5332H100.479V22.1582H101.696V26.8203H103.269V21.9121H104.513ZM94.6006 31.0449V23.3613H95.8994V29.9033C97.0273 29.8896 98.2646 29.8008 99.6592 29.5273L99.7959 30.6621C98.1143 30.9629 96.7129 31.0518 95.3935 31.0449H94.6006ZM115.655 21.9121V26.793H117.555V27.873H115.655V34.1484H114.356V21.9121H115.655ZM106.126 30.8809C109.195 29.3496 110.863 27.1348 111.13 24.2773H106.741V23.1973H112.456C112.442 26.7383 110.883 29.9033 106.85 31.8926L106.126 30.8809ZM132.812 31.5645V32.6445H121.602V31.5645H126.537V29.0488H122.887V22.7461H124.186V24.8516H130.201V22.7461H131.486V29.0488H127.822V31.5645H132.812ZM124.186 27.9961H130.201V25.9043H124.186V27.9961ZM143.599 23.0879V24.291C143.592 25.8018 143.592 27.4971 143.134 30.0059L141.822 29.8691C142.294 27.4971 142.294 25.7607 142.3 24.291V24.1406H134.863V23.0879H143.599ZM133.687 32.5078V31.4277H137.939V27.1074H139.224V31.4277H144.857V32.5078H133.687ZM153.429 30.0059C153.429 31.0586 153.948 32.1729 155.062 32.8359C156.184 32.1182 156.737 30.9492 156.737 30.0059V29.418H158.009V30.0059C158.002 31.2773 158.843 32.5078 160.442 33.0273L159.8 33.9844C158.59 33.5674 157.763 32.7471 157.339 31.749C156.949 32.7334 156.218 33.6289 155.097 34.0938C153.921 33.6494 153.176 32.7812 152.8 31.7832C152.355 32.7471 151.549 33.5605 150.394 33.9844L149.737 33.0273C151.31 32.4668 152.164 31.1885 152.171 30.0059V29.418H153.429V30.0059ZM149.423 25.4941C149.43 23.7783 150.811 22.6025 152.69 22.5957C154.563 22.6025 155.944 23.7783 155.944 25.4941C155.944 27.1895 154.563 28.3652 152.69 28.3652C150.811 28.3652 149.43 27.1895 149.423 25.4941ZM150.694 25.4941C150.687 26.5605 151.528 27.2852 152.69 27.2852C153.839 27.2852 154.673 26.5605 154.673 25.4941C154.673 24.4209 153.839 23.6963 152.69 23.7031C151.528 23.6963 150.687 24.4209 150.694 25.4941ZM158.036 28.8984V21.9258H159.335V28.8984H158.036ZM171.174 25.4941V26.5332H162.739V22.3496H164.024V25.4941H171.174ZM161.249 29.1172V28.0781H172.46V29.1172H161.249ZM162.643 33.875V30.2793H163.942V32.8086H171.256V33.875H162.643ZM187.293 21.9121V34.1621H186.049V27.7773H184.531V33.5605H183.301V22.1445H184.531V26.7109H186.049V21.9121H187.293ZM177.162 30.9355V23.293H181.92V30.9355H177.162ZM178.393 29.8965H180.703V24.3184H178.393V29.8965ZM200.007 26.9844V28.0234H195.058V29.0898H198.599V31.9609H191.463V33.041H198.941V34.0391H190.191V31.0176H197.314V30.0879H190.177V29.0898H193.759V28.0234H188.838V26.9844H200.007ZM190.273 26.082V22.3086H198.572V26.082H190.273ZM191.545 25.0566H197.273V23.334H191.545V25.0566ZM206.501 22.1172C209.263 22.1104 210.869 22.8555 210.876 24.2227C210.869 25.5967 209.263 26.3418 206.501 26.3418C203.74 26.3418 202.119 25.5967 202.126 24.2227C202.119 22.8555 203.74 22.1104 206.501 22.1172ZM200.923 28.1328V27.0938H212.093V28.1328H200.923ZM202.263 30.0469V29.0762H210.685V31.9473H203.548V33.041H211.027V34.0391H202.277V31.0039H209.4V30.0469H202.263ZM203.48 24.2227C203.473 24.9814 204.553 25.3711 206.501 25.3711C208.463 25.3711 209.543 24.9814 209.536 24.2227C209.543 23.498 208.463 23.0742 206.501 23.0742C204.553 23.0742 203.473 23.498 203.48 24.2227ZM76.9375 42.9121V55.1621H75.6934V48.8867H74.1211V54.5332H72.9043V43.1582H74.1211V47.8203H75.6934V42.9121H76.9375ZM67.0254 52.0449V44.3613H68.3242V50.9033C69.4521 50.8896 70.6895 50.8008 72.084 50.5273L72.2207 51.6621C70.5391 51.9629 69.1377 52.0518 67.8184 52.0449H67.0254ZM88.0798 42.9121V47.793H89.9801V48.873H88.0798V55.1484H86.7809V42.9121H88.0798ZM78.5505 51.8809C81.6198 50.3496 83.2878 48.1348 83.5544 45.2773H79.1657V44.1973H84.8805C84.8669 47.7383 83.3083 50.9033 79.2751 52.8926L78.5505 51.8809ZM97.0342 45.1133C97.0342 46.043 97.2871 47.3691 98.1963 48.2852C99.0781 47.3896 99.3242 46.0908 99.331 45.1133V44.7852H98.4834V43.7324H101.983V44.7852H100.575V45.1133C100.568 46.3643 101.095 47.9297 102.503 48.6406L101.819 49.584C100.869 49.0918 100.288 48.2305 99.96 47.2734C99.6797 48.251 99.1465 49.1738 98.1963 49.707C97.2529 49.167 96.7197 48.251 96.4326 47.2871C96.1045 48.2373 95.5234 49.0986 94.5869 49.584L93.8896 48.6406C95.291 47.9023 95.831 46.3438 95.831 45.1133V44.7852H94.3408V43.7324H97.9092V44.7852H97.0342V45.1133ZM96.0771 55.0117V50.7051H104.362V55.0117H96.0771ZM97.3623 53.959H103.091V51.7305H97.3623V53.959ZM103.063 50.0762V42.8984H104.362V50.0762H103.063ZM115.737 42.9258V46.8633H117.514V47.9434H115.737V52.0859H114.438V42.9258H115.737ZM106.126 45.4004V44.3477H109.133V42.9121H110.432V44.3477H113.426V45.4004H106.126ZM106.796 48.2988C106.789 46.8975 107.999 45.9814 109.776 45.9883C111.533 45.9814 112.743 46.8975 112.743 48.2988C112.743 49.6865 111.533 50.5889 109.776 50.5957C107.999 50.5889 106.789 49.6865 106.796 48.2988ZM107.971 54.9023V51.3613H109.27V53.8496H116.257V54.9023H107.971ZM108.053 48.2988C108.04 49.0986 108.737 49.5908 109.776 49.584C110.815 49.5908 111.512 49.0986 111.526 48.2988C111.512 47.4922 110.815 46.9932 109.776 46.9863C108.737 46.9932 108.04 47.4922 108.053 48.2988ZM132.143 42.9121V55.1621H130.898V48.7773H129.381V54.5605H128.15V43.1445H129.381V47.7109H130.898V42.9121H132.143ZM122.012 51.9355V44.293H126.77V51.9355H122.012ZM123.242 50.8965H125.553V45.3184H123.242V50.8965ZM144.857 47.9844V49.0234H139.908V50.0898H143.449V52.9609H136.312V54.041H143.791V55.0391H135.041V52.0176H142.164V51.0879H135.027V50.0898H138.609V49.0234H133.687V47.9844H144.857ZM135.123 47.082V43.3086H143.422V47.082H135.123ZM136.394 46.0566H142.123V44.334H136.394V46.0566ZM152.595 44.2246V44.9766C152.588 46.0088 152.588 47.5879 152.24 49.7754L150.954 49.6797C151.269 47.7246 151.303 46.2959 151.31 45.2773H146.333V44.2246H152.595ZM145.65 51.4707C146.415 51.4639 147.27 51.457 148.165 51.4365V47.7246H149.451V51.3955C150.749 51.3408 152.082 51.2588 153.306 51.1016L153.374 52.0723C150.825 52.4824 147.974 52.5371 145.8 52.5234L145.65 51.4707ZM154.003 55.1621V42.9121H155.316V47.9707H157.189V49.0781H155.316V55.1621H154.003ZM171.407 42.9121V55.1895H170.108V42.9121H171.407ZM161.946 52.25V43.9375H163.245V47.082H166.54V43.9375H167.825V52.25H161.946ZM163.245 51.1836H166.54V48.1074H163.245V51.1836ZM183.301 44.0879V45.4004C183.287 46.9385 183.287 48.5518 182.85 50.8965L181.578 50.7598C182.009 48.5449 182.009 46.9043 182.002 45.4004V45.1406H174.496V44.0879H183.301ZM173.348 53.5078V52.4277H175.987V48.4629H177.285V52.4277H179.049V48.4629H180.321V52.4277H184.518V53.5078H173.348ZM191.49 44.9355V45.9883H185.406V44.9355H187.812V43.2676H189.098V44.9355H191.49ZM185.803 49.543C185.796 47.8955 186.917 46.7266 188.455 46.7266C190.007 46.7266 191.114 47.8955 191.121 49.543C191.114 51.2178 190.007 52.3936 188.455 52.3867C186.917 52.3936 185.796 51.2178 185.803 49.543ZM186.951 49.543C186.944 50.582 187.573 51.2793 188.455 51.2793C189.337 51.2793 189.973 50.582 189.973 49.543C189.973 48.5244 189.337 47.8135 188.455 47.8066C187.573 47.8135 186.944 48.5244 186.951 49.543ZM192.051 54.5879V43.1855H193.281V48.0117H194.689V42.9121H195.92V55.1621H194.689V49.0781H193.281V54.5879H192.051ZM208.73 52.5645V53.6445H197.519V52.5645H202.455V50.0488H198.804V43.7461H200.103V45.8516H206.119V43.7461H207.404V50.0488H203.74V52.5645H208.73ZM200.103 48.9961H206.119V46.9043H200.103V48.9961ZM213.337 46.2617C213.337 48.2168 214.158 50.3018 215.798 51.3066L215.074 52.3047C213.925 51.6143 213.153 50.3906 212.729 48.9756C212.284 50.5273 211.437 51.8535 210.247 52.5781L209.441 51.6074C211.17 50.5684 212.086 48.4014 212.079 46.3164V44.0332H213.337V46.2617ZM214.472 48.2988V47.2188H216.372V43.1445H217.603V54.5605H216.372V48.2988H214.472ZM218.902 55.1621V42.9121H220.146V55.1621H218.902ZM232.901 52.5508V53.6309H221.69V52.5508H224.37V49.3516C223.365 48.7979 222.75 47.9229 222.757 46.8223C222.75 44.8945 224.644 43.6299 227.269 43.623C229.9 43.6299 231.794 44.8945 231.794 46.8223C231.794 47.9023 231.206 48.7705 230.222 49.3242V52.5508H232.901ZM224.015 46.8223C224.015 48.1348 225.348 48.9893 227.269 48.9961C229.176 48.9893 230.529 48.1348 230.536 46.8223C230.529 45.5029 229.176 44.6621 227.269 44.6621C225.348 44.6621 224.015 45.5029 224.015 46.8223ZM225.655 52.5508H228.909V49.8301C228.41 49.9463 227.856 50.0078 227.269 50.0078C226.694 50.0078 226.147 49.9463 225.655 49.8301V52.5508ZM235.171 54.0957C234.637 54.0889 234.193 53.6582 234.2 53.125C234.193 52.5918 234.637 52.1543 235.171 52.1543C235.697 52.1543 236.134 52.5918 236.141 53.125C236.134 53.6582 235.697 54.0889 235.171 54.0957Z" fill="black"/>
<g clip-path="url(#clip0_302_11962)">
<path d="M358.571 30.4287L367.057 38.914L358.485 47.4854" stroke="#B1B4BC" stroke-width="2" stroke-linecap="round" stroke-linejoin="round"/>
</g>
<defs>
<clipPath id="clip0_302_11962">
<rect width="24" height="24" fill="white" transform="matrix(-4.37114e-08 1 1 4.37114e-08 350 27)"/>
</clipPath>
</defs>
</svg>
