<svg width="25" height="24" viewBox="0 0 25 24" fill="none" xmlns="http://www.w3.org/2000/svg">
<path d="M12.5 0.900391C12.6857 0.900391 12.8638 0.974193 12.9951 1.10547L13.082 1.21191C13.1581 1.32596 13.2001 1.46052 13.2002 1.59961V2.52832C15.4692 2.69892 17.6034 3.6757 19.2139 5.28613L19.5117 5.59863C20.9446 7.16773 21.8119 9.17447 21.9717 11.2998H22.9004C23.0858 11.2999 23.2634 11.3739 23.3945 11.5049L23.4824 11.6113C23.5586 11.7255 23.5996 11.8607 23.5996 12C23.5996 12.1393 23.5586 12.2745 23.4824 12.3887L23.3945 12.4951C23.2634 12.6261 23.0858 12.7001 22.9004 12.7002H21.9717C21.8119 14.8255 20.9446 16.8323 19.5117 18.4014L19.2139 18.7139C17.6035 20.3243 15.4692 21.3001 13.2002 21.4707V22.4004C13.2001 22.5395 13.1581 22.674 13.082 22.7881L12.9951 22.8945C12.8638 23.0258 12.6857 23.0996 12.5 23.0996C12.3607 23.0996 12.2255 23.0586 12.1113 22.9824L12.0049 22.8945C11.8739 22.7634 11.7999 22.5858 11.7998 22.4004V21.4707C9.67449 21.3109 7.66771 20.4445 6.09863 19.0117L5.78613 18.7139C4.1757 17.1034 3.19892 14.9692 3.02832 12.7002H2.09961C1.96052 12.7001 1.82596 12.6581 1.71191 12.582L1.60547 12.4951C1.47419 12.3638 1.40039 12.1857 1.40039 12C1.40039 11.8143 1.47419 11.6362 1.60547 11.5049L1.71191 11.418C1.82596 11.3419 1.96052 11.2999 2.09961 11.2998H3.02832C3.19892 9.0308 4.1757 6.89656 5.78613 5.28613C7.39656 3.6757 9.5308 2.69892 11.7998 2.52832V1.59961C11.7999 1.41424 11.8739 1.23662 12.0049 1.10547L12.1113 1.01758C12.2255 0.941368 12.3607 0.900391 12.5 0.900391ZM13.2002 4.7998C13.2002 4.93914 13.1583 5.07426 13.082 5.18848L12.9951 5.29492C12.8638 5.4262 12.6857 5.5 12.5 5.5C12.3608 5.5 12.2255 5.45895 12.1113 5.38281L12.0049 5.29492C11.8737 5.16366 11.7998 4.98541 11.7998 4.7998V3.93359C10.0239 4.08979 8.35135 4.82568 7.03906 6.02539L6.77637 6.27637C5.42847 7.62426 4.60141 9.40321 4.43457 11.2998H5.2998C5.48541 11.2998 5.66366 11.3737 5.79492 11.5049L5.88281 11.6113C5.95895 11.7255 6 11.8608 6 12C6 12.1392 5.95895 12.2745 5.88281 12.3887L5.79492 12.4951C5.66366 12.6263 5.48541 12.7002 5.2998 12.7002H4.43457C4.60141 14.5968 5.42847 16.3757 6.77637 17.7236L7.03906 17.9746C8.35133 19.1743 10.024 19.9092 11.7998 20.0654V19.2002C11.7998 19.0146 11.8737 18.8363 12.0049 18.7051L12.1113 18.6172C12.2255 18.5411 12.3608 18.5 12.5 18.5C12.6857 18.5 12.8638 18.5738 12.9951 18.7051L13.082 18.8115C13.1583 18.9257 13.2002 19.0609 13.2002 19.2002V20.0654C15.0968 19.8986 16.8757 19.0715 18.2236 17.7236L18.4746 17.4609C19.6743 16.1487 20.4092 14.476 20.5654 12.7002H19.7002C19.5609 12.7002 19.4257 12.6583 19.3115 12.582L19.2051 12.4951C19.0738 12.3638 19 12.1857 19 12C19 11.8143 19.0738 11.6362 19.2051 11.5049L19.3115 11.418C19.4257 11.3417 19.5609 11.2998 19.7002 11.2998H20.5654C20.4092 9.52395 19.6743 7.85133 18.4746 6.53906L18.2236 6.27637C16.8757 4.92845 15.0968 4.10041 13.2002 3.93359V4.7998ZM12.5 8.09961C13.5343 8.09961 14.5264 8.5108 15.2578 9.24219C15.9892 9.97358 16.4004 10.9657 16.4004 12C16.4004 12.6749 16.2244 13.3364 15.8936 13.9209L15.7432 14.167C15.3146 14.8083 14.7048 15.3083 13.9922 15.6035C13.3689 15.8616 12.6908 15.953 12.0244 15.8711L11.7393 15.8252C11.0774 15.6935 10.4628 15.3925 9.9541 14.9541L9.74219 14.7578C9.26481 14.2804 8.92053 13.6885 8.74121 13.041L8.6748 12.7607C8.52438 12.0044 8.60145 11.2203 8.89648 10.5078L9.0166 10.2451C9.3188 9.64525 9.77182 9.13181 10.333 8.75684C10.9744 8.3283 11.7287 8.09961 12.5 8.09961ZM13.457 9.69043C13.0575 9.52493 12.6225 9.4661 12.1953 9.51855L12.0127 9.54785C11.5277 9.64431 11.0821 9.88279 10.7324 10.2324C10.4266 10.5383 10.2058 10.9172 10.0908 11.332L10.0479 11.5127C9.95151 11.9975 10.0013 12.5004 10.1904 12.957C10.3797 13.4137 10.7003 13.8045 11.1113 14.0791L11.2686 14.1758C11.6432 14.3878 12.0674 14.5 12.5 14.5C13.163 14.5 13.7987 14.2364 14.2676 13.7676C14.7364 13.2987 15 12.663 15 12C15 11.5674 14.8878 11.1432 14.6758 10.7686L14.5791 10.6113C14.3045 10.2003 13.9137 9.87967 13.457 9.69043Z" fill="#39B94C" stroke="#39B94C" stroke-width="0.2"/>
</svg>
