<svg width="34" height="34" viewBox="0 0 34 34" fill="none" xmlns="http://www.w3.org/2000/svg">
<circle cx="17" cy="17" r="17" fill="#B1B4BC"/>
<path d="M24.884 10.2666L24.9866 10.2822C25.0872 10.307 25.1799 10.3594 25.2542 10.4336L25.3206 10.5137C25.3792 10.5989 25.4139 10.6991 25.4202 10.8037L25.4456 11.4727C25.4917 14.6653 24.4843 17.2607 22.6409 18.5049L22.4475 18.6289C21.8562 18.9883 21.1879 19.1989 20.5002 19.2441L20.2043 19.2529C19.4335 19.2529 18.6402 19.0535 17.8674 18.6641C17.3108 19.3577 17.0065 20.2216 17.009 21.1133V23.1875C17.009 23.3391 16.9492 23.4846 16.842 23.5918C16.7349 23.699 16.5893 23.7597 16.4377 23.7598C16.2862 23.7598 16.1407 23.6989 16.0334 23.5918C15.9262 23.4846 15.8655 23.3392 15.8655 23.1875V21.1738L14.1165 19.4307C13.6005 19.6806 13.0364 19.8164 12.4622 19.8223H12.4612C11.9404 19.823 11.4281 19.6972 10.968 19.458L10.7737 19.3486C9.21764 18.4059 8.41779 16.2418 8.57251 13.6094C8.58077 13.4698 8.63977 13.3382 8.73853 13.2393L8.8186 13.1729C8.90388 13.114 9.00391 13.0786 9.10864 13.0723L9.59692 13.0547C12.0081 13.0197 13.9652 13.8154 14.8489 15.2744L14.9583 15.4688C15.4538 16.4268 15.4324 17.5454 14.9231 18.6143L16.0549 19.7461C16.2473 19.0572 16.5849 18.4173 17.0452 17.8682C16.2334 16.2862 16.2245 14.6169 17.0579 13.2402L17.1819 13.0459C18.5132 11.0756 21.387 10.0609 24.884 10.2666ZM9.69653 14.1963C9.68598 16.2128 10.3138 17.733 11.3665 18.3701H11.3674L11.4827 18.4355C12.0092 18.7132 12.6092 18.7483 13.2356 18.5439L11.5325 16.8418C11.4253 16.7346 11.3656 16.5891 11.3655 16.4375C11.3655 16.2858 11.4252 16.1395 11.5325 16.0322L11.6194 15.9609C11.7126 15.8987 11.823 15.8653 11.9368 15.8652C12.0885 15.8652 12.2347 15.9249 12.342 16.0322L14.0422 17.7344C14.2618 17.0617 14.2038 16.4188 13.8684 15.8652L13.8674 15.8643C13.2302 14.8118 11.7125 14.1832 9.69653 14.1963ZM24.2971 11.3896C21.3939 11.325 19.1457 12.1823 18.1311 13.6826L18.0354 13.833C17.4724 14.765 17.4201 15.8601 17.8918 16.9854L21.6584 13.2197L21.7454 13.1484C21.7763 13.1278 21.8095 13.11 21.844 13.0957L21.9514 13.0635C21.988 13.0562 22.0253 13.0527 22.0627 13.0527C22.1378 13.0527 22.2122 13.067 22.2815 13.0957L22.3811 13.1484C22.412 13.1691 22.4406 13.1933 22.467 13.2197L22.5383 13.3066C22.5591 13.3376 22.5767 13.3707 22.5911 13.4053L22.6243 13.5127C22.6316 13.5494 22.635 13.5874 22.635 13.625C22.635 13.6624 22.6315 13.6998 22.6243 13.7363L22.5911 13.8438C22.5767 13.8784 22.5591 13.9114 22.5383 13.9424L22.467 14.0293L18.7014 17.7939C19.8272 18.2663 20.9229 18.2159 21.8557 17.6514L22.0051 17.5557C23.5045 16.5403 24.3619 14.2906 24.2971 11.3896Z" fill="white" stroke="white" stroke-width="0.3"/>
<path d="M11 24H22" stroke="white" stroke-width="1.6" stroke-linecap="round" stroke-linejoin="round"/>
</svg>
