<svg width="419" height="268" viewBox="0 0 419 268" fill="none" xmlns="http://www.w3.org/2000/svg">
<rect width="127.076" height="180.455" rx="4.89209" transform="matrix(0.937332 -0.348438 0.347622 0.937635 0.783203 88.0201)" fill="#F3EECD"/>
<path d="M110.787 211.876L107.199 210.405L112.078 209.942L110.787 211.876ZM124.37 191.55L115.388 204.991L98.0138 206.639L73.0831 196.415L124.37 191.55ZM58.7987 180.546L130.388 173.755L129.725 183.537L127.679 186.599L63.8989 192.65L54.265 188.699L58.6393 178.833L58.7987 180.546ZM130.727 168.754L60.1396 175.45L65.8133 162.656L131.564 156.418L130.727 168.754ZM132.66 140.268L131.927 151.084L68.2668 157.123L69.2556 154.893L73.1881 144.399L130.41 138.971L132.66 140.268ZM123.012 134.704L75.1181 139.247L79.5148 127.514L106.16 124.986L123.012 134.704ZM99.2539 121.003L81.3168 122.705L85.0286 112.8L99.2539 121.003Z" fill="#F3C27A"/>
<path d="M96.0522 173.932C93.3234 166.305 94.6949 163.157 97.6389 159.358C99.525 156.974 100.584 154.14 99.4559 151.096C98.1125 147.473 94.4815 146.217 91.004 147.509C87.8743 148.673 85.5409 151.717 86.8707 156.104L80.6112 158.431C78.1025 150.953 82.1726 144.855 89.0696 142.292C96.604 139.491 103.323 142.138 105.773 148.748C107.504 153.415 106.422 157.346 103.58 160.975C100.887 164.384 100.299 166.977 101.964 171.735L102.093 172.083L96.1811 174.28L96.0522 173.932ZM98.3705 183.032C97.5032 180.781 98.699 178.226 100.959 177.386C103.191 176.556 105.733 177.722 106.6 179.972C107.41 182.244 106.232 184.76 104.012 185.618C101.74 186.429 99.1798 185.303 98.3705 183.032Z" fill="#CD8226"/>
<path d="M65.4988 247.111L8.53717 93.4695C8.16149 92.4562 8.67814 91.3294 9.69114 90.9529L62.1449 71.454L114.599 51.9552C115.612 51.5786 116.737 52.0948 117.113 53.1082L174.075 206.75C174.45 207.763 173.934 208.89 172.921 209.266L68.0133 248.264C67.0003 248.641 65.8745 248.124 65.4988 247.111Z" stroke="#FFBC90" stroke-width="1.95684"/>
<rect x="-0.323551" y="0.121944" width="126.589" height="179.964" rx="4.64749" transform="matrix(-0.910867 -0.412699 -0.411885 0.911236 418.432 103.442)" fill="#F1E8FA" stroke="#D8B7FA" stroke-width="0.489209"/>
<path d="M300.661 219.486L304.344 218.267L299.506 217.466L300.661 219.486ZM288.521 198.265L296.549 212.297L313.766 215.148L339.346 206.681L288.521 198.265ZM354.699 191.842L283.752 180.094L283.735 189.9L285.564 193.096L348.771 203.562L358.655 200.29L354.976 190.147L354.699 191.842ZM283.762 175.082L353.713 186.665L348.942 173.508L283.783 162.718L283.762 175.082ZM283.811 146.531L283.791 157.371L346.879 167.817L346.047 165.524L342.853 154.783L286.146 145.393L283.811 146.531ZM293.823 141.65L341.285 149.509L337.713 137.498L311.309 133.126L293.823 141.65ZM318.475 129.634L336.25 132.577L333.235 122.438L318.475 129.634Z" fill="#DDC1F9"/>
<path d="M309.478 178.799C312.909 171.461 316.099 170.191 320.864 169.566C323.881 169.202 326.629 167.936 327.97 164.979C329.567 161.46 327.872 158.011 324.493 156.48C321.452 155.102 317.652 155.621 315.508 159.672L309.425 156.917C312.908 149.839 320.09 148.376 326.792 151.412C334.114 154.73 337.021 161.342 334.109 167.761C332.052 172.294 328.517 174.324 323.944 174.899C319.632 175.423 317.389 176.851 315.222 181.402L315.069 181.739L309.324 179.137L309.478 178.799ZM304.719 186.893C305.687 184.684 308.335 183.712 310.532 184.707C312.7 185.689 313.685 188.308 312.716 190.516C311.692 192.7 309.085 193.657 306.904 192.703C304.72 191.679 303.694 189.076 304.719 186.893Z" fill="#A166DB"/>
<path d="M343.395 257.777L410.886 108.463C411.332 107.478 410.894 106.318 409.91 105.872L358.937 82.7766L307.963 59.6814C306.979 59.2353 305.82 59.6721 305.375 60.6569L237.884 209.971C237.439 210.956 237.876 212.116 238.86 212.562L340.807 258.752C341.791 259.198 342.95 258.761 343.395 257.777Z" stroke="#D8B7FA" stroke-width="1.95684"/>
<rect x="139.529" y="0.00012207" width="136.997" height="195.005" rx="5.27027" fill="#DFFBB2"/>
<path d="M145.325 185.518V8.43257C145.325 7.2683 146.269 6.32446 147.433 6.32446L268.095 6.32446C269.259 6.32446 270.203 7.26829 270.203 8.43257V185.518C270.203 186.682 269.259 187.626 268.095 187.626H147.433C146.269 187.626 145.325 186.682 145.325 185.518Z" stroke="#CEE35E" stroke-width="2.10811"/>
<path d="M239.774 72.7719L169.847 71.6249L163.958 118.751L242.085 137.484L239.774 72.7719Z" fill="#78DD50"/>
<path d="M211.172 106.486C214.732 102.813 231.146 93.4851 241.517 110.549L242.484 137.753L242.498 138.147L242.114 138.055L164.142 119.276L163.882 119.213L163.915 118.947L165.391 107.081C168.784 107.401 172.735 108.577 177.169 111.133C193.459 120.522 207.293 110.488 211.172 106.486Z" fill="#0E8816"/>
<path d="M189.428 100.339C190.515 101.421 193.344 102.937 195.954 100.339" stroke="black" stroke-width="1.49218" stroke-linecap="round" stroke-linejoin="round"/>
<path d="M203.321 94.4949C202.276 92.7295 199.56 90.2579 197.052 94.4949" stroke="black" stroke-width="1.49218" stroke-linecap="round" stroke-linejoin="round"/>
<ellipse cx="185.274" cy="93.548" rx="2.9665" ry="2.95244" fill="black"/>
<ellipse cx="191.046" cy="95.4046" rx="3.65655" ry="3.24931" fill="#B969FF"/>
<path d="M147.635 79.2061L151.434 77.235C150.675 79.6442 150.143 84.5281 154.094 84.7909C157.968 85.0486 159.967 84.9062 160.521 84.7974L160.553 84.7909C160.543 84.793 160.532 84.7952 160.521 84.7974L152.574 86.4335C150.548 86.105 146.723 84.1996 147.635 79.2061Z" fill="#B969FF"/>
<path d="M240.676 91.8992C243.287 91.8992 245.68 85.3289 246.551 82.0437H240.676C240.676 86.2487 236.759 89.4901 234.801 90.5851L240.676 91.8992Z" fill="#B969FF"/>
<path d="M164.015 61.1274L162.345 57.1673C164.675 58.1093 169.474 59.0065 170.029 55.0602C170.572 51.1907 170.58 49.1735 170.513 48.6093L170.509 48.5774C170.511 48.5875 170.512 48.5981 170.513 48.6093L171.543 56.7077C171.067 58.7171 168.894 62.4141 164.015 61.1274Z" fill="#B969FF"/>
<path d="M254.628 63.5584L258.428 61.5873C257.668 63.9965 257.136 68.8804 261.087 69.1432C264.961 69.4009 266.96 69.2585 267.514 69.1497L267.546 69.1432C267.536 69.1453 267.525 69.1475 267.514 69.1497L259.567 70.7858C257.541 70.4573 253.717 68.5519 254.628 63.5584Z" fill="#B969FF"/>
<path d="M258.469 61.5873C257.317 63.9067 255.758 68.3751 257.561 69.7545C257.889 69.9283 258.2 70.0516 258.469 70.1288C258.1 70.067 257.801 69.9381 257.561 69.7545C256.025 68.9413 254.122 67.0229 254.552 63.5584L258.469 61.5873Z" fill="#B969FF"/>
<path d="M151.475 77.235C150.323 79.5544 148.764 84.0228 150.568 85.4022C150.896 85.576 151.207 85.6993 151.475 85.7765C151.107 85.7147 150.808 85.5858 150.568 85.4022C149.032 84.589 147.129 82.6706 147.559 79.2061L151.475 77.235Z" fill="#B969FF"/>
<path d="M229.031 43.8469C226.42 43.8469 224.027 37.2766 223.156 33.9915H229.031C229.031 38.1965 232.948 41.4378 234.906 42.5329L229.031 43.8469Z" fill="#B969FF"/>
</svg>
