<svg width="358" height="108" viewBox="0 0 358 108" fill="none" xmlns="http://www.w3.org/2000/svg">
<g clip-path="url(#clip0_915_18036)">
<rect width="358" height="108" rx="6" fill="#39B94C"/>
<path d="M442 48C442 107.094 394.094 155 335 155C275.906 155 112.5 223.094 112.5 164C112.5 104.906 275.906 -59 335 -59C394.094 -59 442 -11.0945 442 48Z" fill="#259734"/>
<path d="M261.5 38.5L260.5 22.5L226.5 28.5L222 41L261.5 38.5Z" fill="#78DD4F"/>
<path d="M230.5 65.5L222 44.5L262 42.5L263 47.5L264.5 59L230.5 65.5Z" fill="#78DD4F"/>
<path d="M225.742 87L231 70L265.5 63.5L278 88.5L225.742 87Z" fill="#78DD4F"/>
<path d="M322 87.5L329 45L339.5 43L353.5 66.5L352 87.5H322Z" fill="#78DD4F"/>
<path d="M338.5 37.5L327 40.5L315 32.5L298.5 22L340.5 20L338.5 37.5Z" fill="#78DD4F"/>
<path d="M270.5 60L265 22H290.5L323 44.5L316 87.5H284.5L270.5 60Z" fill="#B969FF"/>
<path d="M316 87.5H284.5L283.736 86H316.244L316 87.5ZM317.059 81H281.191L278.137 75H318.035L317.059 81ZM318.849 70H275.591L272.536 64H319.825L318.849 70ZM320.64 59H270.355L269.486 53H321.616L320.64 59ZM323 44.5L322.431 48H268.763L267.895 42H319V41.7305L323 44.5ZM312.167 37H267.171L266.303 31H303.5L312.167 37ZM296.277 26H265.579L265 22H290.5L296.277 26Z" fill="#8630D2"/>
<path d="M18.707 57.1992V61.7227H13.7969V57.1992H18.707ZM14.4062 66.0938C16.2051 65.8359 17.5469 64.9512 17.7168 63.9258H14.8281V63.0352H21.8008V63.9258H18.9238C19.082 64.9277 20.4473 65.8359 22.2344 66.1055L21.8242 66.9609C20.2305 66.7148 18.918 65.9824 18.3086 64.9863C17.7109 65.9883 16.4102 66.709 14.8164 66.9492L14.4062 66.0938ZM14.8867 60.832H17.6172V58.0898H14.8867V60.832ZM20.5234 62.4492V56.4961H21.6367V58.9336H23.1602V59.8594H21.6367V62.4492H20.5234ZM32.195 56.5078V59.1914H33.5192V60.1172H32.195V62.8125H31.0817V56.5078H32.195ZM24.0974 62.0391V57.3164H26.7575V58.207H25.1521V61.1074C25.6853 61.0957 26.2712 61.043 26.9099 60.8906L27.0153 61.8281C26.072 62.0215 25.2985 62.0391 24.5778 62.0391H24.0974ZM25.1521 64.9688C25.1521 63.6973 26.5114 62.9531 28.7263 62.9531C30.9294 62.9531 32.2829 63.6973 32.2888 64.9688C32.2829 66.2402 30.9294 66.9727 28.7263 66.9727C26.5114 66.9727 25.1521 66.2402 25.1521 64.9688ZM26.2653 64.9688C26.2595 65.6895 27.1794 66.0938 28.7263 66.1055C30.2614 66.0938 31.1696 65.6895 31.1755 64.9688C31.1696 64.2363 30.2614 63.832 28.7263 63.832C27.1794 63.832 26.2595 64.2363 26.2653 64.9688ZM27.3552 62.0156V57.3164H30.156V58.207H28.4216V61.0781C29.2185 61.0664 29.7927 61.0254 30.4724 60.8672L30.5896 61.793C29.7048 61.9922 29.031 62.0156 27.8942 62.0156H27.3552ZM42.8002 56.4961V67.0195H41.6869V56.4961H42.8002ZM34.4682 60.9609C34.4682 58.7168 35.599 57.2871 37.1869 57.2812C38.7455 57.2871 39.894 58.7168 39.894 60.9609C39.894 63.2285 38.7455 64.6582 37.1869 64.6523C35.599 64.6582 34.4682 63.2285 34.4682 60.9609ZM35.5463 60.9609C35.5405 62.6309 36.2084 63.6562 37.1869 63.6562C38.1479 63.6562 38.8158 62.6309 38.8158 60.9609C38.8158 59.3145 38.1479 58.2832 37.1869 58.2773C36.2084 58.2832 35.5405 59.3145 35.5463 60.9609ZM56.1473 56.4961V67.0195H55.034V61.5586H52.8661V60.6562H55.034V56.4961H56.1473ZM47.3817 64.125C48.9696 63.3926 50.0125 61.5996 50.0067 59.8711V59.1797H47.6747V58.2891H50.0184V56.707H51.1317V58.2891H53.4051V59.1797H51.1082V59.8711C51.1082 61.5293 52.1805 63.2344 53.7918 63.9492L53.1707 64.8047C51.9696 64.2773 51.0438 63.1758 50.575 61.8574C50.118 63.252 49.1981 64.4238 47.9911 64.9805L47.3817 64.125ZM62.522 56.7188C64.8248 56.7129 66.2662 57.4629 66.272 58.7344C66.2662 59.9824 64.8248 60.7207 62.522 60.7148C60.2252 60.7207 58.7662 59.9824 58.772 58.7344C58.7662 57.4629 60.2252 56.7129 62.522 56.7188ZM57.7408 62.4258V61.5234H67.315V62.4258H57.7408ZM58.8892 66.8672V63.3633H66.1431V66.8672H58.8892ZM59.9205 58.7344C59.9146 59.4316 60.9048 59.8418 62.522 59.8477C64.1275 59.8418 65.1295 59.4316 65.1236 58.7344C65.1295 58.0078 64.1275 57.5918 62.522 57.5977C60.9048 57.5918 59.9146 58.0078 59.9205 58.7344ZM59.9908 65.9648H65.065V64.2539H59.9908V65.9648ZM76.7952 56.4961V67.0195H75.6819V56.4961H76.7952ZM68.4632 60.9609C68.4632 58.7168 69.594 57.2871 71.1819 57.2812C72.7405 57.2871 73.8889 58.7168 73.8889 60.9609C73.8889 63.2285 72.7405 64.6582 71.1819 64.6523C69.594 64.6582 68.4632 63.2285 68.4632 60.9609ZM69.5413 60.9609C69.5354 62.6309 70.2034 63.6562 71.1819 63.6562C72.1428 63.6562 72.8108 62.6309 72.8108 60.9609C72.8108 59.3145 72.1428 58.2832 71.1819 58.2773C70.2034 58.2832 69.5354 59.3145 69.5413 60.9609ZM87.166 56.5078V64.1953H86.0527V56.5078H87.166ZM78.5176 61.8281C80.164 61.2188 81.1367 59.707 81.1426 58.125V57.082H82.2793V58.125C82.2734 59.6602 83.2461 61.0664 84.8691 61.6289L84.2949 62.5195C83.082 62.0684 82.1855 61.1777 81.7168 60.041C81.2539 61.2598 80.3457 62.2324 79.1152 62.707L78.5176 61.8281ZM80.2988 66.7734V63.4688H81.4238V65.8711H87.4824V66.7734H80.2988ZM96.9977 56.4961V60.6797H98.6267V61.6055H96.9977V66.9844H95.8845V56.4961H96.9977ZM88.8298 64.1836C91.4606 62.8711 92.8903 60.9727 93.1188 58.5234H89.3571V57.5977H94.2556C94.2438 60.6328 92.9079 63.3457 89.4509 65.0508L88.8298 64.1836ZM108.787 64.7578V65.6836H99.1772V64.7578H101.474V62.0156C100.613 61.541 100.085 60.791 100.091 59.8477C100.085 58.1953 101.708 57.1113 103.958 57.1055C106.214 57.1113 107.837 58.1953 107.837 59.8477C107.837 60.7734 107.333 61.5176 106.49 61.9922V64.7578H108.787ZM101.169 59.8477C101.169 60.9727 102.312 61.7051 103.958 61.7109C105.593 61.7051 106.753 60.9727 106.759 59.8477C106.753 58.7168 105.593 57.9961 103.958 57.9961C102.312 57.9961 101.169 58.7168 101.169 59.8477ZM102.576 64.7578H105.365V62.4258C104.937 62.5254 104.462 62.5781 103.958 62.5781C103.466 62.5781 102.997 62.5254 102.576 62.4258V64.7578ZM111.259 63.4805C111.276 61.9453 111.728 61.4766 112.501 60.9961C112.993 60.6973 113.368 60.2637 113.368 59.6484C113.368 58.916 112.806 58.4531 112.103 58.4531C111.47 58.4531 110.855 58.8398 110.802 59.707H109.536C109.583 58.2129 110.708 57.3984 112.103 57.3984C113.626 57.3984 114.646 58.3125 114.646 59.6484C114.646 60.5918 114.194 61.2188 113.45 61.6758C112.747 62.1035 112.472 62.5254 112.454 63.4805V63.5508H111.259V63.4805ZM111.071 65.25C111.066 64.793 111.446 64.418 111.903 64.418C112.355 64.418 112.73 64.793 112.735 65.25C112.73 65.707 112.355 66.0762 111.903 66.082C111.446 66.0762 111.066 65.707 111.071 65.25ZM20.6719 77.1406V83.375H13.8438V77.1406H20.6719ZM14.6875 88.8594C17.2422 88.5469 18.6328 87.5312 18.9531 86.4375H15.2969V84.8594H24.875V86.4375H21.2344C21.5625 87.5 22.9766 88.5547 25.5 88.8906L24.7969 90.4062C22.5156 90.1016 20.9062 89.1953 20.0859 87.9766C19.2734 89.1953 17.6797 90.0859 15.4062 90.375L14.6875 88.8594ZM15.8125 81.7969H18.7031V78.7188H15.8125V81.7969ZM22.7031 84.1875V76.2188H24.7031V79.3125H26.625V80.9375H24.7031V84.1875H22.7031ZM38.8278 76.2344V79.6719H40.4371V81.2969H38.8278V84.7188H36.8278V76.2344H38.8278ZM27.5778 83.8594V77.25H31.2653V78.8281H29.4684V82.2031C30.109 82.1797 30.7262 82.1094 31.4059 81.9688L31.5778 83.6094C30.4059 83.8359 29.4762 83.8516 28.2965 83.8594H27.5778ZM29.0309 87.6562C29.0231 85.9219 30.9137 84.8906 33.984 84.8906C37.0465 84.8906 38.9371 85.9219 38.9371 87.6562C38.9371 89.4141 37.0465 90.4219 33.984 90.4219C30.9137 90.4219 29.0231 89.4141 29.0309 87.6562ZM31.0309 87.6562C31.0231 88.4844 32.0621 88.875 33.984 88.875C35.9059 88.875 36.9293 88.4844 36.9371 87.6562C36.9293 86.8359 35.9059 86.4453 33.984 86.4531C32.0621 86.4453 31.0231 86.8359 31.0309 87.6562ZM31.984 83.8438V77.25H35.7965V78.8281H33.8903V82.1797C34.8121 82.1641 35.3981 82.1094 36.0934 81.9531L36.2809 83.5781C35.2731 83.8125 34.4996 83.8438 32.7653 83.8438H31.984ZM55.9364 76.2188V81.6719H57.952V83.3125H55.9364V90.4062H53.9364V76.2188H55.9364ZM44.5614 86.4219C47.9286 84.7344 49.7411 82.4688 50.1161 79.2969H45.3739V77.6719H52.1395C52.1239 81.9219 50.4676 85.6016 45.6864 87.9531L44.5614 86.4219ZM70.436 76.2188V90.4688H68.4204V76.2188H70.436ZM58.9516 82.2812C58.9438 79.1797 60.5298 77.2188 62.7173 77.2188C64.8579 77.2188 66.4516 79.1797 66.4516 82.2812C66.4516 85.4062 64.8579 87.3594 62.7173 87.3594C60.5298 87.3594 58.9438 85.4062 58.9516 82.2812ZM60.8735 82.2812C60.8657 84.3984 61.6079 85.5547 62.7173 85.5469C63.7954 85.5547 64.5219 84.3984 64.5298 82.2812C64.5219 80.1719 63.7954 79.0156 62.7173 79.0156C61.6079 79.0156 60.8657 80.1719 60.8735 82.2812ZM83.9356 82.7969V84.3906H73.8731V77.4062H83.8262V79.0156H75.8419V82.7969H83.9356ZM72.3419 88.7031V87.0625H85.3575V88.7031H72.3419Z" fill="#F3F3F3"/>
<path d="M283 43.2258L299.667 60L323 34" stroke="white" stroke-width="5.6"/>
</g>
<defs>
<clipPath id="clip0_915_18036">
<rect width="358" height="108" rx="6" fill="white"/>
</clipPath>
</defs>
</svg>
