<svg width="421" height="428" viewBox="0 0 421 428" fill="none" xmlns="http://www.w3.org/2000/svg">
<rect y="0.611771" width="420.324" height="426.776" rx="11.0612" fill="#FCFCFC"/>
<path d="M28.4623 26.0449C28.4721 30.6739 25.3237 33.8914 20.0137 35.2633L19.1452 33.5657C23.3004 32.4899 25.7382 30.3876 26.1034 27.782H20.1717V26.0449H28.4623ZM22.1061 42.567V35.7371H33.8907V42.567H22.1061ZM24.2775 40.8299H31.739V37.4742H24.2775V40.8299ZM31.6798 34.9672V24.979H33.8907V34.9672H31.6798ZM50.6101 24.9593V32.3221H53.117V34.1579H50.6101V42.8038H48.3992V24.9593H50.6101ZM36.2791 37.8492C37.6313 37.8492 39.2006 37.8492 40.839 37.8097V36.1417C38.8946 35.8062 37.6313 34.5922 37.6412 32.9143C37.6313 30.9009 39.398 29.5685 41.9641 29.5586C44.5007 29.5685 46.2871 30.9009 46.3068 32.9143C46.2871 34.602 44.9942 35.816 43.0498 36.1417V37.7308C44.55 37.6518 46.0502 37.5334 47.4517 37.336L47.5899 38.9349C43.7604 39.6356 39.6349 39.6652 36.595 39.6652L36.2791 37.8492ZM36.6147 28.7493V27.0122H40.839V25.0382H43.0498V27.0122H47.2543V28.7493H36.6147ZM39.7138 32.9143C39.704 33.9408 40.612 34.5428 41.9641 34.533C43.2966 34.5428 44.1947 33.9408 44.1947 32.9143C44.1947 31.878 43.2966 31.2463 41.9641 31.2365C40.612 31.2463 39.704 31.878 39.7138 32.9143ZM68.9086 24.979V38.0663H66.7176V33.6447H62.4637C61.6149 34.602 60.3515 35.1745 58.9204 35.1844C56.226 35.1745 54.2027 33.2598 54.2027 30.6245C54.2027 27.9597 56.226 26.0548 58.9204 26.0449C60.3417 26.0548 61.605 26.6174 62.4538 27.5649H66.7176V24.979H68.9086ZM56.2951 30.6245C56.2951 32.2136 57.3906 33.2301 58.9204 33.2301C60.3812 33.2301 61.4964 32.2136 61.5063 30.6245C61.4964 29.0256 60.3812 27.9992 58.9204 27.9992C57.3906 27.9992 56.2951 29.0256 56.2951 30.6245ZM57.2031 42.4485V36.7241H59.3942V40.672H69.3627V42.4485H57.2031ZM63.421 29.3415C63.5296 29.7461 63.5987 30.1705 63.5987 30.6245C63.5987 31.0588 63.5395 31.4733 63.4309 31.8681H66.7176V29.3415H63.421ZM86.2597 24.9593V35.0067H84.0884V24.9593H86.2597ZM72.4815 33.9803V26.0055H74.6923V32.1247C77.4855 32.105 79.8838 31.8977 82.4105 31.3549L82.6869 33.1709C79.8444 33.7532 77.1598 33.9605 74.0015 33.9803H72.4815ZM74.4752 42.567V35.7766H86.2597V42.567H74.4752ZM76.6268 40.8299H84.1279V37.4939H76.6268V40.8299ZM97.0178 25.2356C101.084 25.2455 103.443 26.3213 103.453 28.2953C103.443 30.289 101.084 31.3648 97.0178 31.3746C92.9613 31.3648 90.5827 30.289 90.5827 28.2953C90.5827 26.3213 92.9613 25.2455 97.0178 25.2356ZM88.9048 34.0789V32.3221H105.17V34.0789H88.9048ZM90.8196 36.9017V35.2831H103.137V39.6455H92.9909V40.9681H103.631V42.6459H90.8393V38.0861H100.985V36.9017H90.8196ZM92.8922 28.2953C92.8824 29.2822 94.3036 29.7362 97.0178 29.7362C99.7715 29.7362 101.183 29.2822 101.183 28.2953C101.183 27.3774 99.7715 26.8543 97.0178 26.8543C94.3036 26.8543 92.8824 27.3774 92.8922 28.2953ZM116.994 25.7489C119.708 25.739 121.673 27.2589 121.673 29.4994C121.673 31.7003 119.708 33.24 116.994 33.2301C114.31 33.24 112.355 31.7003 112.355 29.4994C112.355 27.2589 114.31 25.739 116.994 25.7489ZM111.191 34.454C114.408 34.454 118.919 34.3948 122.758 33.8223L122.916 35.441C121.376 35.7371 119.778 35.9246 118.218 36.043V42.2511H116.007V36.1713C114.359 36.2404 112.809 36.2602 111.467 36.27L111.191 34.454ZM114.487 29.4994C114.477 30.6936 115.534 31.4437 116.994 31.4338C118.514 31.4437 119.58 30.6936 119.58 29.4994C119.58 28.2656 118.514 27.5057 116.994 27.5254C115.534 27.5057 114.477 28.2656 114.487 29.4994ZM123.923 42.7841V24.979H126.094V42.7841H123.923ZM142.715 24.979V30.585H145.202V32.4011H142.715V38.3032H140.524V24.979H142.715ZM128.66 28.7098V26.953H132.865V24.9593H135.056V26.953H139.241V28.7098H128.66ZM129.568 32.8551C129.568 30.8022 131.355 29.4402 133.951 29.4402C136.527 29.4402 138.303 30.8022 138.313 32.8551C138.303 34.8981 136.527 36.2306 133.951 36.2306C131.355 36.2306 129.568 34.8981 129.568 32.8551ZM131.286 42.4485V37.257H133.477V40.672H143.426V42.4485H131.286ZM131.7 32.8551C131.69 33.9309 132.598 34.5428 133.951 34.533C135.303 34.5428 136.221 33.9309 136.221 32.8551C136.221 31.7694 135.303 31.1378 133.951 31.1378C132.598 31.1378 131.69 31.7694 131.7 32.8551ZM167.172 35.6779V37.4742H160.105V42.8236H157.934V37.4742H150.907V35.6779H167.172ZM151.795 32.8551C155.358 32.4208 157.697 30.5949 157.914 28.8085H152.407V27.0714H157.934V24.979H160.105V27.0714H165.652V28.8085H160.145C160.352 30.5752 162.681 32.4208 166.244 32.8551L165.435 34.5922C162.484 34.2171 160.194 32.9242 159.04 31.2068C157.875 32.9439 155.555 34.2171 152.585 34.5922L151.795 32.8551ZM174.792 29.1835C174.782 31.3055 176.272 33.3683 179.095 34.2369L178.029 35.9542C176.006 35.3522 174.535 34.0592 173.726 32.4208C172.936 34.1875 171.466 35.5792 169.383 36.2503L168.317 34.533C171.13 33.6545 172.601 31.4733 172.601 29.1835V28.9072H168.87V27.1701H172.601V25.0777H174.811V27.1701H178.522V28.9072H174.792V29.1835ZM171.614 42.4485V37.0794H173.805V40.672H183.773V42.4485H171.614ZM177.93 32.0458V30.289H181.128V24.979H183.319V38.2243H181.128V32.0458H177.93ZM206.039 24.9593V42.8038H203.927V33.6644H202.032V41.9353H199.96V25.2751H202.032V31.8484H203.927V24.9593H206.039ZM191.195 38.2045V26.8937H198.203V38.2045H191.195ZM193.248 36.4674H196.15V28.6308H193.248V36.4674ZM224.377 32.2037V33.9408H217.311V35.2831H222.344V39.6652H212.198V40.9681H222.838V42.6459H210.047V38.0861H220.193V36.9412H210.027V35.2831H215.12V33.9408H208.112V32.2037H224.377ZM210.165 31.0785V25.512H222.285V31.0785H210.165ZM212.317 29.3612H220.094V27.2293H212.317V29.3612ZM245.637 24.979V35.895H243.545V31.2365H241.689V35.3028H239.636V25.3146H241.689V29.4599H243.545V24.979H245.637ZM231.109 27.9597V26.2226H237.899V31.3351H233.26V33.2104C235.343 33.1907 236.912 33.1018 238.728 32.7564L238.926 34.5132C236.774 34.908 234.968 34.9672 232.352 34.9672H231.128V29.7165H235.787V27.9597H231.109ZM233.497 39.4481C233.487 37.3755 235.856 36.1417 239.616 36.1319C243.347 36.1417 245.726 37.3755 245.736 39.4481C245.726 41.5306 243.347 42.7841 239.616 42.7841C235.856 42.7841 233.487 41.5306 233.497 39.4481ZM235.688 39.4481C235.678 40.5338 237.139 41.0865 239.616 41.0865C242.054 41.0865 243.515 40.5338 243.525 39.4481C243.515 38.4118 242.054 37.8295 239.616 37.8295C237.139 37.8295 235.678 38.4118 235.688 39.4481ZM257.441 26.0844C257.422 30.891 254.964 34.1875 249.052 35.895L248.243 34.1382C250.967 33.3881 252.743 32.3221 253.809 30.9996L248.499 31.3944L248.164 29.6573L254.717 29.4105C254.905 28.9171 255.023 28.394 255.082 27.8412H249.072V26.0844H257.441ZM250.572 39.3099C250.572 37.0991 252.911 35.816 256.711 35.816C260.412 35.816 262.771 37.0991 262.771 39.3099C262.771 41.5109 260.412 42.7644 256.711 42.7644C252.911 42.7644 250.572 41.5109 250.572 39.3099ZM252.783 39.3099C252.783 40.4351 254.174 41.0766 256.711 41.0668C259.168 41.0766 260.59 40.4351 260.58 39.3099C260.59 38.165 259.168 37.5432 256.711 37.5531C254.174 37.5432 252.783 38.165 252.783 39.3099ZM260.501 35.5594V24.979H262.712V35.5594H260.501Z" fill="#121212"/>
<g filter="url(#filter0_d_1110_22486)">
<rect x="18.4346" y="60.2766" width="383.454" height="99.9436" rx="8.9837" fill="white"/>
<rect x="18.9961" y="60.8381" width="382.331" height="98.8207" rx="8.42222" stroke="#EEEFF2" stroke-width="1.12296"/>
<circle cx="75.7053" cy="109.687" r="35.9348" fill="url(#paint0_linear_1110_22486)"/>
<mask id="mask0_1110_22486" style="mask-type:alpha" maskUnits="userSpaceOnUse" x="39" y="73" width="73" height="73">
<circle cx="75.7053" cy="109.687" r="35.9348" fill="#D9D9D9"/>
</mask>
<g mask="url(#mask0_1110_22486)">
<path d="M82.6465 103.825C82.6465 103.342 83.0387 102.949 83.5225 102.949H95.6401C96.1239 102.949 96.516 103.342 96.516 103.825V113.242C96.516 117.072 93.4112 120.177 89.5813 120.177C85.7513 120.177 82.6465 117.072 82.6465 113.242V103.825Z" fill="#F9D084"/>
<path d="M55.4922 103.825C55.4922 103.341 55.8844 102.949 56.3682 102.949H68.4858C68.9696 102.949 69.3617 103.341 69.3617 103.825V113.242C69.3617 117.072 66.2569 120.177 62.427 120.177C58.597 120.177 55.4922 117.072 55.4922 113.242V103.825Z" fill="#F9D084"/>
<path d="M61.1064 98.2104C61.1064 97.7266 61.4986 97.3344 61.9824 97.3344H89.4275C89.9113 97.3344 90.3035 97.7266 90.3035 98.2104V121.141C90.3035 125.978 86.3816 129.9 81.5437 129.9H69.8662C65.0283 129.9 61.1064 125.978 61.1064 121.141V98.2104Z" fill="#FF822F"/>
<rect x="71.4053" y="130.027" width="9.19771" height="9.05171" fill="#F9D084"/>
<path d="M75.5876 105.691C75.7187 105.288 76.2895 105.288 76.4207 105.691L77.5283 109.1C77.5869 109.281 77.7551 109.403 77.9448 109.403L81.5292 109.403C81.9535 109.403 82.1299 109.946 81.7866 110.195L78.8868 112.302C78.7333 112.414 78.6691 112.611 78.7277 112.792L79.8353 116.201C79.9665 116.604 79.5046 116.94 79.1614 116.69L76.2616 114.584C76.108 114.472 75.9002 114.472 75.7467 114.584L72.8469 116.69C72.5036 116.94 72.0418 116.604 72.1729 116.201L73.2805 112.792C73.3391 112.611 73.2749 112.414 73.1214 112.302L70.2216 110.195C69.8783 109.946 70.0547 109.403 70.479 109.403L74.0634 109.403C74.2531 109.403 74.4213 109.281 74.4799 109.1L75.5876 105.691Z" fill="#F9D084"/>
<path d="M64.9814 143.538C64.9814 143.817 65.2072 144.043 65.4858 144.043H86.5224C86.8009 144.043 87.0267 143.817 87.0267 143.538C87.0267 140.753 84.7687 138.495 81.9833 138.495H70.0249C67.2395 138.495 64.9814 140.753 64.9814 143.538Z" fill="#FF822F"/>
<path d="M60.0176 148.502C60.0176 148.78 60.2434 149.006 60.5219 149.006H91.6322C91.9107 149.006 92.1366 148.78 92.1366 148.502C92.1366 145.716 89.8785 143.458 87.0931 143.458H65.0611C62.2756 143.458 60.0176 145.716 60.0176 148.502Z" fill="#FF822F"/>
</g>
<path d="M137.433 89.5799C137.424 91.4661 139.354 93.5454 143.013 94.0016L142.135 95.8088C139.346 95.4053 137.301 94.1156 136.257 92.3873C135.205 94.1069 133.169 95.4053 130.414 95.8088L129.52 94.0016C133.152 93.5454 135.073 91.4661 135.082 89.5799V88.8079H137.433V89.5799ZM128.958 98.8444V97.0195H143.522V98.8444H137.31V104.301H135.099V98.8444H128.958ZM157.839 98.4583V104.301H155.593V100.248H146.855V98.4583H157.839ZM144.714 93.0892C144.714 90.8345 146.592 89.2027 149.083 89.2114C151.566 89.2027 153.444 90.8345 153.452 93.0892C153.444 95.3965 151.566 97.0108 149.083 97.002C146.592 97.0108 144.714 95.3965 144.714 93.0892ZM146.908 93.0892C146.89 94.3788 147.802 95.1158 149.083 95.107C150.329 95.1158 151.233 94.3788 151.241 93.0892C151.233 91.8434 150.329 91.1152 149.083 91.124C147.802 91.1152 146.89 91.8434 146.908 93.0892ZM155.593 97.7038V88.3341H157.839V97.7038H155.593ZM168.893 89.808V91.5802H160.014V89.808H163.453V88.1938H165.682V89.808H168.893ZM160.804 95.107C160.786 93.3348 162.339 92.1154 164.541 92.1066C166.734 92.1154 168.314 93.3348 168.331 95.107C168.314 96.8967 166.734 98.0811 164.541 98.0723C162.339 98.0811 160.786 96.8967 160.804 95.107ZM162.506 101.511C162.497 99.7392 164.603 98.6952 168.015 98.704C171.411 98.6952 173.516 99.7392 173.525 101.511C173.516 103.248 171.411 104.31 168.015 104.301C164.603 104.31 162.497 103.248 162.506 101.511ZM162.892 95.107C162.883 95.9668 163.532 96.423 164.541 96.423C165.541 96.423 166.243 95.9668 166.243 95.107C166.243 94.256 165.541 93.7822 164.541 93.7735C163.532 93.7822 162.883 94.256 162.892 95.107ZM164.857 101.511C164.857 102.24 165.971 102.617 168.015 102.617C170.016 102.617 171.121 102.24 171.121 101.511C171.121 100.748 170.016 100.406 168.015 100.388C165.971 100.406 164.857 100.748 164.857 101.511ZM169.033 96.8265V95.0368H171.209V93.6331H169.068V91.8434H171.209V88.3341H173.437V98.511H171.209V96.8265H169.033ZM189.334 88.3341V104.301H187.193V88.3341H189.334ZM175.63 95.2474C175.63 91.6767 176.99 89.4659 179.104 89.4746C181.025 89.4659 182.341 91.2644 182.587 94.2472H183.894V88.5622H186V103.564H183.894V96.0194H182.605C182.412 99.1514 181.069 101.055 179.104 101.055C176.99 101.055 175.63 98.8356 175.63 95.2474ZM177.7 95.2474C177.683 97.7038 178.209 98.9145 179.104 98.897C180.025 98.9145 180.569 97.7038 180.56 95.2474C180.569 92.7997 180.025 91.5802 179.104 91.5802C178.209 91.5802 177.683 92.7997 177.7 95.2474ZM204.844 88.3341V104.301H202.739V88.3341H204.844ZM190.807 99.4058C194.036 97.4933 195.457 95.1684 195.764 92.0364H191.684V90.2291H197.984C197.984 91.7557 197.817 93.1769 197.431 94.4929H199.352V88.6851H201.44V103.599H199.352V96.265H196.738C195.825 98.0899 194.343 99.669 192.07 100.985L190.807 99.4058ZM223.232 88.3341V94.4578H225.495V96.3001H223.232V104.266H220.986V88.3341H223.232ZM210.458 99.7919C214.239 97.8969 216.275 95.3526 216.696 91.7907H211.37V89.9659H218.968C218.95 94.7385 217.091 98.8707 211.721 101.511L210.458 99.7919ZM235.215 89.4045V91.1942H232.04C232.048 93.0541 233.18 94.8526 235.724 95.5983L234.654 97.3529C232.891 96.8178 231.662 95.7387 230.961 94.3788C230.25 95.9843 228.951 97.2652 227.039 97.8969L225.898 96.1247C228.548 95.2912 229.75 93.2208 229.776 91.1942H226.513V89.4045H235.215ZM228.109 101.196C228.1 99.2479 230.206 98.1162 233.584 98.125C236.909 98.1162 238.962 99.2479 238.97 101.196C238.962 103.152 236.909 104.31 233.584 104.301C230.206 104.31 228.1 103.152 228.109 101.196ZM230.355 101.196C230.338 102.108 231.487 102.564 233.584 102.564C235.654 102.564 236.76 102.108 236.76 101.196C236.76 100.301 235.654 99.8533 233.584 99.862C231.487 99.8533 230.338 100.301 230.355 101.196ZM236.567 97.8091V88.3341H238.812V92.0364H240.971V93.8612H238.812V97.8091H236.567ZM142.328 115.352V126.827H140.082V115.352H142.328ZM129.204 120.387C129.204 118.045 131.116 116.361 133.573 116.369C136.021 116.361 137.933 118.045 137.942 120.387C137.933 122.765 136.021 124.441 133.573 124.441C131.116 124.441 129.204 122.765 129.204 120.387ZM131.397 120.387C131.38 121.721 132.318 122.493 133.573 122.493C134.783 122.493 135.722 121.721 135.731 120.387C135.722 119.089 134.783 118.308 133.573 118.317C132.318 118.308 131.38 119.089 131.397 120.387ZM131.625 131.021V125.669H133.889V129.231H142.75V131.021H131.625ZM157.892 115.334V131.301H155.628V115.334H157.892ZM144.521 126.774C148.645 124.827 150.461 122.3 150.82 118.756H145.381V117.001H153.101C153.093 121.844 151.399 125.871 145.697 128.564L144.521 126.774ZM176.77 115.334V118.685H178.929V120.528H176.77V123.3H174.525V115.334H176.77ZM164.576 122.984V116.334H172.244V122.984H164.576ZM165.541 130.88V124.634H167.717V129.055C168.603 128.994 169.436 128.862 170.261 128.599L170.577 130.336C169.234 130.819 167.945 130.88 166.418 130.88H165.541ZM166.787 121.23H170.033V118.071H166.787V121.23ZM170.033 126.406V124.792H172.98V123.634H175.156V124.792H178.069V126.406H170.033ZM170.963 129.055C170.945 127.66 172.2 126.809 174.033 126.809C175.867 126.809 177.13 127.66 177.139 129.055C177.13 130.424 175.867 131.284 174.033 131.284C172.191 131.284 170.945 130.424 170.963 129.055ZM172.945 129.055C172.937 129.547 173.402 129.792 174.033 129.792C174.674 129.792 175.13 129.547 175.139 129.055C175.13 128.564 174.674 128.327 174.033 128.318C173.402 128.327 172.937 128.564 172.945 129.055ZM194.176 123.493V125.283H179.613V123.493H194.176ZM181.069 119.089C181.069 117.054 183.376 115.808 186.894 115.825C190.386 115.808 192.693 117.054 192.702 119.089C192.693 121.133 190.386 122.388 186.894 122.388C183.376 122.388 181.069 121.133 181.069 119.089ZM181.367 131.021V126.353H183.613V129.231H192.527V131.021H181.367ZM183.403 119.089C183.385 120.08 184.675 120.58 186.894 120.58C189.096 120.58 190.386 120.08 190.386 119.089C190.386 118.124 189.096 117.598 186.894 117.58C184.675 117.598 183.385 118.124 183.403 119.089ZM213.09 115.334V131.301H210.949V123.248H209.511V130.564H207.387V115.562H209.511V121.423H210.949V115.334H213.09ZM199.702 127.283V116.983H206.054V127.283H199.702ZM201.79 125.529H203.966V118.756H201.79V125.529ZM229.32 121.668V123.441H223.144V124.458H227.548V128.546H218.652V129.512H227.969V131.196H216.458V126.967H225.337V126.143H216.441V124.458H220.898V123.441H214.757V121.668H229.32ZM216.564 120.826V115.79H227.478V120.826H216.564ZM218.757 119.107H225.249V117.527H218.757V119.107Z" fill="#121212"/>
</g>
<g filter="url(#filter1_d_1110_22486)">
<rect x="18.4346" y="182.68" width="383.454" height="99.9436" rx="8.9837" fill="white"/>
<rect x="18.9961" y="183.241" width="382.331" height="98.8207" rx="8.42222" stroke="#EEEFF2" stroke-width="1.12296"/>
<circle cx="75.7053" cy="232.09" r="35.9348" fill="url(#paint1_linear_1110_22486)"/>
<mask id="mask1_1110_22486" style="mask-type:alpha" maskUnits="userSpaceOnUse" x="39" y="196" width="73" height="73">
<circle cx="75.7053" cy="232.09" r="35.9348" fill="url(#paint2_linear_1110_22486)"/>
</mask>
<g mask="url(#mask1_1110_22486)">
<path d="M66.0986 253.549V229.801H77.973L81.7818 237.642L97.2409 240.555L99.7054 253.549H66.0986Z" fill="#39B94C"/>
<rect x="66.9951" y="231.144" width="6.27327" height="6.72136" fill="#F6FFE8"/>
<path d="M74.1641 237.866V231.144H77.0767L79.7652 237.866H74.1641Z" fill="#F6FFE8"/>
<rect x="-5.14844" y="211.876" width="71.2464" height="37.1915" fill="#F5EBFF"/>
<rect width="71.2464" height="4.48091" transform="matrix(1 0 0 -1 -5.14844 253.549)" fill="#B969FF"/>
<rect width="71.2464" height="1.79236" transform="matrix(1 0 0 -1 -5.14844 246.827)" fill="#B969FF"/>
<circle cx="88.9513" cy="257.032" r="5.37709" fill="#3C3E41"/>
<circle cx="88.9512" cy="257.032" r="2.68854" fill="#7E8085"/>
<circle cx="76.8527" cy="257.032" r="5.37709" fill="#3C3E41"/>
<circle cx="76.8526" cy="257.032" r="2.68854" fill="#7E8085"/>
<circle cx="53.9992" cy="257.032" r="5.37709" fill="#3C3E41"/>
<circle cx="53.9991" cy="257.032" r="2.68854" fill="#7E8085"/>
<circle cx="41.9015" cy="257.033" r="5.37709" fill="#3C3E41"/>
<circle cx="41.9005" cy="257.032" r="2.68854" fill="#7E8085"/>
</g>
<path d="M143.557 219.615V221.423H140.135V226.704H137.854V221.423H134.59V226.704H132.292V221.423H128.941V219.615H143.557ZM130.414 214.878C130.406 212.676 132.774 211.272 136.205 211.263C139.635 211.272 142.03 212.676 142.03 214.878C142.03 217.027 139.635 218.396 136.205 218.387C132.774 218.396 130.406 217.027 130.414 214.878ZM132.713 214.878C132.704 216.001 134.064 216.624 136.205 216.633C138.363 216.624 139.714 216.001 139.714 214.878C139.714 213.702 138.363 213.062 136.205 213.053C134.064 213.062 132.704 213.702 132.713 214.878ZM159.032 218.966V220.721H144.434V218.966H150.61V217.984H146.258V211.123H157.33V212.843H148.504V213.737H156.962V215.352H148.504V216.264H157.47V217.984H152.856V218.966H159.032ZM146.136 224.072C146.136 222.388 148.153 221.44 151.733 221.458C155.251 221.44 157.277 222.388 157.295 224.072C157.277 225.792 155.251 226.713 151.733 226.704C148.153 226.713 146.136 225.792 146.136 224.072ZM148.381 224.072C148.364 224.756 149.434 225.055 151.733 225.055C153.979 225.055 155.04 224.756 155.049 224.072C155.04 223.405 153.979 223.098 151.733 223.107C149.434 223.098 148.364 223.405 148.381 224.072ZM173.823 210.737V226.704H171.682V210.737H173.823ZM160.119 217.65C160.119 214.08 161.479 211.869 163.594 211.877C165.515 211.869 166.831 213.667 167.077 216.65H168.384V210.965H170.489V225.967H168.384V218.422H167.094C166.901 221.554 165.559 223.458 163.594 223.458C161.479 223.458 160.119 221.238 160.119 217.65ZM162.19 217.65C162.172 220.107 162.699 221.317 163.594 221.3C164.515 221.317 165.059 220.107 165.05 217.65C165.059 215.203 164.515 213.983 163.594 213.983C162.699 213.983 162.172 215.203 162.19 217.65ZM194.211 219.615V221.423H190.79V226.704H188.509V221.423H185.245V226.704H182.946V221.423H179.595V219.615H194.211ZM181.069 214.878C181.06 212.676 183.429 211.272 186.859 211.263C190.289 211.272 192.685 212.676 192.685 214.878C192.685 217.027 190.289 218.396 186.859 218.387C183.429 218.396 181.06 217.027 181.069 214.878ZM183.367 214.878C183.359 216.001 184.719 216.624 186.859 216.633C189.017 216.624 190.368 216.001 190.368 214.878C190.368 213.702 189.017 213.062 186.859 213.053C184.719 213.062 183.359 213.702 183.367 214.878ZM208.511 210.737V226.739H206.282V210.737H208.511ZM195.965 213.878V212.071H203.563V218.229H198.299V221.159C200.738 221.142 202.8 221.019 205.142 220.633L205.335 222.44C202.712 222.905 200.334 223.002 197.422 223.002H195.983V216.457H201.282V213.878H195.965ZM223.302 210.755V215.65H225.46V217.475H223.302V222.668H221.056V210.755H223.302ZM210.634 214.194V212.421H214.266V210.719H216.494V212.421H220.109V214.194H210.634ZM211.406 217.843C211.406 215.992 213.046 214.755 215.371 214.755C217.687 214.755 219.301 215.992 219.301 217.843C219.301 219.686 217.687 220.896 215.371 220.896C213.046 220.896 211.406 219.686 211.406 217.843ZM212.95 226.423V221.756H215.178V224.634H223.881V226.423H212.95ZM213.599 217.843C213.59 218.721 214.301 219.194 215.371 219.194C216.45 219.194 217.178 218.721 217.178 217.843C217.178 216.957 216.45 216.466 215.371 216.457C214.301 216.466 213.59 216.957 213.599 217.843ZM244.883 223.037V224.844H230.267V223.037H236.443V219.475H238.689V223.037H244.883ZM230.864 218.405C234.18 217.87 236.163 215.869 236.356 213.755H231.478V211.948H243.602V213.755H238.742C238.917 215.86 240.918 217.817 244.339 218.317L243.462 220.089C240.663 219.598 238.593 218.238 237.557 216.343C236.549 218.264 234.496 219.677 231.741 220.177L230.864 218.405ZM259.235 210.755V222.423H257.007V217.212H254.147V215.369H257.007V210.755H259.235ZM245.988 219.054C249.296 218.019 251.436 216.106 251.849 213.755H246.813V211.93H254.287C254.287 216.211 251.568 219.379 246.9 220.826L245.988 219.054ZM248.708 226.423V221.247H250.989V224.634H259.639V226.423H248.708ZM268.57 210.965C272.246 210.965 274.369 211.93 274.378 213.685C274.369 215.466 272.246 216.422 268.57 216.422C264.885 216.422 262.744 215.466 262.744 213.685C262.744 211.93 264.885 210.965 268.57 210.965ZM261.288 218.949V217.176H275.851V218.949H261.288ZM262.972 221.51V219.879H274.079V223.949H265.183V224.914H274.5V226.599H262.99V222.388H271.868V221.51H262.972ZM265.096 213.685C265.087 214.466 266.227 214.773 268.57 214.773C270.93 214.773 272.061 214.466 272.061 213.685C272.061 212.974 270.93 212.597 268.57 212.597C266.227 212.597 265.087 212.974 265.096 213.685ZM141.556 237.737V243.861H143.82V245.703H141.556V253.669H139.31V237.737H141.556ZM128.783 249.195C132.564 247.3 134.599 244.755 135.02 241.194H129.695V239.369H137.293C137.275 244.141 135.415 248.274 130.046 250.914L128.783 249.195ZM150.698 240.895C150.689 242.799 151.882 244.747 154.505 245.545L153.365 247.3C151.575 246.729 150.32 245.58 149.601 244.141C148.873 245.721 147.574 246.975 145.697 247.598L144.539 245.843C147.197 244.992 148.417 242.913 148.417 240.895V240.667H145.135V238.877H153.909V240.667H150.698V240.895ZM147.136 253.423V248.247H149.399V251.634H158.26V253.423H147.136ZM155.593 249.3V237.755H157.839V249.3H155.593ZM177.946 237.737V253.704H175.805V245.65H174.367V252.967H172.244V237.965H174.367V243.826H175.805V237.737H177.946ZM164.558 249.686V239.386H170.91V249.686H164.558ZM166.646 247.931H168.822V241.159H166.646V247.931ZM194.176 244.071V245.843H188V246.861H192.404V250.949H183.508V251.914H192.825V253.599H181.315V249.37H190.193V248.545H181.297V246.861H185.754V245.843H179.613V244.071H194.176ZM181.42 243.229V238.193H192.334V243.229H181.42ZM183.613 241.509H190.105V239.93H183.613V241.509Z" fill="#121212"/>
</g>
<g filter="url(#filter2_d_1110_22486)">
<rect x="18.4346" y="305.082" width="383.454" height="99.9436" rx="8.9837" fill="white"/>
<rect x="18.9961" y="305.644" width="382.331" height="98.8207" rx="8.42222" stroke="#EEEFF2" stroke-width="1.12296"/>
<circle cx="75.7053" cy="354.493" r="35.9348" fill="url(#paint3_linear_1110_22486)"/>
<mask id="mask2_1110_22486" style="mask-type:alpha" maskUnits="userSpaceOnUse" x="39" y="318" width="73" height="73">
<circle cx="75.7053" cy="354.493" r="35.9348" fill="url(#paint4_linear_1110_22486)"/>
</mask>
<g mask="url(#mask2_1110_22486)">
<circle cx="75.1434" cy="348.316" r="15.16" fill="#2A7735"/>
<circle cx="75.1436" cy="348.316" r="11.7911" fill="#39B94C"/>
<path d="M77.9094 345.531C77.9708 344.629 77.4297 342.825 74.7733 342.825C72.1169 342.825 71.6987 344.916 71.8217 345.961C71.9242 346.535 72.658 347.806 74.7733 348.298C77.4174 348.913 78.2168 350.02 78.2168 351.249C78.2168 352.479 76.987 353.463 74.7733 353.34C72.5596 353.217 71.8217 351.987 71.8217 350.819" stroke="#2A7735" stroke-width="1.53938" stroke-linecap="round" stroke-linejoin="round"/>
<path d="M74.8965 355.616V340.92" stroke="#2A7735" stroke-width="1.47524" stroke-linecap="round" stroke-linejoin="round"/>
<rect x="59.9834" y="373.583" width="30.32" height="7.86073" fill="#2A7735"/>
<rect x="59.9834" y="364.599" width="30.32" height="7.86073" fill="#39B94C"/>
<rect x="59.9834" y="382.567" width="30.32" height="7.86073" fill="#39B94C"/>
</g>
<path d="M137.433 347.886C137.424 349.772 139.354 351.851 143.013 352.307L142.135 354.115C139.346 353.711 137.301 352.421 136.257 350.693C135.205 352.413 133.169 353.711 130.414 354.115L129.52 352.307C133.152 351.851 135.073 349.772 135.082 347.886V347.114H137.433V347.886ZM128.958 357.15V355.325H143.522V357.15H137.31V362.607H135.099V357.15H128.958ZM157.839 356.764V362.607H155.593V358.554H146.855V356.764H157.839ZM144.714 351.395C144.714 349.14 146.592 347.508 149.083 347.517C151.566 347.508 153.444 349.14 153.452 351.395C153.444 353.702 151.566 355.317 149.083 355.308C146.592 355.317 144.714 353.702 144.714 351.395ZM146.908 351.395C146.89 352.685 147.802 353.422 149.083 353.413C150.329 353.422 151.233 352.685 151.241 351.395C151.233 350.149 150.329 349.421 149.083 349.43C147.802 349.421 146.89 350.149 146.908 351.395ZM155.593 356.01V346.64H157.839V356.01H155.593ZM169.086 348.324V350.079H165.857C165.883 351.711 167.024 353.343 169.594 354.009L168.577 355.764C166.761 355.281 165.506 354.273 164.787 352.992C164.085 354.448 162.804 355.606 160.927 356.168L159.856 354.413C162.427 353.711 163.611 351.904 163.629 350.079H160.418V348.324H163.629V346.57H165.892V348.324H169.086ZM161.944 359.607C161.936 357.668 164.015 356.571 167.419 356.571C170.753 356.571 172.797 357.668 172.805 359.607C172.797 361.493 170.753 362.589 167.419 362.589C164.015 362.589 161.936 361.493 161.944 359.607ZM164.19 359.607C164.173 360.475 165.296 360.905 167.419 360.905C169.489 360.905 170.595 360.475 170.595 359.607C170.595 358.694 169.489 358.291 167.419 358.291C165.296 358.291 164.173 358.694 164.19 359.607ZM170.402 356.273V346.64H172.648V350.43H174.806V352.237H172.648V356.273H170.402ZM190.018 353.448V355.08H183.877V356.08H188.281V359.975H179.385V360.852H188.702V362.502H177.192V358.466H186.07V357.677H177.174V356.08H181.648V355.08H175.525V353.448H190.018ZM176.086 351.36C179.28 351.219 180.903 350.456 181.368 349.535H176.893V347.886H181.648V346.622H183.859V347.886H188.649V349.535H184.131C184.587 350.456 186.219 351.219 189.439 351.36L188.79 353.009C185.824 352.86 183.763 352.114 182.754 350.912C181.745 352.114 179.692 352.86 176.7 353.009L176.086 351.36ZM204.844 346.64V362.607H202.703V346.64H204.844ZM191.14 353.553C191.14 349.982 192.5 347.772 194.615 347.78C196.536 347.772 197.852 349.57 198.098 352.553H199.405V346.868H201.51V361.87H199.405V354.325H198.115C197.922 357.457 196.58 359.361 194.615 359.361C192.5 359.361 191.14 357.141 191.14 353.553ZM193.211 353.553C193.193 356.01 193.72 357.22 194.615 357.203C195.536 357.22 196.08 356.01 196.071 353.553C196.08 351.105 195.536 349.886 194.615 349.886C193.72 349.886 193.193 351.105 193.211 353.553ZM225.232 355.518V357.326H221.811V362.607H219.53V357.326H216.266V362.607H213.967V357.326H210.616V355.518H225.232ZM212.09 350.781C212.081 348.579 214.45 347.175 217.88 347.166C221.31 347.175 223.706 348.579 223.706 350.781C223.706 352.93 221.31 354.299 217.88 354.29C214.45 354.299 212.081 352.93 212.09 350.781ZM214.388 350.781C214.38 351.904 215.74 352.527 217.88 352.535C220.038 352.527 221.389 351.904 221.389 350.781C221.389 349.605 220.038 348.965 217.88 348.956C215.74 348.965 214.38 349.605 214.388 350.781ZM239.532 346.64V362.642H237.303V346.64H239.532ZM226.986 349.781V347.973H234.584V354.132H229.32V357.062C231.759 357.045 233.821 356.922 236.163 356.536L236.356 358.343C233.733 358.808 231.355 358.905 228.443 358.905H227.004V352.36H232.303V349.781H226.986ZM254.323 346.657V351.553H256.481V353.378H254.323V358.571H252.077V346.657H254.323ZM241.655 350.097V348.324H245.287V346.622H247.515V348.324H251.13V350.097H241.655ZM242.427 353.746C242.427 351.895 244.067 350.658 246.392 350.658C248.708 350.658 250.322 351.895 250.322 353.746C250.322 355.589 248.708 356.799 246.392 356.799C244.067 356.799 242.427 355.589 242.427 353.746ZM243.971 362.326V357.659H246.199V360.537H254.902V362.326H243.971ZM244.62 353.746C244.611 354.623 245.322 355.097 246.392 355.097C247.471 355.097 248.199 354.623 248.199 353.746C248.199 352.86 247.471 352.369 246.392 352.36C245.322 352.369 244.611 352.86 244.62 353.746ZM275.132 346.64V362.607H272.991V354.553H271.553V361.87H269.429V346.868H271.553V352.728H272.991V346.64H275.132ZM261.744 358.589V348.289H268.096V358.589H261.744ZM263.832 356.834H266.008V350.061H263.832V356.834ZM291.362 352.974V354.746H285.186V355.764H289.59V359.852H280.694V360.817H290.011V362.502H278.5V358.273H287.379V357.448H278.483V355.764H282.94V354.746H276.798V352.974H291.362ZM278.606 352.132V347.096H289.52V352.132H278.606ZM280.799 350.412H287.291V348.833H280.799V350.412Z" fill="#121212"/>
</g>
<defs>
<filter id="filter0_d_1110_22486" x="-0.000696182" y="41.8414" width="420.324" height="136.814" filterUnits="userSpaceOnUse" color-interpolation-filters="sRGB">
<feFlood flood-opacity="0" result="BackgroundImageFix"/>
<feColorMatrix in="SourceAlpha" type="matrix" values="0 0 0 0 0 0 0 0 0 0 0 0 0 0 0 0 0 0 127 0" result="hardAlpha"/>
<feOffset/>
<feGaussianBlur stdDeviation="9.21763"/>
<feComposite in2="hardAlpha" operator="out"/>
<feColorMatrix type="matrix" values="0 0 0 0 0 0 0 0 0 0 0 0 0 0 0 0 0 0 0.08 0"/>
<feBlend mode="normal" in2="BackgroundImageFix" result="effect1_dropShadow_1110_22486"/>
<feBlend mode="normal" in="SourceGraphic" in2="effect1_dropShadow_1110_22486" result="shape"/>
</filter>
<filter id="filter1_d_1110_22486" x="-0.000696182" y="164.244" width="420.324" height="136.814" filterUnits="userSpaceOnUse" color-interpolation-filters="sRGB">
<feFlood flood-opacity="0" result="BackgroundImageFix"/>
<feColorMatrix in="SourceAlpha" type="matrix" values="0 0 0 0 0 0 0 0 0 0 0 0 0 0 0 0 0 0 127 0" result="hardAlpha"/>
<feOffset/>
<feGaussianBlur stdDeviation="9.21763"/>
<feComposite in2="hardAlpha" operator="out"/>
<feColorMatrix type="matrix" values="0 0 0 0 0 0 0 0 0 0 0 0 0 0 0 0 0 0 0.08 0"/>
<feBlend mode="normal" in2="BackgroundImageFix" result="effect1_dropShadow_1110_22486"/>
<feBlend mode="normal" in="SourceGraphic" in2="effect1_dropShadow_1110_22486" result="shape"/>
</filter>
<filter id="filter2_d_1110_22486" x="-0.000696182" y="286.647" width="420.324" height="136.814" filterUnits="userSpaceOnUse" color-interpolation-filters="sRGB">
<feFlood flood-opacity="0" result="BackgroundImageFix"/>
<feColorMatrix in="SourceAlpha" type="matrix" values="0 0 0 0 0 0 0 0 0 0 0 0 0 0 0 0 0 0 127 0" result="hardAlpha"/>
<feOffset/>
<feGaussianBlur stdDeviation="9.21763"/>
<feComposite in2="hardAlpha" operator="out"/>
<feColorMatrix type="matrix" values="0 0 0 0 0 0 0 0 0 0 0 0 0 0 0 0 0 0 0.08 0"/>
<feBlend mode="normal" in2="BackgroundImageFix" result="effect1_dropShadow_1110_22486"/>
<feBlend mode="normal" in="SourceGraphic" in2="effect1_dropShadow_1110_22486" result="shape"/>
</filter>
<linearGradient id="paint0_linear_1110_22486" x1="75.7053" y1="73.7522" x2="75.7053" y2="145.622" gradientUnits="userSpaceOnUse">
<stop stop-color="#F0FFD7"/>
<stop offset="1" stop-color="#D7EFAE"/>
</linearGradient>
<linearGradient id="paint1_linear_1110_22486" x1="75.7053" y1="196.155" x2="75.7053" y2="268.025" gradientUnits="userSpaceOnUse">
<stop stop-color="#F0FFD7"/>
<stop offset="1" stop-color="#D7EFAE"/>
</linearGradient>
<linearGradient id="paint2_linear_1110_22486" x1="75.7053" y1="196.155" x2="75.7053" y2="268.025" gradientUnits="userSpaceOnUse">
<stop stop-color="#F0FFD7"/>
<stop offset="1" stop-color="#D7EFAE"/>
</linearGradient>
<linearGradient id="paint3_linear_1110_22486" x1="75.7053" y1="318.558" x2="75.7053" y2="390.428" gradientUnits="userSpaceOnUse">
<stop stop-color="#F0FFD7"/>
<stop offset="1" stop-color="#D7EFAE"/>
</linearGradient>
<linearGradient id="paint4_linear_1110_22486" x1="75.7053" y1="318.558" x2="75.7053" y2="390.428" gradientUnits="userSpaceOnUse">
<stop stop-color="#F0FFD7"/>
<stop offset="1" stop-color="#D7EFAE"/>
</linearGradient>
</defs>
</svg>
