<svg width="18" height="19" viewBox="0 0 18 19" fill="none" xmlns="http://www.w3.org/2000/svg">
<path d="M16.2 17.0005C16.3657 17.0005 16.5 16.8662 16.5 16.7005V8.14468C16.5 8.05354 16.4586 7.96735 16.3874 7.91041L9.18741 2.15042C9.07784 2.06276 8.92216 2.06276 8.81259 2.15042L1.61259 7.91041C1.54143 7.96735 1.5 8.05354 1.5 8.14468L1.5 16.7005C1.5 16.8662 1.63431 17.0005 1.8 17.0005H5.7C5.86568 17.0005 6 16.8662 6 16.7005V11.5505C6 11.3848 6.13431 11.2505 6.3 11.2505H11.7C11.8657 11.2505 12 11.3848 12 11.5505V16.7005C12 16.8662 12.1343 17.0005 12.3 17.0005H16.2Z" stroke="white" stroke-width="1.5" stroke-linejoin="round"/>
</svg>
