<svg width="24" height="24" viewBox="0 0 24 24" fill="none" xmlns="http://www.w3.org/2000/svg">
<circle cx="12" cy="12" r="12" fill="#39B94C"/>
<path d="M17.1438 17.2943C17.2264 17.2943 17.2933 17.2274 17.2933 17.1448V11.0132C17.2933 10.9678 17.2727 10.9248 17.2372 10.8965L12.0926 6.78076C12.038 6.73708 11.9604 6.73708 11.9058 6.78076L6.76118 10.8965C6.72572 10.9248 6.70508 10.9678 6.70508 11.0132L6.70508 17.1448C6.70508 17.2274 6.772 17.2943 6.85456 17.2943H9.73207C9.81462 17.2943 9.88155 17.2274 9.88155 17.1448V13.3849C9.88155 13.3024 9.94847 13.2355 10.031 13.2355H13.9674C14.0499 13.2355 14.1168 13.3024 14.1168 13.3849V17.1448C14.1168 17.2274 14.1838 17.2943 14.2663 17.2943H17.1438Z" stroke="white" stroke-width="0.747405" stroke-linejoin="round"/>
</svg>
