<svg width="88" height="88" viewBox="0 0 88 88" fill="none" xmlns="http://www.w3.org/2000/svg">
<circle cx="44" cy="44" r="44" transform="rotate(-90 44 44)" fill="#39B94C"/>
<mask id="mask0_677_5594" style="mask-type:alpha" maskUnits="userSpaceOnUse" x="0" y="0" width="88" height="88">
<circle cx="44" cy="44" r="44" fill="#2A7735"/>
</mask>
<g mask="url(#mask0_677_5594)">
<path d="M12.895 39.3936L-34.3799 61.7436L44.6333 134L56.9066 118.207L87.8599 68.7627L12.895 39.3936Z" fill="#C4F568"/>
<path d="M2.17209 45.8731L-33.9426 54.1582L23.6768 144.403L39.6196 132.324L82.3152 92.5762L2.17209 45.8731Z" fill="#339C43"/>
<path d="M-0.157503 54.5655L-36.2722 62.8506L21.3472 153.095L37.2901 141.016L79.9857 101.269L-0.157503 54.5655Z" fill="#F5EBFF"/>
<path d="M71.3981 37.7841L130.168 52.5998L51.1546 124.857L38.8812 109.063L9.11121 75.3306L71.3981 37.7841Z" fill="#FF822F"/>
<path d="M83.5704 47.8131L123.627 69.2938L44.6137 141.551L32.3403 125.757L21.5009 77.001L83.5704 47.8131Z" fill="#FFF6F1"/>
<path d="M72.071 63.8128L123.628 78.2932L44.6144 150.55L32.3411 134.756L2.57105 101.024L2.57084 82.5013L72.071 63.8128Z" fill="#C4F568"/>
</g>
<circle cx="44.501" cy="27.501" r="4.5" transform="rotate(-90 44.501 27.501)" fill="#F5EBFF"/>
</svg>
