<svg width="88" height="88" viewBox="0 0 88 88" fill="none" xmlns="http://www.w3.org/2000/svg">
<circle cx="44" cy="44" r="44" fill="#CEF685"/>
<mask id="mask0_1356_4625" style="mask-type:alpha" maskUnits="userSpaceOnUse" x="0" y="0" width="88" height="88">
<circle cx="44" cy="44" r="44" fill="#D9D9D9"/>
</mask>
<g mask="url(#mask0_1356_4625)">
<path d="M83.1426 12.1035L79.8945 17.7295L92.3691 23.3291L75.6973 52.2051L63.8018 43.709L52.2041 46.8174C51.9644 50.1752 49.6395 53.164 46.2051 54.085L42 38.3916C45.3186 37.503 48.7067 38.8043 50.6338 41.4082L57.8672 39.4697L48.4365 32.7344L50.5576 29.0586L43.4727 24.9678L52.3193 9.64551L59.4043 13.7363L61.791 9.60352L70.5342 13.5283L74.3027 7L83.1426 12.1035ZM47.1914 23.9717L51.9189 26.7012L58.0439 16.0928L53.3164 13.3643L47.1914 23.9717ZM73.0303 14.6484L77.3984 16.6094L79.4248 13.0996L75.2998 10.7178L73.0303 14.6484Z" fill="#B969FF"/>
<rect x="-7" y="62" width="102" height="30" fill="#9DDA2B"/>
</g>
<circle cx="31.3924" cy="63.3924" r="2.3924" fill="#D4AEF6"/>
<circle cx="36.3924" cy="49.3924" r="2.3924" fill="#D4AEF6"/>
<circle cx="24.3924" cy="57.3924" r="2.3924" fill="#D4AEF6"/>
<circle cx="27.3924" cy="46.3924" r="2.3924" fill="#D4AEF6"/>
<circle cx="16.5721" cy="68.6092" r="2.3924" fill="#D4AEF6"/>
<circle cx="14.3924" cy="54.3924" r="2.3924" fill="#D4AEF6"/>
</svg>
