<svg width="88" height="88" viewBox="0 0 88 88" fill="none" xmlns="http://www.w3.org/2000/svg">
<circle cx="44" cy="44" r="44" fill="#C4F568"/>
<mask id="mask0_677_7721" style="mask-type:alpha" maskUnits="userSpaceOnUse" x="0" y="0" width="88" height="88">
<circle cx="44" cy="44" r="44" fill="#D9D9D9"/>
</mask>
<g mask="url(#mask0_677_7721)">
<ellipse cx="37.7303" cy="86.694" rx="5.4139" ry="13.148" transform="rotate(15 37.7303 86.694)" fill="#FAB617"/>
<ellipse cx="23.683" cy="78.9385" rx="4.6555" ry="11.6388" transform="rotate(-20.9345 23.683 78.9385)" fill="#FAB617"/>
<rect x="29.0977" y="47.8438" width="3.09365" height="102.091" fill="#39B94C"/>
<path d="M44.9214 40.6012L31 60.71L32.5468 39.0544L42.6012 29L63.4834 50.6556L44.9214 40.6012Z" fill="#39B94C"/>
<path d="M30.6441 25.4139L29.8707 20.7734L23.6834 23.0937L17.4961 22.3203" stroke="#AF8B37" stroke-width="0.618731"/>
<path d="M31.418 25.4139L32.9648 20L37.6053 23.8671L39.9255 26.1873" stroke="#AF8B37" stroke-width="0.618731"/>
<path d="M29.0979 25.414L26.7776 23.0938L23.684 28.5076H20.5903V33.1481" stroke="#DCB250" stroke-width="0.618731"/>
<path d="M32.1912 25.414L34.5114 23.0938L37.6051 29.2811L39.1519 30.8279L41.4722 35.4684" stroke="#DCB250" stroke-width="0.618731"/>
<ellipse cx="30.6443" cy="40.1099" rx="6.18731" ry="15.4683" fill="#FAB617"/>
<path d="M29.8714 47.8439V67.1793L24.4575 57.1249L15.95 43.9768L8.98926 21.5479L15.95 26.9617L21.3639 39.3364L29.8714 47.8439Z" fill="#4BE662"/>
<path d="M29.8708 84.9671V104.302L24.4569 94.2481L12.0822 81.8735L2.80127 64.085L14.4025 68.7254L22.1366 81.8735L29.8708 84.9671Z" fill="#4BE662"/>
<path d="M29.0428 114.031L32.2443 96.465L40.9287 94.0296L44.806 79.8555L57.4246 77.6944L52.6039 83.5922L49.1348 96.2743L41.5342 100.61L40.5139 104.34L29.0428 114.031Z" fill="#39B94C"/>
<path d="M36.201 65.6835L39.4824 60.0001" stroke="#B969FF" stroke-width="2.01088"/>
<path d="M46.8842 37.3662L50.1655 31.6827" stroke="#B969FF" stroke-width="2.01088"/>
<path d="M40.201 52.6835L43.4824 47.0001" stroke="#B969FF" stroke-width="2.01088"/>
<path d="M48.392 55.7852L51.292 49.898" stroke="#B969FF" stroke-width="2.01088"/>
<path d="M18.2767 62.7587L21.558 57.0753" stroke="#B969FF" stroke-width="2.01088"/>
<path d="M14.201 53.6835L17.4824 48.0001" stroke="#B969FF" stroke-width="2.01088"/>
<path d="M24.4153 73.8344L27.4194 67.9997" stroke="#B969FF" stroke-width="2.01088"/>
<rect x="73.0303" y="21.6611" width="2.61239" height="22.2204" transform="rotate(-57.1056 73.0303 21.6611)" fill="#14411A"/>
<circle cx="60.6555" cy="11.7341" r="7.73414" fill="#2A7735"/>
<path d="M61.183 10.7968L56.9127 31.227L43.6577 22.1322L61.183 10.7968Z" fill="#2A7735"/>
<rect x="62.2021" y="17.2773" width="6.60277" height="13.0903" transform="rotate(-57.1056 62.2021 17.2773)" fill="#2A7735"/>
</g>
</svg>
