<svg width="29" height="29" viewBox="0 0 29 29" fill="none" xmlns="http://www.w3.org/2000/svg">
<path d="M14.808 3.10312C18.5508 3.10312 18.9941 3.11953 20.466 3.18516C21.834 3.24531 22.5727 3.475 23.0652 3.66641C23.7164 3.91797 24.1869 4.22422 24.6739 4.71094C25.1664 5.20313 25.4674 5.66797 25.7191 6.31875C25.9106 6.81094 26.1404 7.55469 26.2006 8.91641C26.2663 10.393 26.2827 10.8359 26.2827 14.5711C26.2827 18.3117 26.2663 18.7547 26.2006 20.2258C26.1404 21.593 25.9106 22.3313 25.7191 22.8234C25.4674 23.4742 25.161 23.9445 24.6739 24.4313C24.1815 24.9234 23.7164 25.2242 23.0652 25.4758C22.5727 25.6672 21.8285 25.8969 20.466 25.957C18.9886 26.0227 18.5454 26.0391 14.808 26.0391C11.0652 26.0391 10.622 26.0227 9.15001 25.957C7.78202 25.8969 7.04331 25.6672 6.55083 25.4758C5.89967 25.2242 5.42908 24.918 4.94208 24.4313C4.4496 23.9391 4.14864 23.4742 3.89693 22.8234C3.70541 22.3313 3.47559 21.5875 3.4154 20.2258C3.34974 18.7492 3.33332 18.3063 3.33332 14.5711C3.33332 10.8305 3.34974 10.3875 3.4154 8.91641C3.47559 7.54922 3.70541 6.81094 3.89693 6.31875C4.14864 5.66797 4.45507 5.19766 4.94208 4.71094C5.43455 4.21875 5.89967 3.91797 6.55083 3.66641C7.04331 3.475 7.78749 3.24531 9.15001 3.18516C10.622 3.11953 11.0652 3.10312 14.808 3.10312ZM14.808 0.582031C11.005 0.582031 10.5289 0.598437 9.0351 0.664063C7.54673 0.729688 6.52347 0.970312 5.63701 1.31484C4.71225 1.67578 3.92976 2.15156 3.15275 2.93359C2.37026 3.71016 1.8942 4.49219 1.53305 5.41094C1.18831 6.30234 0.947548 7.31953 0.881884 8.80703C0.816221 10.3055 0.799805 10.7813 0.799805 14.582C0.799805 18.3828 0.816221 18.8586 0.881884 20.3516C0.947548 21.8391 1.18831 22.8617 1.53305 23.7477C1.8942 24.6719 2.37026 25.4539 3.15275 26.2305C3.92976 27.007 4.71225 27.4883 5.63154 27.8438C6.52347 28.1883 7.54125 28.4289 9.02963 28.4945C10.5235 28.5602 10.9995 28.5766 14.8025 28.5766C18.6055 28.5766 19.0816 28.5602 20.5755 28.4945C22.0638 28.4289 23.0871 28.1883 23.9735 27.8438C24.8928 27.4883 25.6753 27.007 26.4523 26.2305C27.2294 25.4539 27.7109 24.6719 28.0666 23.7531C28.4113 22.8617 28.6521 21.8445 28.7177 20.357C28.7834 18.8641 28.7998 18.3883 28.7998 14.5875C28.7998 10.7867 28.7834 10.3109 28.7177 8.81797C28.6521 7.33047 28.4113 6.30781 28.0666 5.42188C27.7218 4.49219 27.2458 3.71016 26.4633 2.93359C25.6863 2.15703 24.9038 1.67578 23.9845 1.32031C23.0926 0.975781 22.0748 0.735156 20.5864 0.669531C19.0871 0.598438 18.611 0.582031 14.808 0.582031Z" fill="#B1B4BC"/>
<path d="M14.8079 7.39062C10.8353 7.39062 7.6123 10.6117 7.6123 14.582C7.6123 18.5523 10.8353 21.7734 14.8079 21.7734C18.7806 21.7734 22.0035 18.5523 22.0035 14.582C22.0035 10.6117 18.7806 7.39062 14.8079 7.39062ZM14.8079 19.2469C12.2306 19.2469 10.1403 17.1578 10.1403 14.582C10.1403 12.0062 12.2306 9.91719 14.8079 9.91719C17.3852 9.91719 19.4755 12.0062 19.4755 14.582C19.4755 17.1578 17.3852 19.2469 14.8079 19.2469Z" fill="#B1B4BC"/>
<path d="M23.9682 7.10664C23.9682 8.03633 23.2131 8.78555 22.2883 8.78555C21.3581 8.78555 20.6084 8.03086 20.6084 7.10664C20.6084 6.17695 21.3635 5.42773 22.2883 5.42773C23.2131 5.42773 23.9682 6.18242 23.9682 7.10664Z" fill="#B1B4BC"/>
</svg>
