<svg width="171" height="182" viewBox="0 0 171 182" fill="none" xmlns="http://www.w3.org/2000/svg">
<g clip-path="url(#clip0_911_17840)">
<path d="M1932 3117.5V3123.5H1938V3117.5H1932ZM1932 -425L1897.36 -365H1966.64L1932 -425ZM-6375 3117.5V3123.5H1932V3117.5V3111.5H-6375V3117.5ZM1932 3117.5H1938V-371H1932H1926V3117.5H1932Z" fill="#39B94C"/>
<path d="M-14942.3 -6178C-14942.3 -6170.64 -14936.4 -6164.67 -14929 -6164.67C-14921.6 -6164.67 -14915.7 -6170.64 -14915.7 -6178C-14915.7 -6185.36 -14921.6 -6191.33 -14929 -6191.33C-14936.4 -6191.33 -14942.3 -6185.36 -14942.3 -6178ZM-14929 4394H-14931.5V4396.5H-14929V4394ZM-3422.94 4394V4396.5H-3420.44V4394H-3422.94ZM-3422.94 -3159V-3161.5H-3425.44V-3159H-3422.94ZM717 -3159L692 -3173.43V-3144.57L717 -3159ZM-14929 -6178H-14931.5V4394H-14929H-14926.5V-6178H-14929ZM-14929 4394V4396.5H-3422.94V4394V4391.5H-14929V4394ZM-3422.94 4394H-3420.44V-3159H-3422.94H-3425.44V4394H-3422.94ZM-3422.94 -3159V-3156.5H694.5V-3159V-3161.5H-3422.94V-3159Z" fill="#FF5E5E"/>
<rect width="171" height="182" rx="8" fill="#339C43"/>
<path d="M166.496 102.259L184.723 136.678C184.971 136.844 185.221 137.015 185.471 137.193L197.844 160.562L198.411 161.631L197.229 161.888L117.785 179.165L116.987 179.339L116.723 178.565L112.795 167.04C113 166.958 113.209 166.878 113.422 166.801L101.707 132.372L166.496 102.259ZM49.232 123.312L61.5831 127.904L61.5809 127.904L67.5784 130.134L67.5805 130.134L82.2139 135.573L82.2117 135.574L88.6383 137.963L88.6396 137.963L90.5934 138.689L90.5925 138.689L90.5939 138.69L103.639 187.376L62.7203 198.341L40.7114 176.554L21.343 130.786L21.3425 130.786L49.232 123.312ZM136.702 65.4707L152.187 92.2913L92.9789 126.475L57.9662 110.929L60.8856 70.8877L136.702 65.4707Z" fill="#2B3F0A" fill-opacity="0.23"/>
<rect width="171" height="182" rx="8" fill="url(#paint0_linear_911_17840)"/>
</g>
<path d="M21.6367 16.5078V19.8828H23.1602V20.8086H21.6367V24.3594H20.5234V16.5078H21.6367ZM13.3984 18.6289V17.7266H15.9766V16.4961H17.0898V17.7266H19.6562V18.6289H13.3984ZM13.9727 21.1133C13.9668 19.9121 15.0039 19.127 16.5273 19.1328C18.0332 19.127 19.0703 19.9121 19.0703 21.1133C19.0703 22.3027 18.0332 23.0762 16.5273 23.082C15.0039 23.0762 13.9668 22.3027 13.9727 21.1133ZM14.9805 26.7734V23.7383H16.0938V25.8711H22.082V26.7734H14.9805ZM15.0508 21.1133C15.0391 21.7988 15.6367 22.2207 16.5273 22.2148C17.418 22.2207 18.0156 21.7988 18.0273 21.1133C18.0156 20.4219 17.418 19.9941 16.5273 19.9883C15.6367 19.9941 15.0391 20.4219 15.0508 21.1133ZM35.1596 19.5781V20.4688H27.9526V16.8594H29.0658V19.5781H35.1596ZM26.6635 22.4961V21.6055H36.2494V22.4961H32.0893V24.5703H30.9877V22.4961H26.6635ZM27.8588 26.7734V23.6797H28.9604V25.8711H35.2416V26.7734H27.8588ZM46.0578 16.4961V26.9961H44.9913V16.4961H46.0578ZM37.1398 21.0312C37.1398 18.7578 38.0304 17.334 39.4015 17.3398C40.6788 17.334 41.5402 18.5469 41.6691 20.5156H42.8585V16.6953H43.9249V26.4805H42.8585V21.418H41.6749C41.5753 23.4688 40.7023 24.7402 39.4015 24.7344C38.0304 24.7402 37.1398 23.3105 37.1398 21.0312ZM38.171 21.0312C38.171 22.7012 38.6456 23.6855 39.4015 23.6797C40.1749 23.6855 40.6554 22.7012 40.6554 21.0312C40.6554 19.3555 40.1749 18.377 39.4015 18.3828C38.6456 18.377 38.171 19.3555 38.171 21.0312ZM59.9087 24.7695V25.6953H50.2994V24.7695H54.5298V22.6133H51.4009V17.2109H52.5142V19.0156H57.6705V17.2109H58.772V22.6133H55.6314V24.7695H59.9087ZM52.5142 21.7109H57.6705V19.918H52.5142V21.7109ZM69.1546 19.5664V20.457H61.9241V16.8711H63.0257V19.5664H69.1546ZM60.6468 22.6719V21.7812H70.2561V22.6719H60.6468ZM61.8421 26.75V23.668H62.9553V25.8359H69.2249V26.75H61.8421ZM82.9704 16.4961V26.9961H81.904V21.5234H80.6032V26.4805H79.5485V16.6953H80.6032V20.6094H81.904V16.4961H82.9704ZM74.2868 24.2305V17.6797H78.3649V24.2305H74.2868ZM75.3415 23.3398H77.322V18.5586H75.3415V23.3398ZM93.8686 20.8438V21.7344H89.6264V22.6484H92.6615V25.1094H86.5443V26.0352H92.9545V26.8906H85.4545V24.3008H91.56V23.5039H85.4428V22.6484H88.5131V21.7344H84.2943V20.8438H93.8686ZM85.5248 20.0703V16.8359H92.6381V20.0703H85.5248ZM86.6147 19.1914H91.5248V17.7148H86.6147V19.1914ZM106.325 16.5078V24.5117H105.212V22.3438H103.524V21.4531H105.212V20.1523H103.524V19.2383H105.212V16.5078H106.325ZM97.5828 18.6289V17.7266H100.044V16.4961H101.145V17.7266H103.489V18.6289H97.5828ZM98.1688 21.1484C98.1688 19.9473 99.1649 19.127 100.583 19.1328C101.995 19.127 103.003 19.9473 103.009 21.1484C103.003 22.3555 101.995 23.1758 100.583 23.1758C99.1649 23.1758 98.1688 22.3555 98.1688 21.1484ZM99.2117 21.1484C99.2059 21.8633 99.7684 22.3086 100.583 22.3086C101.386 22.3086 101.954 21.8633 101.966 21.1484C101.954 20.457 101.386 20.0117 100.583 20C99.7684 20.0117 99.2059 20.457 99.2117 21.1484ZM99.4696 26.7734V23.8086H100.595V25.8711H106.559V26.7734H99.4696ZM116.192 16.5078V19.6016H117.692V20.5273H116.192V23.6094H115.079V16.5078H116.192ZM107.86 22.3203C108.674 22.3262 109.618 22.3262 110.602 22.2969V21.5293C109.395 21.4062 108.645 20.8672 108.657 20.0586C108.645 19.1211 109.629 18.5645 111.153 18.5703C112.665 18.5645 113.643 19.1211 113.649 20.0586C113.643 20.8613 112.905 21.4004 111.715 21.5293V22.25C112.653 22.2031 113.602 22.127 114.481 22.0039L114.575 22.7773C112.325 23.1641 109.84 23.1992 107.977 23.1992L107.86 22.3203ZM108.129 18.1836V17.3516H110.602V16.4141H111.715V17.3516H114.188V18.1836H108.129ZM109.254 25.3672C109.254 24.3066 110.532 23.7207 112.758 23.7266C114.967 23.7207 116.251 24.3066 116.262 25.3672C116.251 26.4219 114.967 26.9902 112.758 26.9961C110.532 26.9902 109.254 26.4219 109.254 25.3672ZM109.711 20.0586C109.711 20.5332 110.256 20.8086 111.153 20.8086C112.038 20.8086 112.588 20.5332 112.583 20.0586C112.588 19.6016 112.038 19.3203 111.153 19.3203C110.256 19.3203 109.711 19.6016 109.711 20.0586ZM110.379 25.3672C110.368 25.877 111.194 26.1699 112.758 26.1641C114.305 26.1699 115.126 25.877 115.126 25.3672C115.126 24.834 114.305 24.541 112.758 24.5469C111.194 24.541 110.368 24.834 110.379 25.3672Z" fill="#F3F5FA"/>
<path d="M25.0156 41.5781V43.1562H20.8906V46.1875H26.4375V47.8125H13.4219V46.1875H18.9062V43.1562H14.9531V36.2188H24.9062V37.8125H16.9531V41.5781H25.0156ZM32.7653 38.4375C32.7574 41.0469 33.9449 43.6641 36.359 44.6875L35.1871 46.2812C33.5621 45.5469 32.4371 44.125 31.7887 42.3672C31.1481 44.2891 29.984 45.8359 28.2496 46.625L27.0465 44.9688C29.5309 43.9219 30.7418 41.1953 30.7496 38.4375V36.3125H32.7653V38.4375ZM37.1246 49.4688V35.2188H39.1403V49.4688H37.1246ZM53.0305 35.2188V42.5312H51.0461V41.1094H48.4211V42.125H41.6555V35.8281H43.6555V37.4844H46.4524V35.8281H48.4211V37.0312H51.0461V35.2188H53.0305ZM43.5618 44.5938V43.0625H53.0305V46.8594H45.5774V47.7188H53.4524V49.2812H43.5774V45.4062H51.0461V44.5938H43.5618ZM43.6555 40.5625H46.4524V39H43.6555V40.5625ZM48.4211 39.6094H51.0461V38.5156H48.4211V39.6094ZM70.8579 35.2188V49.4375H68.9516V42.2656H67.6704V48.7812H65.7798V35.4219H67.6704V40.6406H68.9516V35.2188H70.8579ZM58.936 45.8594V36.6875H64.5923V45.8594H58.936ZM60.7954 44.2969H62.7329V38.2656H60.7954V44.2969ZM85.3106 40.8594V42.4375H79.8106V43.3438H83.7325V46.9844H75.8106V47.8438H84.1075V49.3438H73.8575V45.5781H81.7637V44.8438H73.8419V43.3438H77.8106V42.4375H72.3419V40.8594H85.3106ZM73.9512 40.1094V35.625H83.67V40.1094H73.9512ZM75.9044 38.5781H81.6856V37.1719H75.9044V38.5781ZM101.81 35.2344V46.0625H99.8255V43.375H97.9036V41.7969H99.8255V40.375H97.9036V38.7656H99.8255V35.2344H101.81ZM89.8568 38.2969V36.7188H92.9193V35.2031H94.9036V36.7188H97.763V38.2969H89.8568ZM90.5599 41.5938C90.5443 39.9531 91.9583 38.7969 93.888 38.7969C95.8411 38.7969 97.2474 39.9531 97.263 41.5938C97.2474 43.2344 95.8411 44.375 93.888 44.375C91.9583 44.375 90.5443 43.2344 90.5599 41.5938ZM92.3411 49.1875V45.1406H94.3568V47.5938H102.107V49.1875H92.3411ZM92.4193 41.5938C92.4114 42.4141 93.0208 42.8594 93.888 42.8594C94.7474 42.8594 95.3802 42.4141 95.388 41.5938C95.3802 40.7969 94.7474 40.3516 93.888 40.3438C93.0208 40.3516 92.4114 40.7969 92.4193 41.5938ZM115.013 35.2344V39.2656H116.825V40.9062H115.013V44.8281H113.013V35.2344H115.013ZM103.481 42.9375C104.52 42.9375 105.7 42.9297 106.935 42.8984V42.0625C105.38 41.8516 104.427 41.1328 104.435 40.0781C104.427 38.8125 105.794 38.0391 107.919 38.0469C110.028 38.0391 111.395 38.8125 111.403 40.0781C111.395 41.1328 110.45 41.8516 108.919 42.0625V42.8203C110.083 42.7656 111.255 42.6719 112.356 42.5312L112.497 43.875C109.474 44.3984 106.2 44.4375 103.685 44.4375L103.481 42.9375ZM103.856 37.7031V36.2344H106.935V35.1094H108.919V36.2344H111.997V37.7031H103.856ZM105.356 47.2031C105.356 45.75 107.114 44.9375 110.216 44.9531C113.294 44.9375 115.06 45.75 115.06 47.2031C115.06 48.6719 113.294 49.4531 110.216 49.4531C107.114 49.4531 105.356 48.6719 105.356 47.2031ZM106.341 40.0781C106.333 40.5781 106.903 40.8203 107.919 40.8281C108.919 40.8203 109.489 40.5781 109.497 40.0781C109.489 39.6094 108.919 39.3516 107.919 39.3438C106.903 39.3516 106.333 39.6094 106.341 40.0781ZM107.356 47.2031C107.349 47.7422 108.247 48.0078 110.216 48C112.153 48.0078 113.052 47.7422 113.06 47.2031C113.052 46.6484 112.153 46.3906 110.216 46.3906C108.247 46.3906 107.349 46.6484 107.356 47.2031Z" fill="#F3F3F3"/>
<defs>
<linearGradient id="paint0_linear_911_17840" x1="85.5" y1="0" x2="85.5" y2="123.5" gradientUnits="userSpaceOnUse">
<stop stop-color="#0E241A" stop-opacity="0.67"/>
<stop offset="1" stop-color="#020202" stop-opacity="0"/>
</linearGradient>
<clipPath id="clip0_911_17840">
<rect width="171" height="182" fill="white"/>
</clipPath>
</defs>
</svg>
