<svg width="146" height="42" viewBox="0 0 146 42" fill="none" xmlns="http://www.w3.org/2000/svg">
<path d="M75.4099 40.0037C75.0543 40.784 73.9457 40.784 73.5901 40.0037L68.6497 29.1648C68.3478 28.5026 68.8319 27.75 69.5596 27.75L79.4404 27.75C80.1681 27.75 80.6522 28.5026 80.3503 29.1648L75.4099 40.0037Z" fill="#FF822F"/>
<path d="M10.2738 0.687477C10.4088 0.277243 10.7919 0 11.2237 0H137.806C138.279 0 138.688 0.332231 138.785 0.795865L145.244 31.7735C145.375 32.4018 144.889 32.989 144.247 32.9775L1.85571 30.4191C1.18243 30.407 0.71331 29.7464 0.923759 29.1067L10.2738 0.687477Z" fill="#FF822F"/>
<path d="M32.8212 20.6264C30.8109 20.6264 29.3696 19.5202 29.3317 17.9208H31.2534C31.285 18.6036 31.9488 19.0524 32.8338 19.0587C33.7441 19.0524 34.3952 18.5467 34.3889 17.807C34.3952 17.0611 33.7315 16.5364 32.6568 16.5301H31.8097V15.1267H32.6568C33.5608 15.1267 34.1929 14.6337 34.1866 13.913C34.1929 13.2113 33.6556 12.7309 32.8464 12.7372C32.0373 12.7309 31.3735 13.186 31.3419 13.8877H29.5213C29.5529 12.3137 30.969 11.22 32.8464 11.22C34.7555 11.22 36.0262 12.3516 36.0198 13.7992C36.0262 14.8233 35.3118 15.5503 34.2877 15.7336V15.8094C35.6342 15.9738 36.3738 16.7893 36.3612 17.9335C36.3738 19.5012 34.8883 20.6264 32.8212 20.6264ZM47.8537 19.0334V20.3483H37.3221V19.0334H41.7724V16.783H43.3781V19.0334H47.8537ZM37.6761 15.9232C40.2995 15.6072 41.6017 14.3049 41.7471 13.028H38.2324V11.7384H41.7724V10.2971H43.3781V11.7384H46.9307V13.028H43.416C43.5487 14.3049 44.8573 15.6072 47.4744 15.9232L46.8928 17.1749C44.832 16.9094 43.3465 16.056 42.5689 14.8675C41.804 16.056 40.3248 16.9094 38.2703 17.1749L37.6761 15.9232ZM54.3775 11.1063V16.6312H48.8525V11.1063H54.3775ZM50.18 21.4609V17.7312H51.7857V20.1713H58.0566V21.4609H50.18ZM50.4455 15.3669H52.7845V12.3958H50.4455V15.3669ZM56.0211 18.553V10.158H57.6394V13.4705H59.1944V14.798H57.6394V18.553H56.0211ZM69.6755 10.158V21.6632H68.133V10.158H69.6755ZM59.8013 15.1394C59.8013 12.5665 60.7811 10.9735 62.3046 10.9798C63.689 10.9735 64.6373 12.2694 64.8143 14.4187H65.7562V10.3224H67.2733V21.1321H65.7562V15.6957H64.8269C64.6878 17.9524 63.7206 19.3242 62.3046 19.3242C60.7811 19.3242 59.8013 17.7249 59.8013 15.1394ZM61.2932 15.1394C61.2805 16.9094 61.6598 17.7818 62.3046 17.7691C62.9684 17.7818 63.3603 16.9094 63.354 15.1394C63.3603 13.3757 62.9684 12.497 62.3046 12.497C61.6598 12.497 61.2805 13.3757 61.2932 15.1394ZM78.3486 12.7625C78.3423 14.8739 79.3031 16.9916 81.2565 17.8197L80.3083 19.1093C78.9934 18.515 78.0831 17.3645 77.5584 15.9422C77.04 17.4973 76.0981 18.7489 74.6948 19.3874L73.7213 18.0473C75.7315 17.2002 76.7113 14.994 76.7176 12.7625V11.043H78.3486V12.7625ZM81.876 21.6884V10.158H83.5069V21.6884H81.876ZM91.5984 10.8281V12.1177H89.3101C89.3164 13.4642 90.1255 14.8486 91.9904 15.4428L91.1686 16.6945C89.8916 16.2772 89.013 15.4554 88.5136 14.4314C88.0015 15.5503 87.0786 16.4479 85.7447 16.8841L84.885 15.6451C86.7878 15.0319 87.6602 13.5527 87.6791 12.1177H85.3275V10.8281H91.5984ZM86.4401 18.8691V17.5921H94.1903V21.6632H92.572V18.8691H86.4401ZM92.572 17.099V10.158H94.1903V12.9521H95.7453V14.2923H94.1903V17.099H92.572ZM105.329 10.158V14.6589H107.023V15.9865H105.329V21.6632H103.736V10.158H105.329ZM96.1879 13.1671V11.8775H98.7923V10.335H100.411V11.8775H102.952V13.1671H96.1879ZM96.6556 16.5554C96.6493 14.9497 97.901 13.8055 99.6015 13.8119C101.277 13.8055 102.535 14.9497 102.535 16.5554C102.535 18.161 101.277 19.2926 99.6015 19.2989C97.901 19.2926 96.6493 18.161 96.6556 16.5554ZM98.1981 16.5554C98.1981 17.4467 98.786 17.9777 99.6015 17.9714C100.404 17.9777 100.992 17.4467 100.992 16.5554C100.992 15.6704 100.404 15.1267 99.6015 15.1141C98.786 15.1267 98.1981 15.6704 98.1981 16.5554ZM117.112 10.158V21.6632H115.481V10.158H117.112ZM107.478 18.4013C110.449 16.9979 111.758 15.1773 112.017 12.6234H108.098V11.3591H113.66C113.654 14.8486 112.434 17.7501 108.325 19.6908L107.478 18.4013Z" fill="white"/>
</svg>
