<svg width="224" height="237" viewBox="0 0 224 237" fill="none" xmlns="http://www.w3.org/2000/svg">
<rect width="110.323" height="156.635" rx="4.24632" transform="matrix(0.98889 0.148647 -0.149352 0.988784 114.403 65.7212)" fill="#F3EECD"/>
<path d="M145.97 206.021L143.861 203.395L147.764 205.094L145.97 206.021ZM164.826 196.285L152.358 202.723L138.464 196.676L123.814 178.437L164.826 196.285ZM119.626 160.383L176.872 185.296L172.26 192.448L169.419 193.915L118.418 171.719L112.758 164.672L120.224 159.016L119.626 160.383ZM179.231 181.64L122.786 157.075L132.47 149.74L185.047 172.621L179.231 181.64ZM192.662 160.814L187.563 168.721L136.657 146.567L138.344 145.289L145.739 138.969L191.496 158.882L192.662 160.814ZM187.667 152.534L149.369 135.867L157.637 128.8L178.943 138.073L187.667 152.534ZM175.369 132.146L161.025 125.904L168.005 119.94L175.369 132.146Z" fill="#F3C27A"/>
<path d="M150.673 171.272C151.803 164.332 154.167 162.516 157.999 160.867C160.432 159.849 162.427 158.141 162.848 155.354C163.349 152.038 161.118 149.558 157.933 149.08C155.067 148.649 152.017 149.981 151.185 153.873L145.453 153.011C146.687 146.277 152.339 143.354 158.655 144.304C165.555 145.341 169.547 150.174 168.633 156.224C167.988 160.496 165.515 163.028 161.833 164.591C158.356 166.049 156.82 167.772 156.087 172.086L156.039 172.404L150.625 171.59L150.673 171.272ZM148.614 179.157C148.9 177.084 150.881 175.645 152.951 175.956C154.995 176.263 156.436 178.217 156.15 180.29C155.811 182.356 153.86 183.772 151.813 183.492C149.747 183.154 148.275 181.223 148.614 179.157Z" fill="#CD8226"/>
<path d="M96.7638 213.754L118.006 73.118C118.146 72.1904 119.012 71.5515 119.94 71.691L167.983 78.9127L216.027 86.1344C216.954 86.2739 217.593 87.1388 217.453 88.0664L196.21 228.703C196.07 229.63 195.204 230.269 194.277 230.13L98.1898 215.686C97.2622 215.547 96.6237 214.682 96.7638 213.754Z" stroke="#FFBC90" stroke-width="1.69853"/>
<rect width="110.311" height="156.652" rx="4.24632" transform="matrix(0.966082 -0.258236 0.259404 0.965769 0.5 28.4863)" fill="#DFFBB2"/>
<path d="M47.5114 110.013L40.074 56.8027L71.3623 56.8027L110.344 84.4312L110.344 138.921L64.4378 138.921L47.5114 110.013Z" fill="#CCE548"/>
<path d="M110.346 84.4321L110.346 138.921L64.4389 138.921L58.0727 128.049L109.772 128.049L109.772 124.043L55.7273 124.043L49.3611 113.17L109.772 113.17L109.772 108.879L47.3546 108.879L45.8747 98.2921L109.772 98.2921L109.772 93.7144L45.2348 93.7144L43.7549 83.1278L108.506 83.1278L110.346 84.4321ZM102.449 78.8351L43.2293 78.8351L43.2293 79.3682L41.7885 69.0607L88.6581 69.0607L102.449 78.8351ZM83.006 65.0551L41.2287 65.0551L40.0751 56.8037L71.3638 56.8037L83.006 65.0551Z" fill="#CCE548"/>
<path d="M74.7431 106.731C72.997 99.9203 74.4363 97.3134 77.2876 94.2735C79.1103 92.3697 80.2544 90.0083 79.5235 87.2871C78.6533 84.0475 75.6146 82.6654 72.5036 83.4969C69.7037 84.2453 67.441 86.6835 68.2379 90.5815L62.6381 92.0783C61.0704 85.4142 65.0804 80.4812 71.2506 78.8319C77.9911 77.0302 83.588 79.8674 85.1751 85.7764C86.2959 89.949 85.0445 93.2556 82.295 96.1572C79.6921 98.8807 78.9749 101.072 80.0318 105.318L80.1153 105.629L74.8266 107.042L74.7431 106.731ZM76.0157 114.78C75.4468 112.765 76.6864 110.656 78.7086 110.116C80.7048 109.582 82.8095 110.797 83.3784 112.812C83.8955 114.84 82.6748 116.916 80.6856 117.476C78.6564 117.991 76.5328 116.808 76.0157 114.78Z" fill="#96AC58"/>
<path d="M43.6668 171.206L6.76739 33.8284C6.52405 32.9224 7.06145 31.9916 7.96771 31.7494L101.828 6.66037C102.734 6.41813 103.666 6.95619 103.909 7.86215L140.809 145.24C141.052 146.146 140.515 147.077 139.609 147.319L45.7484 172.408C44.8421 172.65 43.9102 172.112 43.6668 171.206Z" stroke="#CEE35E" stroke-width="1.69853"/>
</svg>
