<svg width="142" height="116" viewBox="0 0 142 116" fill="none" xmlns="http://www.w3.org/2000/svg">
<path d="M139.011 14.7194L48.5693 13.2344L40.9524 74.2536L142 98.5096L139.011 14.7194Z" fill="#78DD50"/>
<path d="M101.458 57.9207C106.038 53.1967 127.198 41.1809 140.498 63.3054L141.734 98.0662L141.752 98.572L141.261 98.4539L41.2157 74.365L40.8817 74.2839L40.9247 73.9431L42.8221 58.6912C47.153 59.1158 52.1866 60.6296 57.83 63.8816C78.7316 75.9263 96.4813 63.0534 101.458 57.9207Z" fill="#4BA427"/>
<path d="M73.6591 50.0728C75.0547 51.4615 78.6833 53.4056 82.0328 50.0728" stroke="black" stroke-width="1.91416" stroke-linecap="round" stroke-linejoin="round"/>
<path d="M91.4857 42.5762C90.1453 40.3115 86.66 37.1409 83.4429 42.5762" stroke="black" stroke-width="1.91416" stroke-linecap="round" stroke-linejoin="round"/>
<ellipse cx="68.3305" cy="41.3621" rx="3.80623" ry="3.78738" fill="black"/>
<ellipse cx="75.7359" cy="43.7434" rx="4.69163" ry="4.1682" fill="#B969FF"/>
<path d="M69.0872 100.238H114.346L121.588 109.245L60.488 116L69.0872 100.238Z" fill="#AAAAAA" fill-opacity="0.34"/>
<path d="M24.7114 31.1794C18.4867 33.5116 11.6737 30.5166 9.43847 24.6098C7.20347 18.703 10.3396 11.9813 16.5642 9.64916C22.7888 7.31713 29.6015 10.3113 31.8368 16.2179C34.072 22.1246 30.936 28.8472 24.7114 31.1794Z" fill="#D3F5FF" stroke="#5E6064" stroke-width="2.67577"/>
<path d="M22.6409 32.6094L23.6861 36.47" stroke="#5E6064" stroke-width="3.34472"/>
<ellipse cx="9.41215" cy="9.10423" rx="9.41215" ry="9.10423" transform="matrix(-0.867097 0.498139 -0.501864 -0.864947 40.0896 47.3696)" fill="#78DD50"/>
</svg>
