<svg width="48" height="35" viewBox="0 0 48 35" fill="none" xmlns="http://www.w3.org/2000/svg">
<path d="M44.9383 14.8259L47.4084 14.2622V19.0901H44.9383V23.3543H40.6481V11.1338H44.9383V14.8259ZM31.1837 22.4702C30.1389 22.4702 28.7136 22.4702 27.3876 22.4702H24.1895V11.3938H31.1317L31.1837 15.8995L28.3236 14.9559V18.8821H28.7136C29.6237 18.8821 30.6377 18.7261 31.1837 18.5441V22.4702ZM39.6081 22.4702C38.4343 22.4702 37.112 22.4702 35.4999 22.4702H31.9898V11.3938H39.036V15.8995L36.1239 14.9559V18.8821H36.5139C37.554 18.8821 38.724 18.6741 39.6081 18.2841V22.4702Z" fill="#505154"/>
<path d="M20.3588 5.14797L22.8664 4.80256L22.9589 9.41214H20.3588V13.4683H15.9646V1.45582H20.3588V5.14797ZM13.5465 1.71583V12.7923H0V0L13.5465 1.71583ZM9.20437 9.17813V5.32997L4.24962 4.12971L4.34217 9.17813H9.20437ZM13.1825 17.8105C13.1045 18.0185 13.0005 18.2525 12.8965 18.4605L21.1648 20.2026V24.3403L10.2184 21.3466C7.72231 22.9847 4.10816 23.6607 0.520021 23.6607L1.59567 20.2026C4.9238 20.2026 6.86427 19.2665 8.24233 17.8105H0.75403V14.2483H20.3588L21.1648 17.8105H13.1825Z" fill="#505154"/>
<path d="M35.7051 24.3037C41.1302 24.3037 45.5289 26.6978 45.5293 29.6514C45.5293 32.6052 41.1304 35 35.7051 35C30.2799 34.9999 25.8818 32.6051 25.8818 29.6514C25.8822 26.6978 30.2802 24.3038 35.7051 24.3037ZM32.4756 28.165L33.0146 30.1777L33.0156 30.1787L34.1025 31.0781L34.1035 31.0791L34.9727 31.7988L34.9717 31.7969L35.3525 32.1123L35.3535 32.1143L35.4697 32.209L38.9854 31.2676L38.1934 28.3135L37.3818 28.0908L37.083 28.0098V28.0088L36.2725 27.7871V27.7881L36.0371 27.7236L32.4756 28.165Z" fill="#505154"/>
</svg>
