<svg width="90" height="36" viewBox="0 0 90 36" fill="none" xmlns="http://www.w3.org/2000/svg">
<path d="M33.4884 19.4091L18.5591 18.084L16.569 28.1279L32.9783 33.3615L33.4884 19.4091Z" fill="#717377"/>
<path d="M26.7668 26.1368C27.5847 25.3903 31.3007 23.5848 33.1612 27.7388L32.9552 33.2813L32.9459 33.5323L32.7077 33.4544L16.7446 28.2814L16.5849 28.2298L16.6173 28.0647L17.1065 25.5602C17.8341 25.665 18.6774 25.9731 19.6082 26.616C22.8592 28.8613 25.8969 26.9309 26.7668 26.1368Z" fill="#717377"/>
<path d="M2.84271 19.7139L4.12451 9.36719L9.97519 10.9349L15.8769 18.0669L13.1401 28.2807L4.55593 25.9805L2.84271 19.7139Z" fill="#717377"/>
<path d="M15.8769 18.0667L13.1401 28.2806L4.55616 25.9805L3.91099 23.6229L13.5787 26.2133L13.7799 25.4625L3.67355 22.7545L3.02907 20.398L14.3268 23.4252L14.5424 22.6206L2.86924 19.4928L3.12465 17.4341L15.0733 20.6357L15.303 19.7782L3.23461 16.5445L3.49002 14.4858L15.598 17.7301L15.8769 18.0667ZM14.6817 16.6222L3.60751 13.6549L3.58148 13.752L3.82952 11.751L12.5936 14.0993L14.6817 16.6222ZM11.7383 13.0654L3.92601 10.9721L4.12451 9.36719L9.97478 10.9348L11.7383 13.0654Z" fill="#717377"/>
<path d="M12.8608 9.60019L17.5912 2.63184L31.9336 9.60019L31.9336 16.0972L17.5912 16.0972L12.8608 9.60019Z" fill="#717377"/>
<path d="M86.9383 15.408L89.4084 14.8443V19.6721H86.9383V23.9363H82.6481V11.7158H86.9383V15.408ZM73.1837 23.0523C72.1389 23.0523 70.7136 23.0523 69.3876 23.0523H66.1895V11.9758H73.1317L73.1837 16.4815L70.3236 15.538V19.4641H70.7136C71.6237 19.4641 72.6377 19.3081 73.1837 19.1261V23.0523ZM81.6081 23.0523C80.4343 23.0523 79.112 23.0523 77.4999 23.0523H73.9898V11.9758H81.036V16.4815L78.1239 15.538V19.4641H78.5139C79.554 19.4641 80.724 19.2561 81.6081 18.8661V23.0523Z" fill="#717377"/>
<path d="M62.3588 5.73L64.8664 5.38459L64.9589 9.99417H62.3588V14.0503H57.9646V2.03785H62.3588V5.73ZM55.5465 2.29786V13.3743H42V0.582031L55.5465 2.29786ZM51.2044 9.76016V5.91201L46.2496 4.71174L46.3422 9.76016H51.2044ZM55.1825 18.3925C55.1045 18.6005 55.0005 18.8345 54.8965 19.0425L63.1648 20.7846V24.9223L52.2184 21.9286C49.7223 23.5667 46.1082 24.2427 42.52 24.2427L43.5957 20.7846C46.9238 20.7846 48.8643 19.8486 50.2423 18.3925H42.754V14.8304H62.3588L63.1648 18.3925H55.1825Z" fill="#717377"/>
<path d="M77.7051 24.8857C83.1302 24.8857 87.5289 27.2798 87.5293 30.2334C87.5293 33.1872 83.1304 35.582 77.7051 35.582C72.2799 35.5819 67.8818 33.1871 67.8818 30.2334C67.8822 27.2799 72.2802 24.8859 77.7051 24.8857ZM74.4756 28.7471L75.0146 30.7598L75.0156 30.7607L76.1025 31.6602L76.1035 31.6611L76.9727 32.3809L76.9717 32.3789L77.3525 32.6943L77.3535 32.6963L77.4697 32.791L80.9854 31.8496L80.1934 28.8955L79.3818 28.6729L79.083 28.5918V28.5908L78.2725 28.3691V28.3701L78.0371 28.3057L74.4756 28.7471Z" fill="#717377"/>
</svg>
