<svg width="171" height="182" viewBox="0 0 171 182" fill="none" xmlns="http://www.w3.org/2000/svg">
<g clip-path="url(#clip0_915_18132)">
<path d="M1932 3117.5V3123.5H1938V3117.5H1932ZM1932 -425L1897.36 -365H1966.64L1932 -425ZM-6375 3117.5V3123.5H1932V3117.5V3111.5H-6375V3117.5ZM1932 3117.5H1938V-371H1932H1926V3117.5H1932Z" fill="#39B94C"/>
<path d="M-14942.3 -6178C-14942.3 -6170.64 -14936.4 -6164.67 -14929 -6164.67C-14921.6 -6164.67 -14915.7 -6170.64 -14915.7 -6178C-14915.7 -6185.36 -14921.6 -6191.33 -14929 -6191.33C-14936.4 -6191.33 -14942.3 -6185.36 -14942.3 -6178ZM-14929 4394H-14931.5V4396.5H-14929V4394ZM-3422.94 4394V4396.5H-3420.44V4394H-3422.94ZM-3422.94 -3159V-3161.5H-3425.44V-3159H-3422.94ZM717 -3159L692 -3173.43V-3144.57L717 -3159ZM-14929 -6178H-14931.5V4394H-14929H-14926.5V-6178H-14929ZM-14929 4394V4396.5H-3422.94V4394V4391.5H-14929V4394ZM-3422.94 4394H-3420.44V-3159H-3422.94H-3425.44V4394H-3422.94ZM-3422.94 -3159V-3156.5H694.5V-3159V-3161.5H-3422.94V-3159Z" fill="#FF5E5E"/>
<rect width="171" height="182" rx="8" fill="#339C43"/>
<mask id="mask0_915_18132" style="mask-type:alpha" maskUnits="userSpaceOnUse" x="0" y="0" width="171" height="182">
<rect width="171" height="182" rx="8" fill="#339C43"/>
</mask>
<g mask="url(#mask0_915_18132)">
<path d="M74.4266 98.6607L24 129.355L45.9246 138.125L94.1587 135.933L155.548 107.431L208.167 61.3889V24.1171L192.819 0L184.05 24.1171L157.74 57.004L74.4266 98.6607Z" fill="#39B94C"/>
<path d="M72.4999 116.298L71.2606 100.844L89.0379 97.5523L99.4369 106.983L98.7591 117.925L85.3584 121.488L72.4999 116.298Z" fill="#C4F568"/>
<path d="M101.76 103.099L98.0616 91.8866L111.598 86.1352L121.997 95.5661L121.455 104.319L110.242 108.018L101.76 103.099Z" fill="#C4F568"/>
<path d="M122.404 88.9998L135.127 96.378L144.287 90.3555L142.37 85.8434L136.212 78.8719L125.406 76.0058L118.57 79.9757L122.404 88.9998Z" fill="#C4F568"/>
<path d="M142.912 77.0916L139.077 68.0674L154.666 64.6399L163.013 71.747L162.471 80.5L153.446 84.3343L142.912 77.0916Z" fill="#C4F568"/>
<path d="M161.094 67.2335L157.395 56.0211L166.42 52.1868L172.984 52.5935L179.142 59.565L178.465 70.5063L171.764 72.2879L161.094 67.2335Z" fill="#C4F568"/>
<path d="M62.8809 21.1426C84.4857 21.1426 102 37.5273 102 57.7383C102 77.9492 84.4856 94.333 62.8809 94.333C59.2985 94.333 55.8294 93.8798 52.5332 93.0361C47.2885 95.4796 41.3761 96.8574 35.1191 96.8574C13.5143 96.8574 -4 80.4727 -4 60.2617C-3.99989 40.0508 13.5144 23.667 35.1191 23.667C38.7011 23.667 42.1699 24.1194 45.4658 24.9629C50.7106 22.5193 56.6237 21.1426 62.8809 21.1426Z" fill="#39B94C"/>
<path d="M27.7586 24.375L11 26.25L47.4631 29.9216L65 15L57.5517 16.875L63.1379 0L48.2414 20.625L42.6552 9.375H35.2069L38.931 20.625L29.6207 18.75L33.3448 22.5L11 18.75L27.7586 24.375Z" fill="#C4F568"/>
</g>
<rect width="171" height="182" rx="8" fill="url(#paint0_linear_915_18132)"/>
<path d="M21.8711 93.332V94.2344H18.7305V95.5H22.9727V96.4141H13.3867V95.5H17.6289V94.2344H14.6641V90.6836H15.7656V93.332H21.8711ZM14.5234 99.0625C14.5234 97.832 15.8887 97.1348 18.168 97.1289C20.4297 97.1348 21.7832 97.832 21.7891 99.0625C21.7832 100.281 20.4297 100.979 18.168 100.973C15.8887 100.979 14.5234 100.281 14.5234 99.0625ZM15.6484 99.0625C15.6426 99.7246 16.5625 100.111 18.168 100.117C19.75 100.111 20.6758 99.7246 20.6758 99.0625C20.6758 98.3711 19.75 98.002 18.168 97.9961C16.5625 98.002 15.6426 98.3711 15.6484 99.0625ZM27.613 93.5898C27.6071 95.3477 28.7614 97.1641 30.3786 97.8555L29.7692 98.7227C28.5329 98.1777 27.5485 97.0176 27.0622 95.6172C26.5759 97.1172 25.5915 98.3945 24.3669 98.9922L23.7224 98.1133C25.3044 97.3691 26.4763 95.4004 26.488 93.5898V92.4766H24.0857V91.5508H30.0036V92.4766H27.613V93.5898ZM31.3278 100.996V90.4961H32.4411V100.996H31.3278ZM43.7026 95.3125V96.168H34.0932V95.3125H43.7026ZM35.2299 97.7031V96.9062H42.519V99.2148H36.3549V100.082H42.8471V100.867H35.2416V98.4766H41.4174V97.7031H35.2299ZM35.3002 91.5508V90.7656H42.4955V93.0391H36.4252V93.8359H42.6713V94.6211H35.3237V92.3008H41.3822V91.5508H35.3002ZM56.9559 96.0156V96.8945H47.3582V96.0156H51.6004V95.1016H48.6122V90.7773H55.784V91.6562H49.7372V92.5117H55.5145V93.3438H49.7372V94.2344H55.8543V95.1016H52.7137V96.0156H56.9559ZM48.5184 99.2852C48.5184 98.1836 49.825 97.5801 52.1629 97.5859C54.4657 97.5801 55.7782 98.1836 55.784 99.2852C55.7782 100.393 54.4657 100.979 52.1629 100.973C49.825 100.979 48.5184 100.393 48.5184 99.2852ZM49.6317 99.2852C49.6258 99.8535 50.5047 100.141 52.1629 100.129C53.7977 100.141 54.6707 99.8535 54.6707 99.2852C54.6707 98.7168 53.7977 98.418 52.1629 98.418C50.5047 98.418 49.6258 98.7168 49.6317 99.2852ZM62.9322 92.2305V93.1328H57.7173V92.2305H59.7798V90.8008H60.8814V92.2305H62.9322ZM58.0572 96.1797C58.0513 94.7676 59.0123 93.7656 60.3306 93.7656C61.6607 93.7656 62.6099 94.7676 62.6158 96.1797C62.6099 97.6152 61.6607 98.623 60.3306 98.6172C59.0123 98.623 58.0513 97.6152 58.0572 96.1797ZM59.0416 96.1797C59.0357 97.0703 59.5748 97.668 60.3306 97.668C61.0865 97.668 61.6314 97.0703 61.6314 96.1797C61.6314 95.3066 61.0865 94.6973 60.3306 94.6914C59.5748 94.6973 59.0357 95.3066 59.0416 96.1797ZM63.4127 100.504V90.7305H64.4673V94.8672H65.6744V90.4961H66.7291V100.996H65.6744V95.7812H64.4673V100.504H63.4127ZM18.7891 109.105V109.926H21.0273V108.496H22.1289V114.508H21.0273V112.773H18.7891V113.617H13.8555V109.105H18.7891ZM14.6641 118.105C16.5918 117.918 18.0977 116.975 18.1562 116.008H15.0859V115.164H18.1562V114.191H19.293V115.164H22.3516V116.008H19.293C19.3457 116.928 20.8281 117.895 22.7383 118.105L22.3633 118.949C20.7168 118.744 19.3516 118.041 18.7188 117.115C18.0801 118.064 16.6914 118.756 15.0391 118.949L14.6641 118.105ZM14.957 112.75H17.6875V109.984H14.957V112.75ZM18.7891 111.906H21.0273V110.793H18.7891V111.906ZM32.7572 109.539V110.453H31.6088V115.393C32.1069 115.357 32.5932 115.311 33.0619 115.258L33.1322 116.078C30.9936 116.418 28.5326 116.465 26.7104 116.465L26.5932 115.539L27.9291 115.521V110.453H26.9096V109.539H32.7572ZM29.019 115.504C29.517 115.492 30.0326 115.475 30.5424 115.451V110.453H29.019V115.504ZM32.4174 113.324V112.41H34.3158V108.496H35.4174V118.996H34.3158V113.324H32.4174ZM45.9757 108.496V116.371H44.921V108.496H45.9757ZM36.9992 114.051C38.382 113.395 39.1261 111.965 39.1203 110.723V109.223H40.1984V110.723C40.1984 111.953 40.8839 113.195 42.2257 113.781L41.6046 114.637C40.673 114.209 40.0285 113.459 39.6769 112.551C39.296 113.559 38.6046 114.438 37.6203 114.906L36.9992 114.051ZM39.0148 118.773V115.41H40.1163V117.871H46.2804V118.773H39.0148ZM41.2882 111.988V111.074H42.8234V108.684H43.8898V116.066H42.8234V111.988H41.2882ZM55.9012 114.086V114.977H48.5887V109.363H55.7957V110.266H49.7137V111.684H55.5731V112.562H49.7137V114.086H55.9012ZM47.3817 117.672V116.758H56.9911V117.672H47.3817ZM65.9671 109.539V116.359H61.0569V109.539H65.9671ZM62.1468 115.457H64.8655V110.418H62.1468V115.457ZM67.7249 118.996V108.496H68.8382V112.609H70.5257V113.547H68.8382V118.996H67.7249ZM74.9082 110.688C74.9082 112.047 75.9101 113.324 77.5332 113.84L76.959 114.707C75.7519 114.309 74.8437 113.482 74.3633 112.434C73.8945 113.576 72.957 114.479 71.709 114.918L71.1348 114.039C72.7695 113.482 73.7773 112.123 73.7832 110.688V110.23H71.4277V109.328H77.2168V110.23H74.9082V110.688ZM72.8574 118.773V115.445H73.9824V117.871H80.041V118.773H72.8574ZM78.6113 116.172V108.508H79.7246V116.172H78.6113ZM89.7204 108.496V112.762H91.2438V113.676H89.7204V118.996H88.6071V108.496H89.7204ZM81.2829 116.043C82.8181 114.443 83.3747 112.639 83.486 110.535H81.6579V109.621H84.5407C84.5349 112.246 84.0661 114.637 82.1618 116.664L81.2829 116.043ZM84.2829 116.746C85.8474 114.918 86.3044 112.773 86.3864 110.535H84.8806V109.621H87.4352C87.4352 112.275 87.1013 115.076 85.1735 117.355L84.2829 116.746ZM95.6029 111.59C95.5971 113.348 96.7514 115.164 98.3686 115.855L97.7592 116.723C96.5229 116.178 95.5385 115.018 95.0522 113.617C94.5658 115.117 93.5815 116.395 92.3568 116.992L91.7123 116.113C93.2943 115.369 94.4662 113.4 94.4779 111.59V110.477H92.0756V109.551H97.9936V110.477H95.6029V111.59ZM99.3178 118.996V108.496H100.431V118.996H99.3178ZM21.6367 126.508V128.84H23.1719V129.766H21.6367V132.426H20.5234V126.508H21.6367ZM13.8672 131.711V127.023H14.9805V130.785C16.4043 130.773 17.8867 130.65 19.5039 130.328L19.6445 131.242C17.875 131.6 16.2695 131.705 14.7227 131.711H13.8672ZM14.9102 136.855V132.977H21.6367V136.855H14.9102ZM16 135.965H20.5586V133.844H16V135.965ZM32.4528 126.496V131.84H31.3396V126.496H32.4528ZM23.9099 131.148C26.5349 130.598 27.906 129.42 28.0759 127.879H24.4607V126.965H29.3005C29.2946 129.719 27.4958 131.354 24.32 132.051L23.9099 131.148ZM25.5505 133.188V132.309H32.4528V134.945H26.6872V136.012H32.8044V136.891H25.5857V134.113H31.3396V133.188H25.5505ZM42.4015 127.422C42.3956 128.816 44.1007 130.123 46.1632 130.398L45.7296 131.312C44.0128 131.037 42.507 130.146 41.8214 128.91C41.1359 130.146 39.63 131.037 37.9249 131.312L37.4796 130.398C39.5363 130.123 41.2355 128.834 41.2413 127.422V126.848H42.4015V127.422ZM37.0226 133.258V132.344H46.5968V133.258H42.3312V136.996H41.2413V133.258H37.0226ZM53.9439 133.434C53.9439 134.336 54.3892 135.291 55.3443 135.859C56.3052 135.244 56.7798 134.242 56.7798 133.434V132.93H57.8697V133.434C57.8638 134.523 58.5845 135.578 59.9556 136.023L59.4048 136.844C58.3677 136.486 57.6587 135.783 57.2955 134.928C56.9615 135.771 56.3345 136.539 55.3736 136.938C54.3658 136.557 53.7271 135.812 53.4048 134.957C53.024 135.783 52.3326 136.48 51.3423 136.844L50.7798 136.023C52.1275 135.543 52.8599 134.447 52.8658 133.434V132.93H53.9439V133.434ZM50.5103 129.566C50.5162 128.096 51.6998 127.088 53.3111 127.082C54.9166 127.088 56.1002 128.096 56.1002 129.566C56.1002 131.02 54.9166 132.027 53.3111 132.027C51.6998 132.027 50.5162 131.02 50.5103 129.566ZM51.6002 129.566C51.5943 130.48 52.315 131.102 53.3111 131.102C54.2955 131.102 55.0103 130.48 55.0103 129.566C55.0103 128.646 54.2955 128.025 53.3111 128.031C52.315 128.025 51.5943 128.646 51.6002 129.566ZM57.8931 132.484V126.508H59.0064V132.484H57.8931ZM65.4397 126.672C67.8069 126.666 69.1839 127.305 69.1897 128.477C69.1839 129.654 67.8069 130.293 65.4397 130.293C63.0725 130.293 61.6839 129.654 61.6897 128.477C61.6839 127.305 63.0725 126.666 65.4397 126.672ZM60.6585 131.828V130.938H70.2327V131.828H60.6585ZM61.8069 133.469V132.637H69.0257V135.098H62.9085V136.035H69.3186V136.891H61.8186V134.289H67.9241V133.469H61.8069ZM62.8499 128.477C62.844 129.127 63.7698 129.461 65.4397 129.461C67.1214 129.461 68.0471 129.127 68.0413 128.477C68.0471 127.855 67.1214 127.492 65.4397 127.492C63.7698 127.492 62.844 127.855 62.8499 128.477ZM79.3613 126.496V130.762H80.8848V131.676H79.3613V136.996H78.248V126.496H79.3613ZM70.9238 134.043C72.459 132.443 73.0156 130.639 73.1269 128.535H71.2988V127.621H74.1816C74.1758 130.246 73.707 132.637 71.8027 134.664L70.9238 134.043ZM73.9238 134.746C75.4883 132.918 75.9453 130.773 76.0273 128.535H74.5215V127.621H77.0762C77.0762 130.275 76.7422 133.076 74.8144 135.355L73.9238 134.746ZM83.0993 133.48C83.1169 131.945 83.5681 131.477 84.3415 130.996C84.8337 130.697 85.2087 130.264 85.2087 129.648C85.2087 128.916 84.6462 128.453 83.9431 128.453C83.3102 128.453 82.695 128.84 82.6423 129.707H81.3767C81.4235 128.213 82.5485 127.398 83.9431 127.398C85.4665 127.398 86.486 128.312 86.486 129.648C86.486 130.592 86.0349 131.219 85.2907 131.676C84.5876 132.104 84.3122 132.525 84.2946 133.48V133.551H83.0993V133.48ZM82.9118 135.25C82.906 134.793 83.2868 134.418 83.7438 134.418C84.195 134.418 84.57 134.793 84.5759 135.25C84.57 135.707 84.195 136.076 83.7438 136.082C83.2868 136.076 82.906 135.707 82.9118 135.25Z" fill="#F8F9FB"/>
<path d="M20.7031 151.562V160.969H13.875V151.562H20.7031ZM15.8438 159.391H18.7188V153.125H15.8438V159.391ZM22.6406 164.438V150.219H24.6406V155.578H26.7344V157.234H24.6406V164.438H22.6406ZM32.7809 153.031C32.7731 154.727 33.8356 156.461 36.1715 157.172L35.1559 158.734C33.5621 158.227 32.4449 157.203 31.8043 155.922C31.1559 157.328 29.9996 158.445 28.3278 159L27.2965 157.438C29.6637 156.68 30.7496 154.828 30.7496 153.031V152.828H27.8278V151.234H35.6403V152.828H32.7809V153.031ZM29.609 164.188V159.578H31.6246V162.594H39.5153V164.188H29.609ZM37.1403 160.516V150.234H39.1403V160.516H37.1403ZM47.5305 150.344C50.8039 150.344 52.6946 151.203 52.7024 152.781C52.6946 154.352 50.8039 155.203 47.5305 155.203C44.2493 155.203 42.343 154.352 42.343 152.781C42.343 151.203 44.2493 150.344 47.5305 150.344ZM41.0461 157.359V155.797H54.0149V157.359H50.7649V158.359H52.4368V161.984H44.5149V162.844H52.8118V164.344H42.5618V160.594H50.468V159.812H42.5461V158.359H44.3118V157.359H41.0461ZM44.4368 152.781C44.4289 153.461 45.4446 153.742 47.5305 153.75C49.6321 153.742 50.6399 153.461 50.6399 152.781C50.6399 152.133 49.6321 151.812 47.5305 151.812C45.4446 151.812 44.4289 152.133 44.4368 152.781ZM46.2805 158.359H48.7805V157.359H46.2805V158.359ZM70.1079 153.453V155.047H66.0141V156.281H71.4985V157.859H58.5298V156.281H64.0141V155.047H60.1704V150.484H62.1548V153.453H70.1079ZM59.7954 164.281V162.688H61.8579V160.406H59.9204V158.859H70.1079V160.406H68.1704V162.688H70.2641V164.281H59.7954ZM63.8266 162.688H66.2016V160.406H63.8266V162.688ZM85.3106 157.484V159.078H72.3419V157.484H85.3106ZM73.6387 153.562C73.6387 151.75 75.6934 150.641 78.8262 150.656C81.9356 150.641 83.9903 151.75 83.9981 153.562C83.9903 155.383 81.9356 156.5 78.8262 156.5C75.6934 156.5 73.6387 155.383 73.6387 153.562ZM73.9044 164.188V160.031H75.9044V162.594H83.8419V164.188H73.9044ZM75.7169 153.562C75.7012 154.445 76.8497 154.891 78.8262 154.891C80.7872 154.891 81.9356 154.445 81.9356 153.562C81.9356 152.703 80.7872 152.234 78.8262 152.219C76.8497 152.234 75.7012 152.703 75.7169 153.562ZM97.9036 151.047V152.641H95.0755C95.0833 154.305 96.0833 156.016 98.388 156.75L97.3724 158.297C95.7943 157.781 94.7083 156.766 94.0911 155.5C93.4583 156.883 92.3177 157.992 90.6693 158.531L89.6068 157C91.9583 156.242 93.0364 154.414 93.0599 152.641H90.1536V151.047H97.9036ZM91.5286 160.984V159.406H101.107V164.438H99.1068V160.984H91.5286ZM99.1068 158.797V150.219H101.107V153.672H103.029V155.328H101.107V158.797H99.1068ZM116.606 155.859V157.438H111.106V158.344H115.028V161.984H107.106V162.844H115.403V164.344H105.153V160.578H113.06V159.844H105.138V158.344H109.106V157.438H103.638V155.859H116.606ZM105.247 155.109V150.625H114.966V155.109H105.247ZM107.2 153.578H112.981V152.172H107.2V153.578Z" fill="#F3F3F3"/>
</g>
<defs>
<linearGradient id="paint0_linear_915_18132" x1="85.5" y1="0" x2="85.5" y2="123.5" gradientUnits="userSpaceOnUse">
<stop stop-color="#020202" stop-opacity="0"/>
<stop offset="1" stop-color="#0E241A" stop-opacity="0.67"/>
</linearGradient>
<clipPath id="clip0_915_18132">
<rect width="171" height="182" fill="white"/>
</clipPath>
</defs>
</svg>
