<svg width="30" height="30" viewBox="0 0 30 30" fill="none" xmlns="http://www.w3.org/2000/svg">
<rect width="30" height="30" rx="15" fill="#F37420"/>
<path fill-rule="evenodd" clip-rule="evenodd" d="M14.7062 20.0064C15.4213 20.0064 15.7154 20.3917 16.0986 20.4773C16.4819 20.563 16.8036 20.5868 17.1331 20.4416C17.7856 20.154 18.1834 19.8116 18.6661 19.3C19.5605 18.352 20.0003 17.0485 20.0003 15.3029C20.0003 13.5574 19.5296 12.6553 18.8043 12.0652C18.0789 11.4751 17.6583 11.3621 16.7812 11.4751C15.9041 11.5882 15.4265 12.5306 14.7087 12.5306C13.9909 12.5306 13.116 11.6014 12.3549 11.4751C11.5938 11.3489 11.1768 11.4751 10.5179 12.0652C9.85897 12.6553 9.41211 13.5741 9.41211 15.3029C9.41211 17.0318 9.86845 18.3137 10.7629 19.2617C11.2456 19.7732 11.6268 20.154 12.2793 20.4416C12.6088 20.5868 12.9494 20.563 13.3193 20.4773C13.6892 20.3917 13.9833 20.0064 14.7062 20.0064Z" stroke="white" stroke-width="0.941177"/>
<path d="M14.709 12.5307C14.9398 10.2557 15.9205 9.11816 17.6509 9.11816C17.8096 9.59695 17.8506 10.0603 17.7739 10.5083C17.7375 10.7211 17.6244 11.0246 17.4347 11.4187" stroke="white" stroke-width="0.941177" stroke-linecap="round"/>
<path d="M11.8325 15.5889C11.7511 15.9847 11.7511 16.3922 11.8325 16.8114C11.9138 17.2306 12.087 17.5541 12.3521 17.7819" stroke="white" stroke-width="0.941177" stroke-linecap="round"/>
</svg>
