<svg width="64" height="65" viewBox="0 0 64 65" fill="none" xmlns="http://www.w3.org/2000/svg">
<circle cx="32" cy="32.5" r="32" fill="url(#paint0_linear_1289_20996)"/>
<path d="M26.0934 40L24.4472 33.4945H22V31.5055H23.9355L22.2892 25H25.3593L26.8053 31.5055H28.9633L30.5651 25H33.4349L35.0367 31.5055H37.2169L38.6407 25H41.7108L40.0645 31.5055H42V33.4945H39.5528L37.9066 40H34.6585L33.079 33.4945H30.9433L29.3415 40H26.0934ZM27.2503 33.4945L27.762 35.8356H27.8954L28.4739 33.4945H27.2503ZM31.4327 31.5055H32.5895L32.0556 29.3508H31.9444L31.4327 31.5055ZM35.5261 33.4945L36.1046 35.8564H36.238L36.772 33.4945H35.5261Z" fill="#39B94C"/>
<defs>
<linearGradient id="paint0_linear_1289_20996" x1="32" y1="0.5" x2="32" y2="64.5" gradientUnits="userSpaceOnUse">
<stop stop-color="#F0FFD7"/>
<stop offset="1" stop-color="#D7EFAE"/>
</linearGradient>
</defs>
</svg>
