<svg width="18" height="19" viewBox="0 0 18 19" fill="none" xmlns="http://www.w3.org/2000/svg">
<path d="M16.8843 2.7666L16.9868 2.78223C17.0875 2.80703 17.1802 2.85938 17.2544 2.93359L17.3208 3.01367C17.3795 3.09891 17.4141 3.19913 17.4204 3.30371L17.4458 3.97266C17.4919 7.16533 16.4845 9.76073 14.6411 11.0049L14.4478 11.1289C13.8564 11.4883 13.1881 11.6989 12.5005 11.7441L12.2046 11.7529C11.4337 11.7529 10.6404 11.5535 9.86768 11.1641C9.31104 11.8577 9.00673 12.7216 9.00928 13.6133V15.6875C9.00926 15.8391 8.94945 15.9846 8.84229 16.0918C8.7351 16.199 8.58956 16.2597 8.43799 16.2598C8.2864 16.2598 8.14092 16.1989 8.03369 16.0918C7.92646 15.9846 7.86574 15.8392 7.86572 15.6875V13.6738L6.1167 11.9307C5.60073 12.1806 5.0366 12.3164 4.4624 12.3223H4.46143C3.94069 12.323 3.42835 12.1972 2.96826 11.958L2.77393 11.8486C1.21789 10.9059 0.418032 8.74178 0.572754 6.10938C0.581016 5.96983 0.640016 5.83821 0.73877 5.73926L0.818848 5.67285C0.904129 5.61399 1.00416 5.57861 1.10889 5.57227L1.59717 5.55469C4.00831 5.51974 5.96543 6.31539 6.84912 7.77441L6.9585 7.96875C7.45407 8.92676 7.43263 10.0454 6.92334 11.1143L8.05518 12.2461C8.24757 11.5572 8.58511 10.9173 9.04541 10.3682C8.2336 8.78619 8.22477 7.11689 9.05811 5.74023L9.18213 5.5459C10.5134 3.57561 13.3873 2.5609 16.8843 2.7666ZM1.69678 6.69629C1.68623 8.71278 2.31407 10.233 3.3667 10.8701H3.36768L3.48291 10.9355C4.00948 11.2132 4.60948 11.2483 5.23584 11.0439L3.53271 9.3418C3.42552 9.2346 3.36583 9.08909 3.36572 8.9375C3.36572 8.78577 3.42542 8.63952 3.53271 8.53223L3.61963 8.46094C3.71287 8.39872 3.82327 8.3653 3.93701 8.36523C4.08874 8.36523 4.23499 8.42493 4.34229 8.53223L6.04248 10.2344C6.26205 9.56172 6.204 8.91877 5.86865 8.36523L5.86768 8.36426C5.2304 7.3118 3.71271 6.68319 1.69678 6.69629ZM16.2974 3.88965C13.3941 3.825 11.146 4.68232 10.1313 6.18262L10.0356 6.33301C9.47267 7.26497 9.42035 8.36008 9.89209 9.48535L13.6587 5.71973L13.7456 5.64844C13.7765 5.62781 13.8097 5.61 13.8442 5.5957L13.9517 5.56348C13.9882 5.55621 14.0255 5.55274 14.063 5.55273C14.138 5.55273 14.2124 5.56704 14.2817 5.5957L14.3813 5.64844C14.4123 5.66911 14.4408 5.69332 14.4673 5.71973L14.5386 5.80664C14.5593 5.83764 14.5769 5.87067 14.5913 5.90527L14.6245 6.0127C14.6318 6.04943 14.6353 6.08736 14.6353 6.125C14.6352 6.16245 14.6318 6.19978 14.6245 6.23633L14.5913 6.34375C14.5769 6.37836 14.5593 6.41138 14.5386 6.44238L14.4673 6.5293L10.7017 10.2939C11.8275 10.7663 12.9231 10.7159 13.856 10.1514L14.0054 10.0557C15.5047 9.04032 16.3621 6.79061 16.2974 3.88965Z" fill="white" stroke="white" stroke-width="0.3"/>
<path d="M3 16.5H14" stroke="white" stroke-width="1.6" stroke-linecap="round" stroke-linejoin="round"/>
</svg>
