<svg width="64" height="64" viewBox="0 0 64 64" fill="none" xmlns="http://www.w3.org/2000/svg">
<circle cx="32" cy="32" r="32" fill="url(#paint0_linear_638_18681)"/>
<mask id="mask0_638_18681" style="mask-type:alpha" maskUnits="userSpaceOnUse" x="0" y="0" width="64" height="64">
<circle cx="32" cy="32" r="32" fill="#D9D9D9"/>
</mask>
<g mask="url(#mask0_638_18681)">
<path d="M38.1816 26.7801C38.1816 26.3492 38.5309 26 38.9617 26H49.7525C50.1833 26 50.5325 26.3492 50.5325 26.7801V35.1656C50.5325 38.5762 47.7677 41.3411 44.3571 41.3411C40.9465 41.3411 38.1816 38.5762 38.1816 35.1656V26.7801Z" fill="#F9D084"/>
<path d="M14 26.7801C14 26.3492 14.3492 26 14.7801 26H25.5708C26.0016 26 26.3509 26.3492 26.3509 26.7801V35.1656C26.3509 38.5762 23.586 41.3411 20.1754 41.3411C16.7648 41.3411 14 38.5762 14 35.1656V26.7801Z" fill="#F9D084"/>
<path d="M19 21.7801C19 21.3492 19.3492 21 19.7801 21H44.2199C44.6508 21 45 21.3492 45 21.7801V42.1995C45 46.5076 41.5076 50 37.1995 50H26.8005C22.4924 50 19 46.5076 19 42.1995V21.7801Z" fill="#FF822F"/>
<rect x="28.1709" y="50.1128" width="8.19058" height="8.06057" fill="#F9D084"/>
<path d="M31.8953 28.4419C32.0121 28.0826 32.5204 28.0826 32.6372 28.4419L33.6235 31.4776C33.6758 31.6383 33.8255 31.7471 33.9945 31.7471H37.1864C37.5642 31.7471 37.7213 32.2306 37.4156 32.4526L34.8333 34.3288C34.6966 34.4281 34.6394 34.6041 34.6916 34.7648L35.678 37.8005C35.7947 38.1598 35.3835 38.4586 35.0778 38.2366L32.4955 36.3604C32.3588 36.2611 32.1737 36.2611 32.037 36.3604L29.4547 38.2366C29.1491 38.4586 28.7378 38.1598 28.8545 37.8005L29.8409 34.7648C29.8931 34.6041 29.8359 34.4281 29.6992 34.3288L27.1169 32.4526C26.8112 32.2306 26.9683 31.7471 27.3462 31.7471H30.538C30.707 31.7471 30.8568 31.6383 30.909 31.4776L31.8953 28.4419Z" fill="#F9D084"/>
<path d="M22.4504 62.1446C22.4504 62.3927 22.6515 62.5938 22.8996 62.5938H41.6327C41.8807 62.5938 42.0818 62.3927 42.0818 62.1446C42.0818 59.6642 40.071 57.6534 37.5906 57.6534H26.9417C24.4612 57.6534 22.4504 59.6642 22.4504 62.1446Z" fill="#FF822F"/>
<path d="M18.0303 66.5645C18.0303 66.8126 18.2314 67.0137 18.4794 67.0137H46.1832C46.4312 67.0137 46.6323 66.8126 46.6323 66.5645C46.6323 64.0841 44.6215 62.0733 42.1411 62.0733H22.5215C20.0411 62.0733 18.0303 64.0841 18.0303 66.5645Z" fill="#FF822F"/>
</g>
<defs>
<linearGradient id="paint0_linear_638_18681" x1="32" y1="0" x2="32" y2="64" gradientUnits="userSpaceOnUse">
<stop stop-color="#F0FFD7"/>
<stop offset="1" stop-color="#D7EFAE"/>
</linearGradient>
</defs>
</svg>
