<svg width="118" height="42" viewBox="0 0 118 42" fill="none" xmlns="http://www.w3.org/2000/svg">
<path d="M100.41 39.9353C100.054 40.7156 98.9457 40.7156 98.5901 39.9353L93.6497 29.0964C93.3478 28.4342 93.8319 27.6816 94.5596 27.6816L104.44 27.6816C105.168 27.6816 105.652 28.4342 105.35 29.0964L100.41 39.9353Z" fill="#B969FF"/>
<path d="M6.31941 0.789913C6.42469 0.329406 6.83786 0.0053832 7.31019 0.0129089L108.748 1.62913C109.193 1.63623 109.58 1.93702 109.697 2.36686L117.643 31.6183C117.82 32.2696 117.314 32.9055 116.64 32.8798L1.20564 28.4776C0.579427 28.4537 0.12923 27.8664 0.268893 27.2554L6.31941 0.789913Z" fill="#B969FF"/>
<path d="M30.3428 10.5827V11.847H27.1695C27.3528 12.7953 28.5475 13.7561 30.8233 14.009L30.2291 15.2733C28.0734 15.0331 26.6384 14.1418 26.0316 12.947C25.4247 14.1354 23.9961 15.0331 21.8468 15.2733L21.2652 14.009C23.5409 13.7561 24.7167 12.7889 24.9064 11.847H21.7583V10.5827H30.3428ZM20.7847 17.1065V15.8169H31.3164V17.1065H26.9798V19.0915H25.3868V17.1065H20.7847ZM22.0238 21.3925V18.0674H23.6294V20.1029H30.1532V21.3925H22.0238ZM41.6204 10.0897V21.6201H39.9895V10.0897H41.6204ZM32.5554 18.9271V11H34.1737V13.8067H36.6517V11H38.2447V18.9271H32.5554ZM34.1737 17.6249H36.6517V15.0584H34.1737V17.6249ZM56.6529 15.3112V16.6135H52.2026V17.4669C54.2002 17.6123 55.3886 18.3329 55.4013 19.5213C55.3886 20.8552 53.8778 21.6011 51.3934 21.5948C48.8712 21.6011 47.3603 20.8552 47.3603 19.5213C47.3603 18.3266 48.5551 17.6059 50.5969 17.4605V16.6135H46.1592V15.3112H56.6529ZM46.627 13.6171C48.7574 13.4274 49.9332 12.6436 50.224 11.847H47.1201V10.5827H55.7047V11.847H52.5756C52.8537 12.6499 54.0232 13.4274 56.2104 13.6171L55.6415 14.8814C53.4669 14.6728 52.0066 13.8573 51.3934 12.7384C50.7866 13.851 49.3389 14.6791 47.158 14.8814L46.627 13.6171ZM49.0039 19.5213C48.9976 20.0776 49.8004 20.3811 51.3934 20.3811C52.9548 20.3811 53.7766 20.0776 53.783 19.5213C53.7766 18.9398 52.9548 18.6616 51.3934 18.649C49.8004 18.6616 48.9976 18.9398 49.0039 19.5213ZM66.9822 10.0897V21.6201H65.3513V10.0897H66.9822ZM57.6896 14.9952C57.6833 12.4855 58.9666 10.8988 60.7366 10.8988C62.4687 10.8988 63.7583 12.4855 63.7583 14.9952C63.7583 17.5238 62.4687 19.1041 60.7366 19.1041C58.9666 19.1041 57.6833 17.5238 57.6896 14.9952ZM59.2447 14.9952C59.2384 16.7083 59.839 17.6439 60.7366 17.6375C61.609 17.6439 62.1969 16.7083 62.2032 14.9952C62.1969 13.2883 61.609 12.3528 60.7366 12.3528C59.839 12.3528 59.2384 13.2883 59.2447 14.9952ZM78.5127 10.0897V21.5948H76.9702V10.0897H78.5127ZM68.6385 15.071C68.6385 12.4982 69.6183 10.9051 71.1418 10.9115C72.5262 10.9051 73.4744 12.2011 73.6514 14.3504H74.5933V10.254H76.1105V21.0638H74.5933V15.6273H73.6641C73.525 17.8841 72.5578 19.2558 71.1418 19.2558C69.6183 19.2558 68.6385 17.6565 68.6385 15.071ZM70.1304 15.071C70.1177 16.841 70.497 17.7134 71.1418 17.7008C71.8055 17.7134 72.1975 16.841 72.1912 15.071C72.1975 13.3073 71.8055 12.4286 71.1418 12.4286C70.497 12.4286 70.1177 13.3073 70.1304 15.071ZM90.258 18.9271V20.2546H79.7264V18.9271H82.078V16.1077C81.1867 15.5704 80.6493 14.7549 80.6493 13.7435C80.6493 11.8787 82.4699 10.6523 84.9732 10.646C87.4639 10.6523 89.3035 11.8787 89.3098 13.7435C89.3035 14.736 88.7851 15.5388 87.919 16.0761V18.9271H90.258ZM82.2423 13.7435C82.2423 14.8687 83.3233 15.5641 84.9732 15.5641C86.5979 15.5641 87.7104 14.8687 87.7168 13.7435C87.7104 12.5867 86.5979 11.9166 84.9732 11.9229C83.3233 11.9166 82.2423 12.5867 82.2423 13.7435ZM83.671 18.9271H86.2881V16.6893C85.8772 16.7715 85.4347 16.8157 84.9732 16.8157C84.5118 16.8157 84.0756 16.7715 83.671 16.6956V18.9271ZM93.5325 11.2781L93.3682 17.6881H91.7499L91.5855 11.2781H93.5325ZM91.5097 19.4834C91.497 18.9018 91.9774 18.4277 92.5717 18.434C93.1343 18.4277 93.621 18.9018 93.621 19.4834C93.621 20.0713 93.1343 20.5454 92.5717 20.5454C91.9774 20.5454 91.497 20.0713 91.5097 19.4834Z" fill="white"/>
</svg>
