<svg width="98" height="111" viewBox="0 0 98 111" fill="none" xmlns="http://www.w3.org/2000/svg">
<path d="M94.1644 1.43219L7.3739 0L0.0644531 58.8475L97.0327 82.2402L94.1644 1.43219Z" fill="#78DD50"/>
<path d="M58.1279 43.0957C62.5233 38.54 82.8272 26.9529 95.5898 48.2852L96.7764 81.8135L96.7939 82.2959L96.3242 82.1826L0.318359 58.9502L0 58.874L0.0400391 58.5489L1.86133 43.8389C6.01683 44.2488 10.8463 45.7091 16.2607 48.8448C36.3186 60.4608 53.3522 48.0458 58.1279 43.0957Z" fill="#4BA427"/>
<path d="M31.4512 35.5277C32.7904 36.8669 36.2723 38.7418 39.4864 35.5277" stroke="black" stroke-width="1.8262" stroke-linecap="round" stroke-linejoin="round"/>
<path d="M48.5576 28.2979C47.2713 26.1139 43.927 23.0563 40.8399 28.2979" stroke="black" stroke-width="1.8262" stroke-linecap="round" stroke-linejoin="round"/>
<circle cx="26.3363" cy="27.1264" r="3.65237" fill="black"/>
<ellipse cx="33.4429" cy="29.4231" rx="4.50198" ry="4.01962" fill="#B969FF"/>
<path d="M27.063 95.6884H70.4948L77.4439 104.375L18.8109 110.89L27.063 95.6884Z" fill="#B6B6B6" fill-opacity="0.34"/>
</svg>
