<svg width="64" height="64" viewBox="0 0 64 64" fill="none" xmlns="http://www.w3.org/2000/svg">
<circle cx="32" cy="32" r="32" fill="url(#paint0_linear_638_18896)"/>
<mask id="mask0_638_18896" style="mask-type:alpha" maskUnits="userSpaceOnUse" x="0" y="0" width="64" height="64">
<circle cx="32" cy="32" r="32" fill="url(#paint1_linear_638_18896)"/>
</mask>
<g mask="url(#mask0_638_18896)">
<circle cx="31.5" cy="26.5" r="13.5" fill="#2A7735"/>
<circle cx="31.5" cy="26.5" r="10.5" fill="#39B94C"/>
<path d="M33.9633 24.0192C34.0181 23.2161 33.5362 21.6099 31.1707 21.6099C28.8051 21.6099 28.4328 23.4716 28.5423 24.4025C28.6335 24.9136 29.287 26.0453 31.1707 26.4833C33.5253 27.0309 34.2371 28.0166 34.2371 29.1117C34.2371 30.2069 33.142 31.083 31.1707 30.9735C29.1994 30.864 28.5423 29.7688 28.5423 28.7284" stroke="#2A7735" stroke-width="1.37082" stroke-linecap="round" stroke-linejoin="round"/>
<path d="M31.2803 33.0003V19.9131" stroke="#2A7735" stroke-width="1.3137" stroke-linecap="round" stroke-linejoin="round"/>
<rect x="18" y="49" width="27" height="7" fill="#2A7735"/>
<rect x="18" y="41" width="27" height="7" fill="#39B94C"/>
<rect x="18" y="57" width="27" height="7" fill="#39B94C"/>
</g>
<defs>
<linearGradient id="paint0_linear_638_18896" x1="32" y1="0" x2="32" y2="64" gradientUnits="userSpaceOnUse">
<stop stop-color="#F0FFD7"/>
<stop offset="1" stop-color="#D7EFAE"/>
</linearGradient>
<linearGradient id="paint1_linear_638_18896" x1="32" y1="0" x2="32" y2="64" gradientUnits="userSpaceOnUse">
<stop stop-color="#F0FFD7"/>
<stop offset="1" stop-color="#D7EFAE"/>
</linearGradient>
</defs>
</svg>
