<svg width="24" height="25" viewBox="0 0 24 25" fill="none" xmlns="http://www.w3.org/2000/svg">
<path d="M8.59 14.01L15.42 17.99M15.41 7.01L8.59 10.99M21 5.5C21 7.15685 19.6569 8.5 18 8.5C16.3431 8.5 15 7.15685 15 5.5C15 3.84315 16.3431 2.5 18 2.5C19.6569 2.5 21 3.84315 21 5.5ZM9 12.5C9 14.1569 7.65685 15.5 6 15.5C4.34315 15.5 3 14.1569 3 12.5C3 10.8431 4.34315 9.5 6 9.5C7.65685 9.5 9 10.8431 9 12.5ZM21 19.5C21 21.1569 19.6569 22.5 18 22.5C16.3431 22.5 15 21.1569 15 19.5C15 17.8431 16.3431 16.5 18 16.5C19.6569 16.5 21 17.8431 21 19.5Z" stroke="#505154" stroke-width="1.7" stroke-linecap="round" stroke-linejoin="round"/>
</svg>
