<svg width="65" height="64" viewBox="0 0 65 64" fill="none" xmlns="http://www.w3.org/2000/svg">
<circle cx="32.5" cy="32" r="32" fill="url(#paint0_linear_1198_20734)"/>
<mask id="mask0_1198_20734" style="mask-type:alpha" maskUnits="userSpaceOnUse" x="0" y="0" width="65" height="64">
<circle cx="32.5" cy="32" r="32" fill="url(#paint1_linear_1198_20734)"/>
</mask>
<g mask="url(#mask0_1198_20734)">
<path d="M21.774 22.5625L16.4982 23.375L27.9773 24.966L33.4982 18.5L31.1533 19.3125L32.912 12L28.2223 20.9375L26.4637 16.0625H24.1189L25.2913 20.9375L22.3602 20.125L23.5327 21.75L16.4982 20.125L21.774 22.5625Z" fill="#39B94C"/>
<path d="M38.5028 48.4995C32.9999 50.9999 17.2691 38.5001 17.2691 32.943C17.269 27.386 19.7331 26.9766 28.1631 23.4744C36.5931 19.9723 40.4996 20.8569 42.4997 24.5C44.4999 28.143 44.0057 45.9991 38.5028 48.4995Z" fill="#FF1C3E"/>
<path d="M22 31L23.299 34H20.701L22 31Z" fill="#444444"/>
<path d="M28.7228 26.9992L31.2806 27.968L29.1627 29.6988L28.7228 26.9992Z" fill="#444444"/>
<path d="M36.7228 24.9992L39.2806 25.968L37.1627 27.6988L36.7228 24.9992Z" fill="#444444"/>
<path d="M35.7228 31.9992L38.2806 32.968L36.1627 34.6988L35.7228 31.9992Z" fill="#444444"/>
<path d="M28.7228 36.9992L31.2806 37.968L29.1627 39.6988L28.7228 36.9992Z" fill="#444444"/>
<path d="M34.7401 43.5608L37.2891 42.5692L36.8733 45.2726L34.7401 43.5608Z" fill="#444444"/>
</g>
<defs>
<linearGradient id="paint0_linear_1198_20734" x1="32.5" y1="0" x2="32.5" y2="64" gradientUnits="userSpaceOnUse">
<stop stop-color="#F0FFD7"/>
<stop offset="1" stop-color="#D7EFAE"/>
</linearGradient>
<linearGradient id="paint1_linear_1198_20734" x1="32.5" y1="0" x2="32.5" y2="64" gradientUnits="userSpaceOnUse">
<stop stop-color="#F0FFD7"/>
<stop offset="1" stop-color="#D7EFAE"/>
</linearGradient>
</defs>
</svg>
