<svg width="361" height="60" viewBox="0 0 361 60" fill="none" xmlns="http://www.w3.org/2000/svg">
<g clip-path="url(#clip0_589_16651)">
<rect width="361" height="60" rx="8" fill="#339C43"/>
<path d="M336.714 23.7856L342.371 29.4425L336.657 35.1568" stroke="#F8F9FB" stroke-width="2" stroke-linecap="round" stroke-linejoin="round"/>
<path d="M28.0804 28.6094V30.2344H26.0648V37.4062H24.0648V23.2188H26.0648V28.6094H28.0804ZM15.2991 33.9375V24.5781H17.2835V32.2891C19.1038 32.2578 21.0569 32.0859 23.1116 31.6719L23.3148 33.3281C20.9319 33.8125 18.6273 33.9375 16.5335 33.9375H15.2991ZM33.2675 24.1719C35.5253 24.1641 37.1972 25.6172 37.205 27.6562C37.1972 29.7031 35.5253 31.1484 33.2675 31.1562C31.0253 31.1484 29.3066 29.7031 29.3144 27.6562C29.3066 25.6172 31.0253 24.1641 33.2675 24.1719ZM28.7206 32.9375C31.2597 32.9453 34.7753 32.9141 37.8144 32.4844L37.9706 33.9219C34.8144 34.5391 31.4394 34.5625 28.955 34.5625L28.7206 32.9375ZM31.2988 27.6562C31.2909 28.7812 32.1425 29.4297 33.2675 29.4219C34.4003 29.4297 35.2597 28.7812 35.2675 27.6562C35.2597 26.5469 34.4003 25.8906 33.2675 25.8906C32.1425 25.8906 31.2909 26.5469 31.2988 27.6562ZM38.6269 37.4688V23.2188H40.6113V37.4688H38.6269ZM57.673 26.7812V28.375H53.6261V29.7969H59.1418V31.3906H46.1418V29.7969H51.6418V28.375H47.7824V23.4375H49.7668V26.7812H57.673ZM47.6261 34.7969C47.6261 33.1172 49.5011 32.1562 52.6105 32.1562C55.6964 32.1562 57.548 33.1172 57.5636 34.7969C57.548 36.4766 55.6964 37.4453 52.6105 37.4375C49.5011 37.4453 47.6261 36.4766 47.6261 34.7969ZM49.6574 34.7969C49.6496 35.5312 50.6418 35.9219 52.6105 35.9219C54.5402 35.9219 55.5558 35.5312 55.5636 34.7969C55.5558 34.0312 54.5402 33.6797 52.6105 33.6875C50.6418 33.6797 49.6496 34.0312 49.6574 34.7969ZM72.9539 31.4219V32.9844H67.3914V37.4375H65.4226V32.9844H59.9383V31.4219H72.9539ZM61.4695 30.0469V23.7656H63.4383V25.4062H69.407V23.7656H71.407V30.0469H61.4695ZM63.4383 28.4531H69.407V26.9688H63.4383V28.4531ZM90.4375 31.125V32.7344H87.3906V37.4375H85.3594V32.7344H82.4531V37.4375H80.4062V32.7344H77.4219V31.125H90.4375ZM78.7344 26.9062C78.7266 24.9453 80.8359 23.6953 83.8906 23.6875C86.9453 23.6953 89.0781 24.9453 89.0781 26.9062C89.0781 28.8203 86.9453 30.0391 83.8906 30.0312C80.8359 30.0391 78.7266 28.8203 78.7344 26.9062ZM80.7812 26.9062C80.7734 27.9062 81.9844 28.4609 83.8906 28.4688C85.8125 28.4609 87.0156 27.9062 87.0156 26.9062C87.0156 25.8594 85.8125 25.2891 83.8906 25.2812C81.9844 25.2891 80.7734 25.8594 80.7812 26.9062ZM99.1871 24.5312V26.1094H91.2809V24.5312H94.3434V23.0938H96.3278V24.5312H99.1871ZM91.984 29.25C91.9684 27.6719 93.3512 26.5859 95.3121 26.5781C97.2653 26.5859 98.6715 27.6719 98.6871 29.25C98.6715 30.8438 97.2653 31.8984 95.3121 31.8906C93.3512 31.8984 91.9684 30.8438 91.984 29.25ZM93.4996 34.9531C93.4918 33.375 95.3668 32.4453 98.4059 32.4531C101.429 32.4453 103.304 33.375 103.312 34.9531C103.304 36.5 101.429 37.4453 98.4059 37.4375C95.3668 37.4453 93.4918 36.5 93.4996 34.9531ZM93.8434 29.25C93.8356 30.0156 94.4137 30.4219 95.3121 30.4219C96.2028 30.4219 96.8278 30.0156 96.8278 29.25C96.8278 28.4922 96.2028 28.0703 95.3121 28.0625C94.4137 28.0703 93.8356 28.4922 93.8434 29.25ZM95.5934 34.9531C95.5934 35.6016 96.5856 35.9375 98.4059 35.9375C100.187 35.9375 101.172 35.6016 101.172 34.9531C101.172 34.2734 100.187 33.9688 98.4059 33.9531C96.5856 33.9688 95.5934 34.2734 95.5934 34.9531ZM99.3121 30.7812V29.1875H101.25V27.9375H99.3434V26.3438H101.25V23.2188H103.234V32.2812H101.25V30.7812H99.3121ZM120.108 23.2344V27.2969H121.921V28.9375H120.108V32.8906H118.108V23.2344H120.108ZM108.577 31.0625C109.616 31.0625 110.796 31.0625 112.03 31.0312V30.2344C110.483 30.0156 109.522 29.2578 109.53 28.1719C109.522 26.8516 110.905 26.0391 113.015 26.0469C115.108 26.0391 116.491 26.8516 116.499 28.1719C116.491 29.2578 115.538 30.0078 114.015 30.2266V30.9609C115.186 30.8984 116.358 30.8125 117.452 30.6719L117.593 32.0469C114.585 32.5781 111.288 32.6094 108.78 32.6094L108.577 31.0625ZM108.952 25.7188V24.2656H112.03V23.1094H114.015V24.2656H117.093V25.7188H108.952ZM110.39 35V33.4688H120.108V37.4375H118.108V35H110.39ZM111.436 28.1719C111.429 28.6875 111.999 28.9922 113.015 28.9844C114.015 28.9922 114.585 28.6875 114.593 28.1719C114.585 27.6172 114.015 27.375 113.015 27.375C111.999 27.375 111.429 27.6172 111.436 28.1719ZM134.452 23.2344V33.4531H132.452V23.2344H134.452ZM122.764 27.7188C122.764 25.6328 124.467 24.1328 126.655 24.1406C128.834 24.1328 130.538 25.6328 130.545 27.7188C130.538 29.8359 128.834 31.3281 126.655 31.3281C124.467 31.3281 122.764 29.8359 122.764 27.7188ZM124.717 27.7188C124.702 28.9062 125.538 29.5938 126.655 29.5938C127.733 29.5938 128.569 28.9062 128.577 27.7188C128.569 26.5625 127.733 25.8672 126.655 25.875C125.538 25.8672 124.702 26.5625 124.717 27.7188ZM124.92 37.1875V32.4219H126.936V35.5938H134.827V37.1875H124.92ZM147.576 23.2188V28.7812H149.67V30.4219H147.576V37.4375H145.607V23.2188H147.576ZM136.279 26.9375V25.3438H139.498V23.4375H141.498V25.3438H144.639V26.9375H136.279ZM136.857 31.125C136.85 29.1406 138.397 27.7266 140.498 27.7344C142.568 27.7266 144.123 29.1406 144.123 31.125C144.123 33.1094 142.568 34.5078 140.498 34.5156C138.397 34.5078 136.85 33.1094 136.857 31.125ZM138.764 31.125C138.764 32.2266 139.49 32.8828 140.498 32.875C141.49 32.8828 142.217 32.2266 142.217 31.125C142.217 30.0312 141.49 29.3594 140.498 29.3438C139.49 29.3594 138.764 30.0312 138.764 31.125ZM162.123 23.2188V37.4375H160.107V23.2188H162.123ZM150.216 33.4062C153.888 31.6719 155.506 29.4219 155.826 26.2656H150.982V24.7031H157.857C157.849 29.0156 156.341 32.6016 151.263 35L150.216 33.4062Z" fill="#F8F9FB"/>
<path d="M324.912 11.7388L263.191 -5.8959L246.706 34.7406L311.495 70.0099L324.912 11.7388Z" fill="#78DD50"/>
<path d="M261.195 57.808L292.219 66.1208L295.52 73.6556L252.391 67.0869L261.195 57.808Z" fill="#AAAAAA" fill-opacity="0.34"/>
<path d="M218.477 47.2476L213 7.96729L236.042 7.96729L264.749 28.3628V68.5874H230.942L218.477 47.2476Z" fill="#E8FF6D"/>
<path d="M264.749 28.3643V68.5889H230.943L226.255 60.5645H264.326V57.6074H224.529L219.839 49.5791H264.326V46.4111H218.361L217.272 38.5967H264.326V35.2178H216.8L215.71 27.4004L263.393 27.4004L264.749 28.3643ZM258.934 24.2324L215.323 24.2324V24.6289L214.262 17.0176H248.779L258.934 24.2324ZM244.616 14.0605L213.85 14.0605L213 7.96875L236.042 7.96875L244.616 14.0605Z" fill="#E8FF6D"/>
<path d="M236.195 42.4347C235.101 38.1564 236.005 36.5182 237.796 34.6075C238.941 33.4108 239.66 31.9269 239.202 30.2176C238.657 28.1827 236.75 27.3154 234.796 27.8388C233.038 28.3099 231.617 29.8424 232.116 32.291L228.599 33.2332C227.617 29.047 230.136 25.9467 234.011 24.9085C238.244 23.7744 241.757 25.555 242.751 29.2667C243.454 31.8877 242.667 33.9654 240.94 35.7892C239.304 37.5011 238.853 38.8782 239.516 41.5448L239.568 41.7402L236.247 42.6301L236.195 42.4347ZM236.991 47.4907C236.634 46.2253 237.413 44.8998 238.683 44.5596C239.937 44.2237 241.258 44.9864 241.614 46.2519C241.938 47.526 241.171 48.8308 239.922 49.183C238.648 49.5069 237.315 48.7648 236.991 47.4907Z" fill="#96AC58"/>
<path d="M278.963 31.306C280.225 26.8017 281.922 25.7779 284.578 24.9737C286.262 24.4824 287.708 23.502 288.193 21.6913C288.77 19.5356 287.48 17.7297 285.41 17.1752C283.548 16.6762 281.432 17.3291 280.593 19.8398L276.868 18.8417C278.185 14.4812 282.138 12.9714 286.242 14.0711C290.726 15.2725 293.006 18.7667 291.952 22.6986C291.208 25.475 289.386 26.9644 286.835 27.7227C284.429 28.4271 283.285 29.4516 282.481 32.2486L282.425 32.4556L278.907 31.5129L278.963 31.306ZM277.015 36.3661C277.358 35.0164 278.775 34.213 280.12 34.5735C281.448 34.9293 282.256 36.3287 281.913 37.6784C281.535 39.0189 280.14 39.8096 278.808 39.471C277.467 39.0934 276.638 37.7066 277.015 36.3661Z" fill="#3A7B20"/>
</g>
<defs>
<clipPath id="clip0_589_16651">
<rect width="361" height="60" rx="8" fill="white"/>
</clipPath>
</defs>
</svg>
