<svg width="230" height="282" viewBox="0 0 230 282" fill="none" xmlns="http://www.w3.org/2000/svg">
<path d="M0.264686 86.6057L7.54361 82.8301C6.08782 87.4447 5.06878 96.7997 12.6389 97.3032C20.0614 97.7968 23.8916 97.5241 24.953 97.3155L25.013 97.3032C24.9941 97.3072 24.9741 97.3114 24.953 97.3155L9.72729 100.449C5.84519 99.8202 -1.48226 96.1705 0.264686 86.6057Z" fill="#B969FF"/>
<path d="M178.521 110.918C183.524 110.918 188.11 98.3332 189.777 92.0405H178.521C178.521 100.095 171.017 106.304 167.265 108.401L178.521 110.918Z" fill="#B969FF"/>
<path d="M31.646 51.9772L28.4461 44.3918C32.9107 46.1961 42.1057 47.9148 43.1678 40.3556C44.2092 32.9438 44.224 29.0798 44.0963 27.9992L44.0885 27.938C44.0911 27.9573 44.0937 27.9777 44.0963 27.9992L46.0691 43.5115C45.1567 47.3604 40.9946 54.442 31.646 51.9772Z" fill="#B969FF"/>
<path d="M205.252 56.6335L212.53 52.8579C211.075 57.4725 210.056 66.8276 217.626 67.331C225.048 67.8246 228.878 67.5519 229.94 67.3433L230 67.331C229.981 67.3351 229.961 67.3392 229.94 67.3433L214.714 70.4773C210.832 69.848 203.505 66.1983 205.252 56.6335Z" fill="#B969FF"/>
<path d="M212.609 52.8579C210.402 57.3005 207.415 65.8598 210.87 68.5018C211.498 68.8348 212.095 69.071 212.609 69.2188C211.904 69.1005 211.33 68.8536 210.87 68.5018C207.928 66.9442 204.281 63.2696 205.105 56.6335L212.609 52.8579Z" fill="#B969FF"/>
<path d="M7.62223 82.8301C5.41483 87.2727 2.42822 95.8319 5.88277 98.474C6.51164 98.8069 7.10831 99.0432 7.62223 99.1909C6.91687 99.0726 6.34273 98.8258 5.88277 98.474C2.94078 96.9163 -0.705915 93.2417 0.118403 86.6057L7.62223 82.8301Z" fill="#B969FF"/>
<path d="M156.211 18.8779C151.208 18.8779 146.622 6.29264 144.955 0H156.211C156.211 8.05458 163.715 14.2633 167.467 16.3609L156.211 18.8779Z" fill="#B969FF"/>
<path d="M50.2567 186.842L34.8433 75.6045H99.6858L180.473 133.362V247.274H85.3354L50.2567 186.842Z" fill="#96AC58"/>
<path d="M180.473 133.362V247.272H85.3345L72.1421 224.545H179.284V216.171H67.2817L54.0874 193.439H179.284V184.467H49.9282L46.8618 162.336H179.284V152.766H45.5356L42.4692 130.636H176.66L180.473 133.362ZM164.109 121.663H41.3813V122.787L38.0757 98.9326H132.316L164.109 121.663ZM120.603 90.5586H36.9155L34.8433 75.6045H99.686L120.603 90.5586Z" fill="#CEE35E"/>
<path d="M109.667 166.501C112.142 168.993 118.578 172.48 124.519 166.501" stroke="black" stroke-width="3.40457" stroke-linecap="round" stroke-linejoin="round"/>
<path d="M108.47 151.632C105.969 147.833 99.4658 142.515 93.4626 151.632" stroke="black" stroke-width="3.40457" stroke-linecap="round" stroke-linejoin="round"/>
<ellipse cx="132.784" cy="150.877" rx="6.75126" ry="6.79378" fill="black"/>
<ellipse cx="119.294" cy="153.95" rx="8.32171" ry="7.4769" fill="#FE624C"/>
<path d="M100.433 261.863H156.017L164.911 273.37L89.8716 282L100.433 261.863Z" fill="#8F9A7F" fill-opacity="0.67"/>
</svg>
