<svg width="25" height="24" viewBox="0 0 25 24" fill="none" xmlns="http://www.w3.org/2000/svg">
<path d="M14.4219 2.5C14.7481 2.5 15.0245 2.59772 15.2686 2.80371L15.3711 2.89844C15.64 3.16944 15.7685 3.48119 15.7686 3.86035C15.7686 4.19229 15.6697 4.4723 15.4648 4.71875L15.3711 4.82227C15.1023 5.09317 14.7946 5.2207 14.4219 5.2207C14.0958 5.22066 13.8201 5.12282 13.5762 4.91699L13.4736 4.82227C13.2047 4.55124 13.0762 4.23956 13.0762 3.86035C13.0762 3.5285 13.1741 3.24835 13.3789 3.00195L13.4736 2.89844C13.7423 2.62783 14.0494 2.50005 14.4219 2.5ZM14.4609 15.707L14.2646 15.5566L12.3262 14.0684L11.7031 13.5898L11.5342 14.3574L9.95898 21.5H9.03027L11.4971 8.98047L11.6738 8.08496L10.8242 8.41797L9.16309 9.06934L8.84473 9.19336V12.1973H7.99902V8.6543L12.3574 6.78516L12.3584 6.78418C12.5202 6.71429 12.6916 6.67397 12.874 6.66211C13.0039 6.65369 13.1252 6.66404 13.2402 6.69238L13.3525 6.72656C13.5219 6.78753 13.6842 6.87341 13.8398 6.98633C13.9714 7.08178 14.0823 7.20523 14.1719 7.36328L14.1768 7.37109L14.1816 7.37988L15.1045 8.86816C15.4923 9.49895 16.0003 10.029 16.6221 10.458L16.8955 10.6357C17.5299 11.0236 18.2342 11.2453 18.999 11.3125V12.1768C18.3196 12.127 17.7018 11.9766 17.1416 11.7246L16.8486 11.582C16.0552 11.1604 15.3819 10.625 14.8242 9.97656L14.1572 9.20117L13.9551 10.2031L13.3779 13.0635L13.3242 13.333L13.5225 13.5234L15.3066 15.2354V21.5H14.4609V15.707Z" fill="#3C3E41" stroke="#3C3E41"/>
</svg>
