<svg width="29" height="29" viewBox="0 0 29 29" fill="none" xmlns="http://www.w3.org/2000/svg">
<path d="M28.1203 8.98739C28.1203 8.98739 27.8468 7.05697 27.0047 6.20934C25.9383 5.09374 24.7461 5.08827 24.1993 5.02265C20.2837 4.73828 14.405 4.73828 14.405 4.73828H14.3941C14.3941 4.73828 8.51531 4.73828 4.59979 5.02265C4.05293 5.08827 2.86077 5.09374 1.7944 6.20934C0.952231 7.05697 0.68427 8.98739 0.68427 8.98739C0.68427 8.98739 0.399902 11.2569 0.399902 13.5209V15.6427C0.399902 17.9067 0.678801 20.1762 0.678801 20.1762C0.678801 20.1762 0.952231 22.1066 1.78893 22.9542C2.85531 24.0698 4.25527 24.0315 4.87869 24.1518C7.12082 24.3651 14.3995 24.4307 14.3995 24.4307C14.3995 24.4307 20.2837 24.4198 24.1993 24.1409C24.7461 24.0753 25.9383 24.0698 27.0047 22.9542C27.8468 22.1066 28.1203 20.1762 28.1203 20.1762C28.1203 20.1762 28.3992 17.9121 28.3992 15.6427V13.5209C28.3992 11.2569 28.1203 8.98739 28.1203 8.98739ZM11.5066 18.2184V10.3491L19.0697 14.2974L11.5066 18.2184Z" fill="#B1B4BC"/>
</svg>
